NotoSerifKhmer-CondensedBold.ufo
<glyph name="uni1781" format="2">
  <advance width="642"/>
  <unicode hex="1781"/>
  <note>
uni1781
</note>
  <anchor x="312" y="760" name="abvm"/>
  <anchor x="312" y="0" name="blwm"/>
  <outline>
    <contour>
      <point x="84" y="531" type="line"/>
      <point x="234" y="531" type="line"/>
      <point x="234" y="534" type="line" smooth="yes"/>
      <point x="234" y="562"/>
      <point x="262" y="580"/>
      <point x="313" y="580" type="curve" smooth="yes"/>
      <point x="368" y="580"/>
      <point x="392" y="557"/>
      <point x="392" y="500" type="curve" smooth="yes"/>
      <point x="392" y="463" type="line" smooth="yes"/>
      <point x="392" y="415"/>
      <point x="367" y="381"/>
      <point x="313" y="348" type="curve" smooth="yes"/>
      <point x="84" y="207" type="line"/>
      <point x="84" y="146" type="line" smooth="yes"/>
      <point x="84" y="61"/>
      <point x="173" y="0"/>
      <point x="313" y="0" type="curve" smooth="yes"/>
      <point x="452" y="0"/>
      <point x="542" y="60"/>
      <point x="542" y="146" type="curve" smooth="yes"/>
      <point x="542" y="322" type="line"/>
      <point x="392" y="227" type="line"/>
      <point x="392" y="182" type="line" smooth="yes"/>
      <point x="392" y="128"/>
      <point x="370" y="102"/>
      <point x="313" y="102" type="curve" smooth="yes"/>
      <point x="259" y="102"/>
      <point x="234" y="125"/>
      <point x="234" y="182" type="curve" smooth="yes"/>
      <point x="234" y="190" type="line"/>
      <point x="352" y="263" type="line" smooth="yes"/>
      <point x="479" y="342"/>
      <point x="542" y="420"/>
      <point x="542" y="463" type="curve" smooth="yes"/>
      <point x="542" y="536" type="line" smooth="yes"/>
      <point x="542" y="621"/>
      <point x="454" y="682"/>
      <point x="312" y="682" type="curve" smooth="yes"/>
      <point x="175" y="682"/>
      <point x="84" y="623"/>
      <point x="84" y="536" type="curve" smooth="yes"/>
    </contour>
    <contour>
      <point x="234" y="533" type="line"/>
      <point x="84" y="533" type="line"/>
      <point x="84" y="427" type="line" smooth="yes"/>
      <point x="84" y="384"/>
      <point x="121" y="355"/>
      <point x="202" y="355" type="curve" smooth="yes"/>
      <point x="276" y="355"/>
      <point x="322" y="381"/>
      <point x="322" y="451" type="curve" smooth="yes"/>
      <point x="322" y="489"/>
      <point x="307" y="529"/>
      <point x="234" y="529" type="curve"/>
    </contour>
    <contour>
      <point x="234" y="471" type="line"/>
      <point x="247" y="471"/>
      <point x="256" y="466"/>
      <point x="256" y="446" type="curve" smooth="yes"/>
      <point x="256" y="429"/>
      <point x="249" y="421"/>
      <point x="234" y="421" type="curve"/>
    </contour>
  </outline>
</glyph>
<glyph name="uni1783" format="2">
  <advance width="931"/>
  <unicode hex="1783"/>
  <note>
uni1783
</note>
  <anchor x="613" y="760" name="abvm"/>
  <anchor x="614" y="0" name="blwm"/>
  <outline>
    <contour>
      <point x="823" y="389" type="line"/>
      <point x="673" y="389" type="line"/>
      <point x="673" y="178" type="line" smooth="yes"/>
      <point x="673" y="141"/>
      <point x="662" y="102"/>
      <point x="604" y="102" type="curve" smooth="yes"/>
      <point x="547" y="102"/>
      <point x="534" y="141"/>
      <point x="534" y="178" type="curve" smooth="yes"/>
      <point x="534" y="389" type="line"/>
      <point x="384" y="389" type="line"/>
      <point x="384" y="178" type="line" smooth="yes"/>
      <point x="384" y="141"/>
      <point x="372" y="102"/>
      <point x="314" y="102" type="curve" smooth="yes"/>
      <point x="257" y="102"/>
      <point x="244" y="141"/>
      <point x="244" y="178" type="curve" smooth="yes"/>
      <point x="244" y="389" type="line"/>
      <point x="94" y="389" type="line"/>
      <point x="94" y="162" type="line" smooth="yes"/>
      <point x="94" y="78"/>
      <point x="156" y="0"/>
      <point x="297" y="0" type="curve" smooth="yes"/>
      <point x="361" y="0"/>
      <point x="411" y="16"/>
      <point x="459" y="62" type="curve"/>
      <point x="507" y="18"/>
      <point x="550" y="0"/>
      <point x="617" y="0" type="curve" smooth="yes"/>
      <point x="762" y="0"/>
      <point x="823" y="78"/>
      <point x="823" y="162" type="curve" smooth="yes"/>
    </contour>
    <contour>
      <point x="534" y="330" type="line"/>
      <point x="534" y="449" type="line"/>
      <point x="429" y="514" type="line"/>
      <point x="440" y="535" type="line"/>
      <point x="486" y="510"/>
      <point x="502" y="505"/>
      <point x="515" y="505" type="curve" smooth="yes"/>
      <point x="560" y="505"/>
      <point x="584" y="568"/>
      <point x="584" y="612" type="curve"/>
      <point x="540" y="612"/>
      <point x="496" y="643"/>
      <point x="429" y="680" type="curve"/>
      <point x="352" y="572"/>
      <point x="322" y="525"/>
      <point x="322" y="492" type="curve" smooth="yes"/>
      <point x="322" y="473"/>
      <point x="332" y="449"/>
      <point x="384" y="412" type="curve"/>
      <point x="384" y="330" type="line"/>
    </contour>
    <contour>
      <point x="244" y="340" type="line"/>
      <point x="244" y="576" type="line" smooth="yes"/>
      <point x="244" y="652"/>
      <point x="214" y="677"/>
      <point x="146" y="677" type="curve" smooth="yes"/>
      <point x="25" y="677"/>
      <point x="-23" y="601"/>
      <point x="-23" y="526" type="curve" smooth="yes"/>
      <point x="-23" y="463"/>
      <point x="11" y="411"/>
      <point x="94" y="404" type="curve"/>
      <point x="94" y="340" type="line"/>
    </contour>
    <contour>
      <point x="90" y="492" type="line"/>
      <point x="67" y="492"/>
      <point x="58" y="518"/>
      <point x="58" y="538" type="curve" smooth="yes"/>
      <point x="58" y="556"/>
      <point x="65" y="578"/>
      <point x="90" y="588" type="curve"/>
    </contour>
    <contour>
      <point x="823" y="330" type="line"/>
      <point x="823" y="449" type="line"/>
      <point x="718" y="514" type="line"/>
      <point x="729" y="535" type="line"/>
      <point x="775" y="510"/>
      <point x="791" y="505"/>
      <point x="804" y="505" type="curve" smooth="yes"/>
      <point x="849" y="505"/>
      <point x="873" y="568"/>
      <point x="873" y="612" type="curve"/>
      <point x="829" y="612"/>
      <point x="785" y="643"/>
      <point x="718" y="680" type="curve"/>
      <point x="641" y="572"/>
      <point x="611" y="525"/>
      <point x="611" y="492" type="curve" smooth="yes"/>
      <point x="611" y="473"/>
      <point x="621" y="449"/>
      <point x="673" y="412" type="curve"/>
      <point x="673" y="330" type="line"/>
    </contour>
  </outline>
</glyph>
<glyph name="uni1784" format="2">
  <advance width="713"/>
  <unicode hex="1784"/>
  <note>
uni1784
</note>
  <anchor x="363" y="840" name="abvm"/>
  <anchor x="389" y="0" name="blwm"/>
  <outline>
    <contour>
      <point x="153" y="0" type="line"/>
      <point x="296" y="0" type="line"/>
      <point x="382" y="55" type="line"/>
      <point x="468" y="0" type="line"/>
      <point x="613" y="0" type="line"/>
      <point x="613" y="335" type="line" smooth="yes"/>
      <point x="613" y="458"/>
      <point x="552" y="490"/>
      <point x="479" y="533" type="curve" smooth="yes"/>
      <point x="439" y="557"/>
      <point x="424" y="567"/>
      <point x="424" y="586" type="curve" smooth="yes"/>
      <point x="424" y="600"/>
      <point x="433" y="610"/>
      <point x="444" y="610" type="curve" smooth="yes"/>
      <point x="459" y="610"/>
      <point x="465" y="595"/>
      <point x="465" y="584" type="curve" smooth="yes"/>
      <point x="465" y="556"/>
      <point x="426" y="536"/>
      <point x="410" y="530" type="curve" smooth="yes"/>
      <point x="388" y="521"/>
      <point x="354" y="516"/>
      <point x="335" y="516" type="curve" smooth="yes"/>
      <point x="305" y="516"/>
      <point x="272" y="530"/>
      <point x="272" y="582" type="curve" smooth="yes"/>
      <point x="272" y="633"/>
      <point x="301" y="649"/>
      <point x="301" y="713" type="curve" smooth="yes"/>
      <point x="301" y="773"/>
      <point x="274" y="803"/>
      <point x="225" y="803" type="curve" smooth="yes"/>
      <point x="162" y="803"/>
      <point x="131" y="762"/>
      <point x="131" y="713" type="curve"/>
      <point x="159" y="713"/>
      <point x="172" y="693"/>
      <point x="172" y="649" type="curve" smooth="yes"/>
      <point x="172" y="620"/>
      <point x="164" y="595"/>
      <point x="164" y="567" type="curve" smooth="yes"/>
      <point x="164" y="502"/>
      <point x="207" y="422"/>
      <point x="316" y="422" type="curve" smooth="yes"/>
      <point x="382" y="422"/>
      <point x="456" y="451"/>
      <point x="491" y="476" type="curve" smooth="yes"/>
      <point x="540" y="512"/>
      <point x="557" y="562"/>
      <point x="557" y="600" type="curve" smooth="yes"/>
      <point x="557" y="658"/>
      <point x="517" y="714"/>
      <point x="447" y="714" type="curve" smooth="yes"/>
      <point x="368" y="714"/>
      <point x="337" y="648"/>
      <point x="337" y="600" type="curve" smooth="yes"/>
      <point x="337" y="549"/>
      <point x="371" y="509"/>
      <point x="389" y="494" type="curve" smooth="yes"/>
      <point x="419" y="470"/>
      <point x="463" y="457"/>
      <point x="463" y="400" type="curve" smooth="yes"/>
      <point x="463" y="117" type="line"/>
      <point x="382" y="169" type="line"/>
      <point x="303" y="117" type="line"/>
      <point x="303" y="128" type="line"/>
      <point x="153" y="128" type="line"/>
    </contour>
    <contour>
      <point x="303" y="103" type="line"/>
      <point x="303" y="306" type="line" smooth="yes"/>
      <point x="303" y="370"/>
      <point x="279" y="399"/>
      <point x="210" y="399" type="curve" smooth="yes"/>
      <point x="107" y="399"/>
      <point x="50" y="335"/>
      <point x="50" y="254" type="curve" smooth="yes"/>
      <point x="50" y="145"/>
      <point x="147" y="134"/>
      <point x="153" y="134" type="curve"/>
      <point x="153" y="103" type="line"/>
    </contour>
    <contour>
      <point x="153" y="224" type="line"/>
      <point x="137" y="228"/>
      <point x="126" y="242"/>
      <point x="126" y="264" type="curve" smooth="yes"/>
      <point x="126" y="287"/>
      <point x="138" y="302"/>
      <point x="153" y="312" type="curve"/>
    </contour>
  </outline>
</glyph>
<glyph name="uni1785" format="2">
  <advance width="609"/>
  <unicode hex="1785"/>
  <note>
uni1785
</note>
  <anchor x="301" y="760" name="abvm"/>
  <anchor x="301" y="0" name="blwm"/>
  <outline>
    <contour>
      <point x="523" y="185" type="line"/>
      <point x="373" y="185" type="line"/>
      <point x="373" y="166" type="line" smooth="yes"/>
      <point x="373" y="132"/>
      <point x="351" y="102"/>
      <point x="301" y="102" type="curve" smooth="yes"/>
      <point x="253" y="102"/>
      <point x="230" y="130"/>
      <point x="230" y="166" type="curve" smooth="yes"/>
      <point x="230" y="410" type="line"/>
      <point x="80" y="410" type="line"/>
      <point x="80" y="146" type="line" smooth="yes"/>
      <point x="80" y="61"/>
      <point x="167" y="0"/>
      <point x="301" y="0" type="curve" smooth="yes"/>
      <point x="433" y="0"/>
      <point x="523" y="60"/>
      <point x="523" y="146" type="curve" smooth="yes"/>
    </contour>
    <contour>
      <point x="523" y="168" type="line"/>
      <point x="523" y="371" type="line" smooth="yes"/>
      <point x="523" y="435"/>
      <point x="499" y="464"/>
      <point x="430" y="464" type="curve" smooth="yes"/>
      <point x="327" y="464"/>
      <point x="270" y="400"/>
      <point x="270" y="319" type="curve" smooth="yes"/>
      <point x="270" y="210"/>
      <point x="367" y="199"/>
      <point x="373" y="199" type="curve"/>
      <point x="373" y="168" type="line"/>
    </contour>
    <contour>
      <point x="373" y="289" type="line"/>
      <point x="357" y="293"/>
      <point x="346" y="307"/>
      <point x="346" y="329" type="curve" smooth="yes"/>
      <point x="346" y="352"/>
      <point x="358" y="367"/>
      <point x="373" y="377" type="curve"/>
    </contour>
    <contour>
      <point x="80" y="333" type="line"/>
      <point x="230" y="333" type="line"/>
      <point x="230" y="470" type="line"/>
      <point x="196" y="497"/>
      <point x="143" y="532"/>
      <point x="143" y="554" type="curve" smooth="yes"/>
      <point x="143" y="558"/>
      <point x="146" y="564"/>
      <point x="149" y="567" type="curve" smooth="yes"/>
      <point x="153" y="571"/>
      <point x="156" y="573"/>
      <point x="160" y="573" type="curve" smooth="yes"/>
      <point x="165" y="573"/>
      <point x="168" y="569"/>
      <point x="179" y="558" type="curve" smooth="yes"/>
      <point x="210" y="527"/>
      <point x="237" y="508"/>
      <point x="272" y="508" type="curve" smooth="yes"/>
      <point x="300" y="508"/>
      <point x="328" y="519"/>
      <point x="354" y="539" type="curve" smooth="yes"/>
      <point x="372" y="553"/>
      <point x="384" y="562"/>
      <point x="389" y="562" type="curve" smooth="yes"/>
      <point x="408" y="562"/>
      <point x="432" y="506"/>
      <point x="480" y="506" type="curve" smooth="yes"/>
      <point x="513" y="506"/>
      <point x="557" y="532"/>
      <point x="571" y="601" type="curve"/>
      <point x="534" y="592"/>
      <point x="522" y="599"/>
      <point x="494" y="631" type="curve" smooth="yes"/>
      <point x="468" y="661" type="line" smooth="yes"/>
      <point x="441" y="693"/>
      <point x="427" y="700"/>
      <point x="417" y="700" type="curve" smooth="yes"/>
      <point x="403" y="700"/>
      <point x="382" y="679"/>
      <point x="350" y="647" type="curve" smooth="yes"/>
      <point x="320" y="617"/>
      <point x="310" y="607"/>
      <point x="300" y="607" type="curve" smooth="yes"/>
      <point x="293" y="607"/>
      <point x="284" y="616"/>
      <point x="247" y="655" type="curve" smooth="yes"/>
      <point x="215" y="689"/>
      <point x="199" y="701"/>
      <point x="186" y="701" type="curve" smooth="yes"/>
      <point x="172" y="701"/>
      <point x="145" y="687"/>
      <point x="102" y="646" type="curve" smooth="yes"/>
      <point x="45" y="592"/>
      <point x="41" y="557"/>
      <point x="41" y="536" type="curve" smooth="yes"/>
      <point x="41" y="500"/>
      <point x="56" y="474"/>
      <point x="80" y="449" type="curve"/>
    </contour>
  </outline>
</glyph>
<glyph name="uni1786" format="2">
  <advance width="643"/>
  <unicode hex="1786"/>
  <note>
uni1786
</note>
  <anchor x="329" y="760" name="abvm"/>
  <anchor x="329" y="0" name="blwm"/>
  <outline>
    <contour>
      <point x="254" y="381" type="line"/>
      <point x="104" y="381" type="line"/>
      <point x="104" y="256" type="line"/>
      <point x="28" y="249"/>
      <point x="6" y="185"/>
      <point x="6" y="141" type="curve" smooth="yes"/>
      <point x="6" y="94"/>
      <point x="32" y="33"/>
      <point x="104" y="0" type="curve"/>
      <point x="254" y="0" type="line"/>
      <point x="254" y="140" type="line"/>
      <point x="273" y="128"/>
      <point x="278" y="104"/>
      <point x="291" y="76" type="curve" smooth="yes"/>
      <point x="313" y="25"/>
      <point x="344" y="0"/>
      <point x="407" y="0" type="curve" smooth="yes"/>
      <point x="515" y="0"/>
      <point x="564" y="75"/>
      <point x="564" y="132" type="curve" smooth="yes"/>
      <point x="564" y="186" type="line"/>
      <point x="414" y="186" type="line"/>
      <point x="414" y="138" type="line" smooth="yes"/>
      <point x="414" y="101"/>
      <point x="404" y="92"/>
      <point x="393" y="92" type="curve" smooth="yes"/>
      <point x="375" y="92"/>
      <point x="373" y="117"/>
      <point x="362" y="146" type="curve" smooth="yes"/>
      <point x="344" y="191"/>
      <point x="304" y="248"/>
      <point x="254" y="256" type="curve"/>
    </contour>
    <contour>
      <point x="104" y="83" type="line"/>
      <point x="88" y="95"/>
      <point x="81" y="109"/>
      <point x="81" y="122" type="curve" smooth="yes"/>
      <point x="81" y="137"/>
      <point x="90" y="149"/>
      <point x="104" y="150" type="curve"/>
    </contour>
    <contour>
      <point x="564" y="170" type="line"/>
      <point x="564" y="373" type="line" smooth="yes"/>
      <point x="564" y="437"/>
      <point x="540" y="466"/>
      <point x="471" y="466" type="curve" smooth="yes"/>
      <point x="368" y="466"/>
      <point x="311" y="402"/>
      <point x="311" y="321" type="curve" smooth="yes"/>
      <point x="311" y="212"/>
      <point x="408" y="201"/>
      <point x="414" y="201" type="curve"/>
      <point x="414" y="170" type="line"/>
    </contour>
    <contour>
      <point x="414" y="291" type="line"/>
      <point x="398" y="295"/>
      <point x="387" y="309"/>
      <point x="387" y="331" type="curve" smooth="yes"/>
      <point x="387" y="354"/>
      <point x="399" y="369"/>
      <point x="414" y="379" type="curve"/>
    </contour>
    <contour>
      <point x="104" y="333" type="line"/>
      <point x="254" y="333" type="line"/>
      <point x="254" y="470" type="line"/>
      <point x="220" y="497"/>
      <point x="167" y="532"/>
      <point x="167" y="554" type="curve" smooth="yes"/>
      <point x="167" y="558"/>
      <point x="170" y="564"/>
      <point x="173" y="567" type="curve" smooth="yes"/>
      <point x="177" y="571"/>
      <point x="180" y="573"/>
      <point x="184" y="573" type="curve" smooth="yes"/>
      <point x="189" y="573"/>
      <point x="192" y="569"/>
      <point x="203" y="558" type="curve" smooth="yes"/>
      <point x="234" y="527"/>
      <point x="261" y="508"/>
      <point x="296" y="508" type="curve" smooth="yes"/>
      <point x="324" y="508"/>
      <point x="352" y="519"/>
      <point x="378" y="539" type="curve" smooth="yes"/>
      <point x="396" y="553"/>
      <point x="408" y="562"/>
      <point x="413" y="562" type="curve" smooth="yes"/>
      <point x="432" y="562"/>
      <point x="456" y="506"/>
      <point x="504" y="506" type="curve" smooth="yes"/>
      <point x="537" y="506"/>
      <point x="581" y="532"/>
      <point x="595" y="601" type="curve"/>
      <point x="558" y="592"/>
      <point x="546" y="599"/>
      <point x="518" y="631" type="curve" smooth="yes"/>
      <point x="492" y="661" type="line" smooth="yes"/>
      <point x="465" y="693"/>
      <point x="451" y="700"/>
      <point x="441" y="700" type="curve" smooth="yes"/>
      <point x="427" y="700"/>
      <point x="406" y="679"/>
      <point x="374" y="647" type="curve" smooth="yes"/>
      <point x="344" y="617"/>
      <point x="334" y="607"/>
      <point x="324" y="607" type="curve" smooth="yes"/>
      <point x="317" y="607"/>
      <point x="308" y="616"/>
      <point x="271" y="655" type="curve" smooth="yes"/>
      <point x="239" y="689"/>
      <point x="223" y="701"/>
      <point x="210" y="701" type="curve" smooth="yes"/>
      <point x="196" y="701"/>
      <point x="169" y="687"/>
      <point x="126" y="646" type="curve" smooth="yes"/>
      <point x="69" y="592"/>
      <point x="65" y="557"/>
      <point x="65" y="536" type="curve" smooth="yes"/>
      <point x="65" y="500"/>
      <point x="80" y="474"/>
      <point x="104" y="449" type="curve"/>
    </contour>
  </outline>
</glyph>
<glyph name="uni1788" format="2">
  <advance width="1224"/>
  <unicode hex="1788"/>
  <note>
uni1788
</note>
  <anchor x="903" y="760" name="abvm"/>
  <anchor x="904" y="0" name="blwm"/>
  <outline>
    <contour>
      <point x="85" y="295" type="line"/>
      <point x="235" y="295" type="line"/>
      <point x="235" y="463" type="line"/>
      <point x="162" y="510" type="line"/>
      <point x="185" y="545"/>
      <point x="228" y="580"/>
      <point x="285" y="580" type="curve" smooth="yes"/>
      <point x="324" y="580"/>
      <point x="352" y="564"/>
      <point x="368" y="542" type="curve" smooth="yes"/>
      <point x="382" y="523"/>
      <point x="395" y="488"/>
      <point x="395" y="463" type="curve" smooth="yes"/>
      <point x="395" y="146" type="line" smooth="yes"/>
      <point x="395" y="82"/>
      <point x="458" y="0"/>
      <point x="614" y="0" type="curve" smooth="yes"/>
      <point x="678" y="0"/>
      <point x="711" y="16"/>
      <point x="759" y="52" type="curve"/>
      <point x="796" y="18"/>
      <point x="842" y="0"/>
      <point x="904" y="0" type="curve" smooth="yes"/>
      <point x="1054" y="0"/>
      <point x="1124" y="82"/>
      <point x="1124" y="146" type="curve" smooth="yes"/>
      <point x="1124" y="420" type="line"/>
      <point x="974" y="420" type="line"/>
      <point x="974" y="176" type="line" smooth="yes"/>
      <point x="974" y="139"/>
      <point x="961" y="102"/>
      <point x="904" y="102" type="curve" smooth="yes"/>
      <point x="847" y="102"/>
      <point x="833" y="139"/>
      <point x="833" y="176" type="curve" smooth="yes"/>
      <point x="833" y="378" type="line"/>
      <point x="683" y="378" type="line"/>
      <point x="683" y="176" type="line" smooth="yes"/>
      <point x="683" y="139"/>
      <point x="672" y="102"/>
      <point x="614" y="102" type="curve" smooth="yes"/>
      <point x="557" y="102"/>
      <point x="545" y="139"/>
      <point x="545" y="176" type="curve" smooth="yes"/>
      <point x="545" y="463" type="line" smooth="yes"/>
      <point x="545" y="505"/>
      <point x="508" y="569"/>
      <point x="469" y="610" type="curve" smooth="yes"/>
      <point x="424" y="658"/>
      <point x="368" y="682"/>
      <point x="302" y="682" type="curve" smooth="yes"/>
      <point x="228" y="682"/>
      <point x="167" y="651"/>
      <point x="114" y="605" type="curve" smooth="yes"/>
      <point x="63" y="561"/>
      <point x="40" y="524"/>
      <point x="40" y="492" type="curve" smooth="yes"/>
      <point x="40" y="467"/>
      <point x="55" y="449"/>
      <point x="85" y="422" type="curve"/>
    </contour>
    <contour>
      <point x="833" y="330" type="line"/>
      <point x="833" y="449" type="line"/>
      <point x="728" y="514" type="line"/>
      <point x="739" y="535" type="line"/>
      <point x="785" y="510"/>
      <point x="801" y="505"/>
      <point x="814" y="505" type="curve" smooth="yes"/>
      <point x="859" y="505"/>
      <point x="883" y="568"/>
      <point x="883" y="612" type="curve"/>
      <point x="839" y="612"/>
      <point x="795" y="643"/>
      <point x="728" y="680" type="curve"/>
      <point x="651" y="572"/>
      <point x="621" y="525"/>
      <point x="621" y="492" type="curve" smooth="yes"/>
      <point x="621" y="473"/>
      <point x="631" y="449"/>
      <point x="683" y="412" type="curve"/>
      <point x="683" y="330" type="line"/>
    </contour>
    <contour>
      <point x="85" y="317" type="line"/>
      <point x="85" y="0" type="line"/>
      <point x="235" y="0" type="line"/>
      <point x="303" y="46"/>
      <point x="347" y="100"/>
      <point x="347" y="169" type="curve" smooth="yes"/>
      <point x="347" y="240"/>
      <point x="305" y="280"/>
      <point x="235" y="275" type="curve"/>
      <point x="235" y="317" type="line"/>
    </contour>
    <contour>
      <point x="235" y="186" type="line"/>
      <point x="250" y="185"/>
      <point x="263" y="179"/>
      <point x="263" y="154" type="curve" smooth="yes"/>
      <point x="263" y="138"/>
      <point x="258" y="118"/>
      <point x="235" y="102" type="curve"/>
    </contour>
    <contour>
      <point x="1124" y="330" type="line"/>
      <point x="1124" y="449" type="line"/>
      <point x="1019" y="514" type="line"/>
      <point x="1030" y="535" type="line"/>
      <point x="1076" y="510"/>
      <point x="1092" y="505"/>
      <point x="1105" y="505" type="curve" smooth="yes"/>
      <point x="1150" y="505"/>
      <point x="1174" y="568"/>
      <point x="1174" y="612" type="curve"/>
      <point x="1130" y="612"/>
      <point x="1086" y="643"/>
      <point x="1019" y="680" type="curve"/>
      <point x="942" y="572"/>
      <point x="912" y="525"/>
      <point x="912" y="492" type="curve" smooth="yes"/>
      <point x="912" y="473"/>
      <point x="922" y="449"/>
      <point x="974" y="412" type="curve"/>
      <point x="974" y="330" type="line"/>
    </contour>
  </outline>
</glyph>
<glyph name="uni178A" format="2">
  <advance width="648"/>
  <unicode hex="178A"/>
  <note>
uni178A
</note>
  <anchor x="320" y="840" name="abvm"/>
  <anchor x="302" y="805" name="abvm_high"/>
  <anchor x="320" y="0" name="blwm"/>
  <outline>
    <contour>
      <point x="90" y="451" type="line"/>
      <point x="90" y="0" type="line"/>
      <point x="234" y="0" type="line"/>
      <point x="319" y="56" type="line"/>
      <point x="404" y="0" type="line"/>
      <point x="548" y="0" type="line"/>
      <point x="548" y="416" type="line"/>
      <point x="398" y="416" type="line"/>
      <point x="398" y="117" type="line"/>
      <point x="319" y="169" type="line"/>
      <point x="240" y="117" type="line"/>
      <point x="240" y="400" type="line"/>
    </contour>
    <contour>
      <point x="222" y="616" type="curve" smooth="yes"/>
      <point x="222" y="592"/>
      <point x="206" y="574"/>
      <point x="195" y="567" type="curve"/>
      <point x="263" y="511" type="line"/>
      <point x="291" y="539"/>
      <point x="312" y="578"/>
      <point x="312" y="623" type="curve" smooth="yes"/>
      <point x="312" y="676"/>
      <point x="283" y="731"/>
      <point x="207" y="731" type="curve" smooth="yes"/>
      <point x="139" y="731"/>
      <point x="90" y="682"/>
      <point x="90" y="604" type="curve" smooth="yes"/>
      <point x="90" y="505"/>
      <point x="172" y="444"/>
      <point x="292" y="444" type="curve" smooth="yes"/>
      <point x="440" y="444"/>
      <point x="548" y="538"/>
      <point x="548" y="677" type="curve" smooth="yes"/>
      <point x="548" y="747"/>
      <point x="518" y="808"/>
      <point x="456" y="808" type="curve" smooth="yes"/>
      <point x="383" y="808"/>
      <point x="363" y="728"/>
      <point x="364" y="690" type="curve"/>
      <point x="404" y="690"/>
      <point x="412" y="659"/>
      <point x="412" y="639" type="curve" smooth="yes"/>
      <point x="412" y="603"/>
      <point x="386" y="546"/>
      <point x="298" y="546" type="curve" smooth="yes"/>
      <point x="225" y="546"/>
      <point x="187" y="583"/>
      <point x="187" y="616" type="curve" smooth="yes"/>
      <point x="187" y="630"/>
      <point x="193" y="642"/>
      <point x="205" y="642" type="curve" smooth="yes"/>
      <point x="216" y="642"/>
      <point x="222" y="631"/>
    </contour>
  </outline>
</glyph>
<glyph name="uni178C" format="2">
  <advance width="658"/>
  <unicode hex="178C"/>
  <note>
uni178C
</note>
  <anchor x="326" y="760" name="abvm"/>
  <anchor x="340" y="-49" name="blwm"/>
  <outline>
    <contour>
      <point x="98" y="531" type="line"/>
      <point x="248" y="531" type="line"/>
      <point x="248" y="539" type="line" smooth="yes"/>
      <point x="248" y="554"/>
      <point x="256" y="563"/>
      <point x="267" y="563" type="curve" smooth="yes"/>
      <point x="280" y="563"/>
      <point x="301" y="552"/>
      <point x="329" y="529" type="curve"/>
      <point x="357" y="552"/>
      <point x="377" y="563"/>
      <point x="389" y="563" type="curve" smooth="yes"/>
      <point x="406" y="563"/>
      <point x="410" y="543"/>
      <point x="410" y="511" type="curve" smooth="yes"/>
      <point x="410" y="463" type="line" smooth="yes"/>
      <point x="410" y="415"/>
      <point x="383" y="372"/>
      <point x="329" y="338" type="curve" smooth="yes"/>
      <point x="98" y="196" type="line"/>
      <point x="98" y="122" type="line" smooth="yes"/>
      <point x="98" y="36"/>
      <point x="158" y="0"/>
      <point x="217" y="0" type="curve" smooth="yes"/>
      <point x="262" y="0"/>
      <point x="301" y="26"/>
      <point x="341" y="53" type="curve" smooth="yes"/>
      <point x="378" y="78"/>
      <point x="399" y="87"/>
      <point x="410" y="89" type="curve"/>
      <point x="410" y="79" type="line" smooth="yes"/>
      <point x="410" y="44"/>
      <point x="400" y="31"/>
      <point x="382" y="20" type="curve"/>
      <point x="382" y="-3"/>
      <point x="400" y="-39"/>
      <point x="464" y="-39" type="curve" smooth="yes"/>
      <point x="520" y="-39"/>
      <point x="560" y="-12"/>
      <point x="560" y="36" type="curve" smooth="yes"/>
      <point x="560" y="279" type="line"/>
      <point x="410" y="235" type="line"/>
      <point x="410" y="200" type="line"/>
      <point x="386" y="196"/>
      <point x="361" y="186"/>
      <point x="333" y="161" type="curve" smooth="yes"/>
      <point x="297" y="129"/>
      <point x="278" y="112"/>
      <point x="266" y="112" type="curve" smooth="yes"/>
      <point x="258" y="112"/>
      <point x="248" y="117"/>
      <point x="248" y="143" type="curve" smooth="yes"/>
      <point x="248" y="164" type="line"/>
      <point x="367" y="240" type="line" smooth="yes"/>
      <point x="496" y="322"/>
      <point x="560" y="423"/>
      <point x="560" y="463" type="curve" smooth="yes"/>
      <point x="560" y="536" type="line" smooth="yes"/>
      <point x="560" y="616"/>
      <point x="486" y="682"/>
      <point x="420" y="682" type="curve" smooth="yes"/>
      <point x="383" y="682"/>
      <point x="364" y="660"/>
      <point x="329" y="635" type="curve"/>
      <point x="295" y="660"/>
      <point x="273" y="682"/>
      <point x="243" y="682" type="curve" smooth="yes"/>
      <point x="191" y="682"/>
      <point x="98" y="616"/>
      <point x="98" y="536" type="curve" smooth="yes"/>
    </contour>
    <contour>
      <point x="248" y="533" type="line"/>
      <point x="98" y="533" type="line"/>
      <point x="98" y="427" type="line" smooth="yes"/>
      <point x="98" y="384"/>
      <point x="135" y="355"/>
      <point x="216" y="355" type="curve" smooth="yes"/>
      <point x="290" y="355"/>
      <point x="336" y="381"/>
      <point x="336" y="451" type="curve" smooth="yes"/>
      <point x="336" y="489"/>
      <point x="321" y="529"/>
      <point x="248" y="529" type="curve"/>
    </contour>
    <contour>
      <point x="248" y="471" type="line"/>
      <point x="261" y="471"/>
      <point x="270" y="466"/>
      <point x="270" y="446" type="curve" smooth="yes"/>
      <point x="270" y="429"/>
      <point x="263" y="421"/>
      <point x="248" y="421" type="curve"/>
    </contour>
  </outline>
</glyph>
<glyph name="uni178D" format="2">
  <advance width="1029"/>
  <unicode hex="178D"/>
  <note>
uni178D
</note>
  <anchor x="684" y="760" name="abvm"/>
  <anchor x="650" y="0" name="blwm"/>
  <outline>
    <contour>
      <point x="79" y="298" type="line"/>
      <point x="229" y="298" type="line"/>
      <point x="229" y="445" type="line"/>
      <point x="166" y="483"/>
      <point x="143" y="519"/>
      <point x="143" y="528" type="curve" smooth="yes"/>
      <point x="143" y="534"/>
      <point x="145" y="538"/>
      <point x="148" y="542" type="curve" smooth="yes"/>
      <point x="152" y="548"/>
      <point x="156" y="550"/>
      <point x="161" y="550" type="curve" smooth="yes"/>
      <point x="175" y="550"/>
      <point x="223" y="489"/>
      <point x="274" y="489" type="curve" smooth="yes"/>
      <point x="317" y="489"/>
      <point x="377" y="531"/>
      <point x="405" y="531" type="curve" smooth="yes"/>
      <point x="428" y="531"/>
      <point x="452" y="505"/>
      <point x="452" y="481" type="curve" smooth="yes"/>
      <point x="452" y="275" type="line"/>
      <point x="398" y="272"/>
      <point x="365" y="225"/>
      <point x="365" y="162" type="curve" smooth="yes"/>
      <point x="365" y="107"/>
      <point x="391" y="55"/>
      <point x="452" y="0" type="curve"/>
      <point x="602" y="0" type="line"/>
      <point x="602" y="165" type="line"/>
      <point x="617" y="145"/>
      <point x="622" y="116"/>
      <point x="645" y="75" type="curve" smooth="yes"/>
      <point x="671" y="29"/>
      <point x="706" y="0"/>
      <point x="763" y="0" type="curve" smooth="yes"/>
      <point x="830" y="0"/>
      <point x="899" y="41"/>
      <point x="899" y="147" type="curve" smooth="yes"/>
      <point x="899" y="407" type="line"/>
      <point x="749" y="407" type="line"/>
      <point x="749" y="169" type="line" smooth="yes"/>
      <point x="749" y="143"/>
      <point x="743" y="118"/>
      <point x="726" y="118" type="curve" smooth="yes"/>
      <point x="707" y="118"/>
      <point x="695" y="148"/>
      <point x="681" y="181" type="curve" smooth="yes"/>
      <point x="663" y="226"/>
      <point x="647" y="266"/>
      <point x="602" y="275" type="curve"/>
      <point x="602" y="521" type="line" smooth="yes"/>
      <point x="602" y="578"/>
      <point x="573" y="617"/>
      <point x="541" y="646" type="curve" smooth="yes"/>
      <point x="514" y="671"/>
      <point x="491" y="682"/>
      <point x="477" y="682" type="curve" smooth="yes"/>
      <point x="455" y="682"/>
      <point x="429" y="656"/>
      <point x="402" y="639" type="curve" smooth="yes"/>
      <point x="369" y="618"/>
      <point x="340" y="602"/>
      <point x="319" y="602" type="curve" smooth="yes"/>
      <point x="298" y="602"/>
      <point x="279" y="620"/>
      <point x="255" y="643" type="curve" smooth="yes"/>
      <point x="234" y="663"/>
      <point x="213" y="682"/>
      <point x="191" y="682" type="curve" smooth="yes"/>
      <point x="166" y="682"/>
      <point x="136" y="658"/>
      <point x="103" y="626" type="curve" smooth="yes"/>
      <point x="69" y="593"/>
      <point x="38" y="554"/>
      <point x="38" y="529" type="curve" smooth="yes"/>
      <point x="38" y="513"/>
      <point x="51" y="483"/>
      <point x="79" y="449" type="curve"/>
    </contour>
    <contour>
      <point x="452" y="110" type="line"/>
      <point x="434" y="125"/>
      <point x="426" y="138"/>
      <point x="426" y="154" type="curve" smooth="yes"/>
      <point x="426" y="167"/>
      <point x="431" y="186"/>
      <point x="452" y="186" type="curve"/>
    </contour>
    <contour>
      <point x="79" y="317" type="line"/>
      <point x="79" y="0" type="line"/>
      <point x="229" y="0" type="line"/>
      <point x="297" y="46"/>
      <point x="341" y="100"/>
      <point x="341" y="169" type="curve" smooth="yes"/>
      <point x="341" y="240"/>
      <point x="299" y="280"/>
      <point x="229" y="275" type="curve"/>
      <point x="229" y="317" type="line"/>
    </contour>
    <contour>
      <point x="229" y="186" type="line"/>
      <point x="244" y="185"/>
      <point x="257" y="179"/>
      <point x="257" y="154" type="curve" smooth="yes"/>
      <point x="257" y="138"/>
      <point x="252" y="118"/>
      <point x="229" y="102" type="curve"/>
    </contour>
    <contour>
      <point x="899" y="330" type="line"/>
      <point x="899" y="449" type="line"/>
      <point x="794" y="514" type="line"/>
      <point x="805" y="535" type="line"/>
      <point x="851" y="510"/>
      <point x="867" y="505"/>
      <point x="880" y="505" type="curve" smooth="yes"/>
      <point x="925" y="505"/>
      <point x="949" y="568"/>
      <point x="949" y="612" type="curve"/>
      <point x="905" y="612"/>
      <point x="861" y="643"/>
      <point x="794" y="680" type="curve"/>
      <point x="717" y="572"/>
      <point x="687" y="525"/>
      <point x="687" y="492" type="curve" smooth="yes"/>
      <point x="687" y="473"/>
      <point x="697" y="449"/>
      <point x="749" y="412" type="curve"/>
      <point x="749" y="330" type="line"/>
    </contour>
  </outline>
</glyph>
<glyph name="uni178E" format="2">
  <advance width="1186"/>
  <unicode hex="178E"/>
  <note>
uni178E
</note>
  <anchor x="579" y="760" name="abvm"/>
  <anchor x="579" y="0" name="blwm"/>
  <outline>
    <contour>
      <point x="71" y="307" type="line"/>
      <point x="221" y="307" type="line"/>
      <point x="221" y="462" type="line"/>
      <point x="154" y="504" type="line"/>
      <point x="173" y="542"/>
      <point x="211" y="580"/>
      <point x="265" y="580" type="curve" smooth="yes"/>
      <point x="328" y="580"/>
      <point x="359" y="528"/>
      <point x="359" y="473" type="curve" smooth="yes"/>
      <point x="359" y="0" type="line"/>
      <point x="503" y="0" type="line"/>
      <point x="579" y="53" type="line"/>
      <point x="655" y="0" type="line"/>
      <point x="799" y="0" type="line"/>
      <point x="799" y="462" type="line"/>
      <point x="733" y="504" type="line"/>
      <point x="752" y="542"/>
      <point x="790" y="580"/>
      <point x="845" y="580" type="curve" smooth="yes"/>
      <point x="907" y="580"/>
      <point x="936" y="528"/>
      <point x="936" y="473" type="curve" smooth="yes"/>
      <point x="936" y="0" type="line"/>
      <point x="1086" y="0" type="line"/>
      <point x="1086" y="442" type="line" smooth="yes"/>
      <point x="1086" y="509"/>
      <point x="1058" y="579"/>
      <point x="1004" y="627" type="curve" smooth="yes"/>
      <point x="955" y="670"/>
      <point x="904" y="682"/>
      <point x="855" y="682" type="curve" smooth="yes"/>
      <point x="803" y="682"/>
      <point x="759" y="669"/>
      <point x="699" y="623" type="curve" smooth="yes"/>
      <point x="637" y="575"/>
      <point x="604" y="525"/>
      <point x="604" y="491" type="curve" smooth="yes"/>
      <point x="604" y="468"/>
      <point x="619" y="449"/>
      <point x="649" y="422" type="curve"/>
      <point x="649" y="127" type="line"/>
      <point x="579" y="180" type="line"/>
      <point x="509" y="127" type="line"/>
      <point x="509" y="442" type="line" smooth="yes"/>
      <point x="509" y="509"/>
      <point x="479" y="579"/>
      <point x="425" y="627" type="curve" smooth="yes"/>
      <point x="377" y="670"/>
      <point x="326" y="682"/>
      <point x="276" y="682" type="curve" smooth="yes"/>
      <point x="224" y="682"/>
      <point x="181" y="669"/>
      <point x="121" y="623" type="curve" smooth="yes"/>
      <point x="59" y="575"/>
      <point x="26" y="525"/>
      <point x="26" y="491" type="curve" smooth="yes"/>
      <point x="26" y="468"/>
      <point x="41" y="449"/>
      <point x="71" y="422" type="curve"/>
    </contour>
    <contour>
      <point x="71" y="317" type="line"/>
      <point x="71" y="0" type="line"/>
      <point x="221" y="0" type="line"/>
      <point x="289" y="46"/>
      <point x="333" y="100"/>
      <point x="333" y="169" type="curve" smooth="yes"/>
      <point x="333" y="240"/>
      <point x="291" y="280"/>
      <point x="221" y="275" type="curve"/>
      <point x="221" y="317" type="line"/>
    </contour>
    <contour>
      <point x="221" y="186" type="line"/>
      <point x="236" y="185"/>
      <point x="249" y="179"/>
      <point x="249" y="154" type="curve" smooth="yes"/>
      <point x="249" y="138"/>
      <point x="244" y="118"/>
      <point x="221" y="102" type="curve"/>
    </contour>
  </outline>
</glyph>
<glyph name="uni178F" format="2">
  <advance width="630"/>
  <unicode hex="178F"/>
  <note>
uni178F
</note>
  <anchor x="307" y="760" name="abvm"/>
  <anchor x="307" y="728" name="abvm_high"/>
  <anchor x="307" y="0" name="blwm"/>
  <outline>
    <contour>
      <point x="85" y="265" type="line"/>
      <point x="235" y="265" type="line"/>
      <point x="235" y="281" type="line" smooth="yes"/>
      <point x="235" y="336"/>
      <point x="257" y="357"/>
      <point x="308" y="357" type="curve" smooth="yes"/>
      <point x="356" y="357"/>
      <point x="380" y="339"/>
      <point x="380" y="281" type="curve" smooth="yes"/>
      <point x="380" y="0" type="line"/>
      <point x="530" y="0" type="line"/>
      <point x="530" y="336" type="line" smooth="yes"/>
      <point x="530" y="398"/>
      <point x="427" y="459"/>
      <point x="308" y="459" type="curve" smooth="yes"/>
      <point x="192" y="459"/>
      <point x="85" y="400"/>
      <point x="85" y="336" type="curve" smooth="yes"/>
    </contour>
    <contour>
      <point x="85" y="317" type="line"/>
      <point x="85" y="0" type="line"/>
      <point x="235" y="0" type="line"/>
      <point x="303" y="46"/>
      <point x="347" y="100"/>
      <point x="347" y="169" type="curve" smooth="yes"/>
      <point x="347" y="240"/>
      <point x="305" y="280"/>
      <point x="235" y="275" type="curve"/>
      <point x="235" y="317" type="line"/>
    </contour>
    <contour>
      <point x="235" y="186" type="line"/>
      <point x="250" y="185"/>
      <point x="263" y="179"/>
      <point x="263" y="154" type="curve" smooth="yes"/>
      <point x="263" y="138"/>
      <point x="258" y="118"/>
      <point x="235" y="102" type="curve"/>
    </contour>
    <contour>
      <point x="184" y="484" type="line"/>
      <point x="154" y="515"/>
      <point x="139" y="530"/>
      <point x="139" y="538" type="curve" smooth="yes"/>
      <point x="139" y="543"/>
      <point x="143" y="548"/>
      <point x="146" y="551" type="curve" smooth="yes"/>
      <point x="149" y="554"/>
      <point x="154" y="558"/>
      <point x="160" y="558" type="curve" smooth="yes"/>
      <point x="164" y="558"/>
      <point x="167" y="555"/>
      <point x="187" y="537" type="curve" smooth="yes"/>
      <point x="218" y="509"/>
      <point x="241" y="493"/>
      <point x="275" y="493" type="curve" smooth="yes"/>
      <point x="304" y="493"/>
      <point x="327" y="504"/>
      <point x="351" y="522" type="curve" smooth="yes"/>
      <point x="371" y="537"/>
      <point x="387" y="547"/>
      <point x="389" y="547" type="curve" smooth="yes"/>
      <point x="407" y="547"/>
      <point x="435" y="491"/>
      <point x="487" y="491" type="curve" smooth="yes"/>
      <point x="515" y="491"/>
      <point x="563" y="507"/>
      <point x="570" y="586" type="curve"/>
      <point x="535" y="581"/>
      <point x="512" y="595"/>
      <point x="493" y="616" type="curve" smooth="yes"/>
      <point x="467" y="646" type="line" smooth="yes"/>
      <point x="440" y="678"/>
      <point x="426" y="685"/>
      <point x="416" y="685" type="curve" smooth="yes"/>
      <point x="404" y="685"/>
      <point x="381" y="664"/>
      <point x="349" y="632" type="curve" smooth="yes"/>
      <point x="319" y="602"/>
      <point x="309" y="592"/>
      <point x="299" y="592" type="curve" smooth="yes"/>
      <point x="292" y="592"/>
      <point x="283" y="601"/>
      <point x="246" y="640" type="curve" smooth="yes"/>
      <point x="214" y="674"/>
      <point x="198" y="686"/>
      <point x="185" y="686" type="curve" smooth="yes"/>
      <point x="171" y="686"/>
      <point x="144" y="672"/>
      <point x="102" y="632" type="curve" smooth="yes"/>
      <point x="44" y="577"/>
      <point x="40" y="545"/>
      <point x="40" y="524" type="curve" smooth="yes"/>
      <point x="40" y="481"/>
      <point x="58" y="454"/>
      <point x="92" y="424" type="curve"/>
    </contour>
  </outline>
</glyph>
<glyph name="uni1790" format="2">
  <advance width="655"/>
  <unicode hex="1790"/>
  <note>
uni1790
</note>
  <anchor x="325" y="860" name="abvm"/>
  <anchor x="326" y="850" name="abvm_high"/>
  <anchor x="325" y="0" name="blwm"/>
  <outline>
    <contour>
      <point x="245" y="360" type="line"/>
      <point x="95" y="360" type="line"/>
      <point x="95" y="146" type="line" smooth="yes"/>
      <point x="95" y="60"/>
      <point x="187" y="0"/>
      <point x="325" y="0" type="curve" smooth="yes"/>
      <point x="463" y="0"/>
      <point x="555" y="60"/>
      <point x="555" y="146" type="curve" smooth="yes"/>
      <point x="555" y="184" type="line"/>
      <point x="405" y="184" type="line"/>
      <point x="405" y="171" type="line" smooth="yes"/>
      <point x="405" y="131"/>
      <point x="383" y="102"/>
      <point x="325" y="102" type="curve" smooth="yes"/>
      <point x="267" y="102"/>
      <point x="245" y="131"/>
      <point x="245" y="181" type="curve" smooth="yes"/>
    </contour>
    <contour>
      <point x="555" y="145" type="line"/>
      <point x="555" y="348" type="line" smooth="yes"/>
      <point x="555" y="412"/>
      <point x="531" y="441"/>
      <point x="462" y="441" type="curve" smooth="yes"/>
      <point x="359" y="441"/>
      <point x="302" y="377"/>
      <point x="302" y="296" type="curve" smooth="yes"/>
      <point x="302" y="187"/>
      <point x="399" y="176"/>
      <point x="405" y="176" type="curve"/>
      <point x="405" y="145" type="line"/>
    </contour>
    <contour>
      <point x="405" y="266" type="line"/>
      <point x="389" y="270"/>
      <point x="378" y="284"/>
      <point x="378" y="306" type="curve" smooth="yes"/>
      <point x="378" y="329"/>
      <point x="390" y="344"/>
      <point x="405" y="354" type="curve"/>
    </contour>
    <contour>
      <point x="245" y="284" type="line"/>
      <point x="245" y="444" type="line"/>
      <point x="185" y="487"/>
      <point x="157" y="501"/>
      <point x="157" y="523" type="curve" smooth="yes"/>
      <point x="157" y="529"/>
      <point x="159" y="535"/>
      <point x="163" y="540" type="curve" smooth="yes"/>
      <point x="167" y="545"/>
      <point x="172" y="548"/>
      <point x="178" y="548" type="curve" smooth="yes"/>
      <point x="183" y="548"/>
      <point x="198" y="538"/>
      <point x="217" y="525" type="curve" smooth="yes"/>
      <point x="255" y="499"/>
      <point x="312" y="473"/>
      <point x="373" y="473" type="curve" smooth="yes"/>
      <point x="482" y="473"/>
      <point x="570" y="555"/>
      <point x="570" y="656" type="curve" smooth="yes"/>
      <point x="570" y="751"/>
      <point x="510" y="813"/>
      <point x="447" y="813" type="curve" smooth="yes"/>
      <point x="395" y="813"/>
      <point x="358" y="771"/>
      <point x="368" y="702" type="curve"/>
      <point x="406" y="702"/>
      <point x="453" y="687"/>
      <point x="453" y="647" type="curve" smooth="yes"/>
      <point x="453" y="616"/>
      <point x="424" y="592"/>
      <point x="375" y="592" type="curve" smooth="yes"/>
      <point x="349" y="592"/>
      <point x="321" y="599"/>
      <point x="290" y="622" type="curve" smooth="yes"/>
      <point x="242" y="658"/>
      <point x="221" y="684"/>
      <point x="197" y="684" type="curve" smooth="yes"/>
      <point x="178" y="684"/>
      <point x="159" y="668"/>
      <point x="120" y="623" type="curve" smooth="yes"/>
      <point x="84" y="582"/>
      <point x="54" y="542"/>
      <point x="54" y="506" type="curve" smooth="yes"/>
      <point x="54" y="488"/>
      <point x="62" y="458"/>
      <point x="95" y="428" type="curve"/>
      <point x="95" y="284" type="line"/>
    </contour>
  </outline>
</glyph>
<glyph name="uni1791" format="2">
  <advance width="582"/>
  <unicode hex="1791"/>
  <note>
uni1791
</note>
  <anchor x="277" y="760" name="abvm"/>
  <anchor x="257" y="0" name="blwm"/>
  <outline>
    <contour>
      <point x="85" y="144" type="line"/>
      <point x="85" y="129" type="line" smooth="yes"/>
      <point x="85" y="63"/>
      <point x="135" y="0"/>
      <point x="255" y="0" type="curve" smooth="yes"/>
      <point x="375" y="0"/>
      <point x="422" y="63"/>
      <point x="422" y="129" type="curve" smooth="yes"/>
      <point x="422" y="177" type="line"/>
      <point x="491" y="186"/>
      <point x="521" y="245"/>
      <point x="521" y="286" type="curve" smooth="yes"/>
      <point x="521" y="317"/>
      <point x="504" y="366"/>
      <point x="425" y="366" type="curve" smooth="yes"/>
      <point x="341" y="366"/>
      <point x="293" y="311"/>
      <point x="272" y="269" type="curve"/>
      <point x="261" y="269" type="line" smooth="yes"/>
      <point x="227" y="269"/>
      <point x="190" y="311"/>
      <point x="190" y="395" type="curve" smooth="yes"/>
      <point x="190" y="498" type="line" smooth="yes"/>
      <point x="190" y="547"/>
      <point x="208" y="580"/>
      <point x="290" y="580" type="curve" smooth="yes"/>
      <point x="330" y="580"/>
      <point x="374" y="572"/>
      <point x="374" y="549" type="curve"/>
      <point x="313" y="549"/>
      <point x="290" y="517"/>
      <point x="290" y="470" type="curve" smooth="yes"/>
      <point x="290" y="424"/>
      <point x="313" y="384"/>
      <point x="391" y="384" type="curve" smooth="yes"/>
      <point x="499" y="384"/>
      <point x="522" y="459"/>
      <point x="522" y="505" type="curve" smooth="yes"/>
      <point x="522" y="529" type="line" smooth="yes"/>
      <point x="522" y="614"/>
      <point x="429" y="682"/>
      <point x="275" y="682" type="curve" smooth="yes"/>
      <point x="124" y="682"/>
      <point x="40" y="623"/>
      <point x="40" y="516" type="curve" smooth="yes"/>
      <point x="40" y="405" type="line" smooth="yes"/>
      <point x="40" y="280"/>
      <point x="151" y="177"/>
      <point x="266" y="177" type="curve" smooth="yes"/>
      <point x="272" y="177" type="line"/>
      <point x="272" y="137" type="line" smooth="yes"/>
      <point x="272" y="119"/>
      <point x="268" y="102"/>
      <point x="253" y="102" type="curve" smooth="yes"/>
      <point x="239" y="102"/>
      <point x="235" y="119"/>
      <point x="235" y="138" type="curve" smooth="yes"/>
      <point x="235" y="144" type="line"/>
    </contour>
    <contour>
      <point x="447" y="297" type="curve" smooth="yes"/>
      <point x="453" y="297"/>
      <point x="456" y="294"/>
      <point x="456" y="289" type="curve" smooth="yes"/>
      <point x="456" y="279"/>
      <point x="443" y="269"/>
      <point x="421" y="269" type="curve"/>
      <point x="424" y="281"/>
      <point x="433" y="297"/>
    </contour>
    <contour>
      <point x="374" y="448" type="line"/>
      <point x="360" y="448"/>
      <point x="353" y="456"/>
      <point x="353" y="472" type="curve" smooth="yes"/>
      <point x="353" y="493"/>
      <point x="365" y="497"/>
      <point x="374" y="497" type="curve"/>
    </contour>
  </outline>
</glyph>
<glyph name="uni1792" format="2">
  <advance width="650"/>
  <unicode hex="1792"/>
  <note>
uni1792
</note>
  <anchor x="318" y="760" name="abvm"/>
  <anchor x="318" y="0" name="blwm"/>
  <outline>
    <contour>
      <point x="90" y="313" type="line"/>
      <point x="240" y="313" type="line"/>
      <point x="240" y="450" type="line"/>
      <point x="206" y="477"/>
      <point x="153" y="512"/>
      <point x="153" y="534" type="curve" smooth="yes"/>
      <point x="153" y="538"/>
      <point x="156" y="544"/>
      <point x="159" y="547" type="curve" smooth="yes"/>
      <point x="163" y="551"/>
      <point x="166" y="553"/>
      <point x="170" y="553" type="curve" smooth="yes"/>
      <point x="175" y="553"/>
      <point x="178" y="549"/>
      <point x="189" y="538" type="curve" smooth="yes"/>
      <point x="220" y="507"/>
      <point x="247" y="488"/>
      <point x="282" y="488" type="curve" smooth="yes"/>
      <point x="310" y="488"/>
      <point x="338" y="499"/>
      <point x="364" y="519" type="curve" smooth="yes"/>
      <point x="382" y="533"/>
      <point x="394" y="542"/>
      <point x="399" y="542" type="curve" smooth="yes"/>
      <point x="418" y="542"/>
      <point x="442" y="486"/>
      <point x="490" y="486" type="curve" smooth="yes"/>
      <point x="523" y="486"/>
      <point x="567" y="512"/>
      <point x="581" y="581" type="curve"/>
      <point x="544" y="572"/>
      <point x="532" y="579"/>
      <point x="504" y="611" type="curve" smooth="yes"/>
      <point x="478" y="641" type="line" smooth="yes"/>
      <point x="451" y="673"/>
      <point x="437" y="680"/>
      <point x="427" y="680" type="curve" smooth="yes"/>
      <point x="413" y="680"/>
      <point x="392" y="659"/>
      <point x="360" y="627" type="curve" smooth="yes"/>
      <point x="330" y="597"/>
      <point x="320" y="587"/>
      <point x="310" y="587" type="curve" smooth="yes"/>
      <point x="303" y="587"/>
      <point x="294" y="596"/>
      <point x="257" y="635" type="curve" smooth="yes"/>
      <point x="225" y="669"/>
      <point x="209" y="681"/>
      <point x="196" y="681" type="curve" smooth="yes"/>
      <point x="182" y="681"/>
      <point x="155" y="667"/>
      <point x="112" y="626" type="curve" smooth="yes"/>
      <point x="55" y="572"/>
      <point x="51" y="537"/>
      <point x="51" y="516" type="curve" smooth="yes"/>
      <point x="51" y="480"/>
      <point x="66" y="454"/>
      <point x="90" y="429" type="curve"/>
    </contour>
    <contour>
      <point x="240" y="430" type="line"/>
      <point x="90" y="430" type="line"/>
      <point x="90" y="0" type="line"/>
      <point x="234" y="0" type="line"/>
      <point x="319" y="71" type="line"/>
      <point x="406" y="0" type="line"/>
      <point x="550" y="0" type="line"/>
      <point x="550" y="197" type="line"/>
      <point x="400" y="197" type="line"/>
      <point x="400" y="107" type="line"/>
      <point x="319" y="169" type="line"/>
      <point x="240" y="107" type="line"/>
    </contour>
    <contour>
      <point x="550" y="146" type="line"/>
      <point x="550" y="349" type="line" smooth="yes"/>
      <point x="550" y="413"/>
      <point x="526" y="442"/>
      <point x="457" y="442" type="curve" smooth="yes"/>
      <point x="354" y="442"/>
      <point x="297" y="378"/>
      <point x="297" y="297" type="curve" smooth="yes"/>
      <point x="297" y="188"/>
      <point x="394" y="177"/>
      <point x="400" y="177" type="curve"/>
      <point x="400" y="146" type="line"/>
    </contour>
    <contour>
      <point x="400" y="267" type="line"/>
      <point x="384" y="271"/>
      <point x="373" y="285"/>
      <point x="373" y="307" type="curve" smooth="yes"/>
      <point x="373" y="330"/>
      <point x="385" y="345"/>
      <point x="400" y="355" type="curve"/>
    </contour>
  </outline>
</glyph>
<glyph name="uni1793" format="2">
  <advance width="644"/>
  <unicode hex="1793"/>
  <note>
uni1793
</note>
  <anchor x="313" y="760" name="abvm"/>
  <anchor x="313" y="0" name="blwm"/>
  <outline>
    <contour>
      <point x="394" y="534" type="line"/>
      <point x="544" y="534" type="line"/>
      <point x="544" y="543" type="line" smooth="yes"/>
      <point x="544" y="627"/>
      <point x="459" y="682"/>
      <point x="313" y="682" type="curve" smooth="yes"/>
      <point x="165" y="682"/>
      <point x="82" y="623"/>
      <point x="82" y="526" type="curve" smooth="yes"/>
      <point x="82" y="453" type="line" smooth="yes"/>
      <point x="82" y="401"/>
      <point x="148" y="304"/>
      <point x="253" y="261" type="curve" smooth="yes"/>
      <point x="394" y="204" type="line"/>
      <point x="394" y="155" type="line" smooth="yes"/>
      <point x="394" y="120"/>
      <point x="384" y="107"/>
      <point x="364" y="107" type="curve" smooth="yes"/>
      <point x="351" y="107"/>
      <point x="336" y="117"/>
      <point x="315" y="131" type="curve" smooth="yes"/>
      <point x="285" y="151"/>
      <point x="264" y="158"/>
      <point x="232" y="161" type="curve"/>
      <point x="232" y="225" type="line"/>
      <point x="82" y="269" type="line"/>
      <point x="82" y="0" type="line"/>
      <point x="232" y="0" type="line"/>
      <point x="232" y="59" type="line"/>
      <point x="253" y="57"/>
      <point x="272" y="47"/>
      <point x="300" y="33" type="curve" smooth="yes"/>
      <point x="338" y="14"/>
      <point x="366" y="0"/>
      <point x="403" y="0" type="curve" smooth="yes"/>
      <point x="495" y="0"/>
      <point x="544" y="63"/>
      <point x="544" y="132" type="curve" smooth="yes"/>
      <point x="544" y="261" type="line"/>
      <point x="311" y="356" type="line" smooth="yes"/>
      <point x="259" y="377"/>
      <point x="232" y="407"/>
      <point x="232" y="463" type="curve" smooth="yes"/>
      <point x="232" y="510" type="line" smooth="yes"/>
      <point x="232" y="562"/>
      <point x="243" y="580"/>
      <point x="316" y="580" type="curve" smooth="yes"/>
      <point x="356" y="580"/>
      <point x="394" y="574"/>
      <point x="394" y="546" type="curve" smooth="yes"/>
    </contour>
    <contour>
      <point x="394" y="543" type="line"/>
      <point x="394" y="539" type="line"/>
      <point x="320" y="536"/>
      <point x="306" y="494"/>
      <point x="306" y="457" type="curve" smooth="yes"/>
      <point x="306" y="391"/>
      <point x="352" y="365"/>
      <point x="426" y="365" type="curve" smooth="yes"/>
      <point x="507" y="365"/>
      <point x="544" y="394"/>
      <point x="544" y="437" type="curve" smooth="yes"/>
      <point x="544" y="543" type="line"/>
    </contour>
    <contour>
      <point x="394" y="481" type="curve"/>
      <point x="394" y="431" type="line"/>
      <point x="379" y="431"/>
      <point x="372" y="439"/>
      <point x="372" y="456" type="curve" smooth="yes"/>
      <point x="372" y="474"/>
      <point x="380" y="481"/>
    </contour>
  </outline>
</glyph>
<glyph name="uni1797" format="2">
  <advance width="709"/>
  <unicode hex="1797"/>
  <note>
uni1797
</note>
  <anchor x="357" y="760" name="abvm"/>
  <anchor x="354" y="704" name="abvm_high"/>
  <anchor x="357" y="0" name="blwm"/>
  <outline>
    <contour>
      <point x="151" y="262" type="line"/>
      <point x="301" y="262" type="line"/>
      <point x="301" y="291" type="line" smooth="yes"/>
      <point x="301" y="335"/>
      <point x="325" y="357"/>
      <point x="372" y="357" type="curve" smooth="yes"/>
      <point x="416" y="357"/>
      <point x="443" y="338"/>
      <point x="443" y="291" type="curve" smooth="yes"/>
      <point x="443" y="0" type="line"/>
      <point x="593" y="0" type="line"/>
      <point x="593" y="336" type="line" smooth="yes"/>
      <point x="593" y="400"/>
      <point x="487" y="459"/>
      <point x="372" y="459" type="curve" smooth="yes"/>
      <point x="260" y="459"/>
      <point x="151" y="401"/>
      <point x="151" y="336" type="curve" smooth="yes"/>
    </contour>
    <contour>
      <point x="301" y="282" type="line"/>
      <point x="151" y="282" type="line"/>
      <point x="151" y="275" type="line"/>
      <point x="87" y="273"/>
      <point x="41" y="220"/>
      <point x="41" y="145" type="curve" smooth="yes"/>
      <point x="41" y="68"/>
      <point x="91" y="17"/>
      <point x="151" y="0" type="curve"/>
      <point x="301" y="0" type="line"/>
    </contour>
    <contour>
      <point x="151" y="92" type="line"/>
      <point x="129" y="108"/>
      <point x="123" y="126"/>
      <point x="123" y="141" type="curve" smooth="yes"/>
      <point x="123" y="163"/>
      <point x="136" y="175"/>
      <point x="151" y="176" type="curve"/>
    </contour>
    <contour>
      <point x="247" y="484" type="line"/>
      <point x="217" y="515"/>
      <point x="202" y="530"/>
      <point x="202" y="538" type="curve" smooth="yes"/>
      <point x="202" y="543"/>
      <point x="206" y="548"/>
      <point x="209" y="551" type="curve" smooth="yes"/>
      <point x="212" y="554"/>
      <point x="217" y="558"/>
      <point x="223" y="558" type="curve" smooth="yes"/>
      <point x="227" y="558"/>
      <point x="230" y="555"/>
      <point x="250" y="537" type="curve" smooth="yes"/>
      <point x="281" y="509"/>
      <point x="304" y="493"/>
      <point x="338" y="493" type="curve" smooth="yes"/>
      <point x="367" y="493"/>
      <point x="390" y="504"/>
      <point x="414" y="522" type="curve" smooth="yes"/>
      <point x="434" y="537"/>
      <point x="450" y="547"/>
      <point x="452" y="547" type="curve" smooth="yes"/>
      <point x="470" y="547"/>
      <point x="498" y="491"/>
      <point x="550" y="491" type="curve" smooth="yes"/>
      <point x="578" y="491"/>
      <point x="626" y="507"/>
      <point x="633" y="586" type="curve"/>
      <point x="598" y="581"/>
      <point x="575" y="595"/>
      <point x="556" y="616" type="curve" smooth="yes"/>
      <point x="530" y="646" type="line" smooth="yes"/>
      <point x="503" y="678"/>
      <point x="489" y="685"/>
      <point x="479" y="685" type="curve" smooth="yes"/>
      <point x="467" y="685"/>
      <point x="444" y="664"/>
      <point x="412" y="632" type="curve" smooth="yes"/>
      <point x="382" y="602"/>
      <point x="372" y="592"/>
      <point x="362" y="592" type="curve" smooth="yes"/>
      <point x="355" y="592"/>
      <point x="346" y="601"/>
      <point x="309" y="640" type="curve" smooth="yes"/>
      <point x="277" y="674"/>
      <point x="261" y="686"/>
      <point x="248" y="686" type="curve" smooth="yes"/>
      <point x="234" y="686"/>
      <point x="207" y="672"/>
      <point x="165" y="632" type="curve" smooth="yes"/>
      <point x="107" y="577"/>
      <point x="103" y="545"/>
      <point x="103" y="524" type="curve" smooth="yes"/>
      <point x="103" y="481"/>
      <point x="121" y="454"/>
      <point x="155" y="424" type="curve"/>
    </contour>
  </outline>
</glyph>
<glyph name="uni1798" format="2">
  <advance width="631"/>
  <unicode hex="1798"/>
  <note>
uni1798
</note>
  <anchor x="309" y="760" name="abvm"/>
  <anchor x="309" y="0" name="blwm"/>
  <outline>
    <contour>
      <point x="176" y="324" type="line"/>
      <point x="176" y="222" type="line"/>
      <point x="438" y="222" type="line"/>
      <point x="438" y="324" type="line"/>
    </contour>
    <contour>
      <point x="531" y="399" type="line"/>
      <point x="381" y="399" type="line"/>
      <point x="381" y="176" type="line" smooth="yes"/>
      <point x="381" y="122"/>
      <point x="359" y="102"/>
      <point x="309" y="102" type="curve" smooth="yes"/>
      <point x="261" y="102"/>
      <point x="238" y="120"/>
      <point x="238" y="176" type="curve" smooth="yes"/>
      <point x="238" y="399" type="line"/>
      <point x="88" y="399" type="line"/>
      <point x="88" y="146" type="line" smooth="yes"/>
      <point x="88" y="61"/>
      <point x="175" y="0"/>
      <point x="309" y="0" type="curve" smooth="yes"/>
      <point x="441" y="0"/>
      <point x="531" y="60"/>
      <point x="531" y="146" type="curve" smooth="yes"/>
    </contour>
    <contour>
      <point x="238" y="330" type="line"/>
      <point x="238" y="449" type="line"/>
      <point x="133" y="514" type="line"/>
      <point x="144" y="535" type="line"/>
      <point x="190" y="510"/>
      <point x="206" y="505"/>
      <point x="219" y="505" type="curve" smooth="yes"/>
      <point x="264" y="505"/>
      <point x="288" y="568"/>
      <point x="288" y="612" type="curve"/>
      <point x="244" y="612"/>
      <point x="200" y="643"/>
      <point x="133" y="680" type="curve"/>
      <point x="56" y="572"/>
      <point x="26" y="525"/>
      <point x="26" y="492" type="curve" smooth="yes"/>
      <point x="26" y="473"/>
      <point x="36" y="449"/>
      <point x="88" y="412" type="curve"/>
      <point x="88" y="330" type="line"/>
    </contour>
    <contour>
      <point x="531" y="330" type="line"/>
      <point x="531" y="449" type="line"/>
      <point x="426" y="514" type="line"/>
      <point x="437" y="535" type="line"/>
      <point x="483" y="510"/>
      <point x="499" y="505"/>
      <point x="512" y="505" type="curve" smooth="yes"/>
      <point x="557" y="505"/>
      <point x="581" y="568"/>
      <point x="581" y="612" type="curve"/>
      <point x="537" y="612"/>
      <point x="493" y="643"/>
      <point x="426" y="680" type="curve"/>
      <point x="349" y="572"/>
      <point x="319" y="525"/>
      <point x="319" y="492" type="curve" smooth="yes"/>
      <point x="319" y="473"/>
      <point x="329" y="449"/>
      <point x="381" y="412" type="curve"/>
      <point x="381" y="330" type="line"/>
    </contour>
  </outline>
</glyph>
<glyph name="uni179A" format="2">
  <advance width="417"/>
  <unicode hex="179A"/>
  <note>
uni179A
</note>
  <anchor x="213" y="760" name="abvm"/>
  <anchor x="225" y="0" name="blwm"/>
  <outline>
    <contour>
      <point x="311" y="426" type="line"/>
      <point x="161" y="426" type="line"/>
      <point x="161" y="275" type="line"/>
      <point x="97" y="273"/>
      <point x="51" y="220"/>
      <point x="51" y="145" type="curve" smooth="yes"/>
      <point x="51" y="68"/>
      <point x="101" y="17"/>
      <point x="161" y="0" type="curve"/>
      <point x="311" y="0" type="line"/>
    </contour>
    <contour>
      <point x="161" y="92" type="line"/>
      <point x="139" y="108"/>
      <point x="133" y="126"/>
      <point x="133" y="141" type="curve" smooth="yes"/>
      <point x="133" y="163"/>
      <point x="146" y="175"/>
      <point x="161" y="176" type="curve"/>
    </contour>
    <contour>
      <point x="311" y="330" type="line"/>
      <point x="311" y="449" type="line"/>
      <point x="206" y="514" type="line"/>
      <point x="217" y="535" type="line"/>
      <point x="263" y="510"/>
      <point x="279" y="505"/>
      <point x="292" y="505" type="curve" smooth="yes"/>
      <point x="337" y="505"/>
      <point x="361" y="568"/>
      <point x="361" y="612" type="curve"/>
      <point x="317" y="612"/>
      <point x="273" y="643"/>
      <point x="206" y="680" type="curve"/>
      <point x="129" y="572"/>
      <point x="99" y="525"/>
      <point x="99" y="492" type="curve" smooth="yes"/>
      <point x="99" y="473"/>
      <point x="109" y="449"/>
      <point x="161" y="412" type="curve"/>
      <point x="161" y="330" type="line"/>
    </contour>
  </outline>
</glyph>
<glyph name="uni179B" format="2">
  <advance width="941"/>
  <unicode hex="179B"/>
  <note>
uni179B
</note>
  <anchor x="620" y="760" name="abvm"/>
  <anchor x="620" y="0" name="blwm"/>
  <outline>
    <contour>
      <point x="89" y="297" type="line"/>
      <point x="239" y="297" type="line"/>
      <point x="239" y="462" type="line"/>
      <point x="172" y="504" type="line"/>
      <point x="192" y="542"/>
      <point x="237" y="580"/>
      <point x="291" y="580" type="curve" smooth="yes"/>
      <point x="354" y="580"/>
      <point x="401" y="528"/>
      <point x="401" y="473" type="curve" smooth="yes"/>
      <point x="401" y="146" type="line" smooth="yes"/>
      <point x="401" y="82"/>
      <point x="464" y="0"/>
      <point x="620" y="0" type="curve" smooth="yes"/>
      <point x="777" y="0"/>
      <point x="841" y="82"/>
      <point x="841" y="146" type="curve" smooth="yes"/>
      <point x="841" y="389" type="line"/>
      <point x="691" y="389" type="line"/>
      <point x="691" y="176" type="line" smooth="yes"/>
      <point x="691" y="139"/>
      <point x="678" y="102"/>
      <point x="621" y="102" type="curve" smooth="yes"/>
      <point x="563" y="102"/>
      <point x="551" y="139"/>
      <point x="551" y="176" type="curve" smooth="yes"/>
      <point x="551" y="464" type="line" smooth="yes"/>
      <point x="551" y="531"/>
      <point x="504" y="587"/>
      <point x="470" y="617" type="curve" smooth="yes"/>
      <point x="413" y="667"/>
      <point x="354" y="682"/>
      <point x="302" y="682" type="curve" smooth="yes"/>
      <point x="252" y="682"/>
      <point x="198" y="666"/>
      <point x="141" y="624" type="curve" smooth="yes"/>
      <point x="75" y="576"/>
      <point x="44" y="525"/>
      <point x="44" y="491" type="curve" smooth="yes"/>
      <point x="44" y="468"/>
      <point x="59" y="449"/>
      <point x="89" y="422" type="curve"/>
    </contour>
    <contour>
      <point x="89" y="317" type="line"/>
      <point x="89" y="0" type="line"/>
      <point x="239" y="0" type="line"/>
      <point x="307" y="46"/>
      <point x="351" y="100"/>
      <point x="351" y="169" type="curve" smooth="yes"/>
      <point x="351" y="240"/>
      <point x="309" y="280"/>
      <point x="239" y="275" type="curve"/>
      <point x="239" y="317" type="line"/>
    </contour>
    <contour>
      <point x="239" y="186" type="line"/>
      <point x="254" y="185"/>
      <point x="267" y="179"/>
      <point x="267" y="154" type="curve" smooth="yes"/>
      <point x="267" y="138"/>
      <point x="262" y="118"/>
      <point x="239" y="102" type="curve"/>
    </contour>
    <contour>
      <point x="841" y="330" type="line"/>
      <point x="841" y="449" type="line"/>
      <point x="736" y="514" type="line"/>
      <point x="747" y="535" type="line"/>
      <point x="793" y="510"/>
      <point x="809" y="505"/>
      <point x="822" y="505" type="curve" smooth="yes"/>
      <point x="867" y="505"/>
      <point x="891" y="568"/>
      <point x="891" y="612" type="curve"/>
      <point x="847" y="612"/>
      <point x="803" y="643"/>
      <point x="736" y="680" type="curve"/>
      <point x="659" y="572"/>
      <point x="629" y="525"/>
      <point x="629" y="492" type="curve" smooth="yes"/>
      <point x="629" y="473"/>
      <point x="639" y="449"/>
      <point x="691" y="412" type="curve"/>
      <point x="691" y="330" type="line"/>
    </contour>
  </outline>
</glyph>
<glyph name="uni179C" format="2">
  <advance width="386"/>
  <unicode hex="179C"/>
  <note>
uni179C
</note>
  <anchor x="200" y="840" name="abvm"/>
  <anchor x="200" y="0" name="blwm"/>
  <outline>
    <contour>
      <point x="280" y="426" type="line"/>
      <point x="130" y="426" type="line"/>
      <point x="130" y="275" type="line"/>
      <point x="66" y="273"/>
      <point x="20" y="220"/>
      <point x="20" y="145" type="curve" smooth="yes"/>
      <point x="20" y="68"/>
      <point x="70" y="17"/>
      <point x="130" y="0" type="curve"/>
      <point x="280" y="0" type="line"/>
    </contour>
    <contour>
      <point x="130" y="92" type="line"/>
      <point x="108" y="108"/>
      <point x="102" y="126"/>
      <point x="102" y="141" type="curve" smooth="yes"/>
      <point x="102" y="163"/>
      <point x="115" y="175"/>
      <point x="130" y="176" type="curve"/>
    </contour>
    <contour>
      <point x="130" y="321" type="line"/>
      <point x="280" y="321" type="line"/>
      <point x="280" y="445" type="line"/>
      <point x="174" y="510" type="line"/>
      <point x="187" y="532" type="line"/>
      <point x="208" y="523"/>
      <point x="229" y="519"/>
      <point x="244" y="519" type="curve" smooth="yes"/>
      <point x="303" y="519"/>
      <point x="376" y="584"/>
      <point x="376" y="678" type="curve" smooth="yes"/>
      <point x="376" y="760"/>
      <point x="320" y="812"/>
      <point x="278" y="812" type="curve" smooth="yes"/>
      <point x="254" y="812"/>
      <point x="206" y="795"/>
      <point x="206" y="734" type="curve"/>
      <point x="238" y="734"/>
      <point x="277" y="717"/>
      <point x="277" y="684" type="curve" smooth="yes"/>
      <point x="277" y="660"/>
      <point x="255" y="644"/>
      <point x="232" y="644" type="curve" smooth="yes"/>
      <point x="215" y="644"/>
      <point x="197" y="660"/>
      <point x="175" y="680" type="curve"/>
      <point x="86" y="550"/>
      <point x="68" y="509"/>
      <point x="68" y="484" type="curve" smooth="yes"/>
      <point x="68" y="456"/>
      <point x="90" y="436"/>
      <point x="130" y="408" type="curve"/>
    </contour>
  </outline>
</glyph>
<glyph name="uni179D" format="2">
  <advance width="625"/>
  <unicode hex="179D"/>
  <note>
uni179D
</note>
  <anchor x="310" y="760" name="abvm"/>
  <anchor x="308" y="728" name="abvm_high"/>
  <anchor x="314" y="0" name="blwm"/>
  <outline>
    <contour>
      <point x="363" y="133" type="line"/>
      <point x="559" y="133" type="line"/>
      <point x="559" y="245" type="line"/>
      <point x="363" y="245" type="line"/>
    </contour>
    <contour>
      <point x="228" y="281" type="line" smooth="yes"/>
      <point x="228" y="336"/>
      <point x="250" y="357"/>
      <point x="301" y="357" type="curve" smooth="yes"/>
      <point x="349" y="357"/>
      <point x="373" y="339"/>
      <point x="373" y="281" type="curve" smooth="yes"/>
      <point x="373" y="0" type="line"/>
      <point x="523" y="0" type="line"/>
      <point x="523" y="336" type="line" smooth="yes"/>
      <point x="523" y="398"/>
      <point x="420" y="459"/>
      <point x="301" y="459" type="curve" smooth="yes"/>
      <point x="185" y="459"/>
      <point x="78" y="400"/>
      <point x="78" y="336" type="curve" smooth="yes"/>
      <point x="78" y="0" type="line"/>
      <point x="228" y="0" type="line"/>
      <point x="228" y="51" type="line"/>
      <point x="243" y="81" type="line" smooth="yes"/>
      <point x="257" y="109"/>
      <point x="265" y="124"/>
      <point x="277" y="124" type="curve" smooth="yes"/>
      <point x="284" y="124"/>
      <point x="295" y="122"/>
      <point x="302" y="122" type="curve" smooth="yes"/>
      <point x="326" y="122"/>
      <point x="356" y="148"/>
      <point x="356" y="187" type="curve" smooth="yes"/>
      <point x="356" y="224"/>
      <point x="328" y="246"/>
      <point x="296" y="246" type="curve" smooth="yes"/>
      <point x="261" y="246"/>
      <point x="238" y="219"/>
      <point x="228" y="204" type="curve"/>
    </contour>
    <contour>
      <point x="184" y="484" type="line"/>
      <point x="154" y="515"/>
      <point x="139" y="530"/>
      <point x="139" y="538" type="curve" smooth="yes"/>
      <point x="139" y="543"/>
      <point x="143" y="548"/>
      <point x="146" y="551" type="curve" smooth="yes"/>
      <point x="149" y="554"/>
      <point x="154" y="558"/>
      <point x="160" y="558" type="curve" smooth="yes"/>
      <point x="164" y="558"/>
      <point x="167" y="555"/>
      <point x="187" y="537" type="curve" smooth="yes"/>
      <point x="218" y="509"/>
      <point x="241" y="493"/>
      <point x="275" y="493" type="curve" smooth="yes"/>
      <point x="304" y="493"/>
      <point x="327" y="504"/>
      <point x="351" y="522" type="curve" smooth="yes"/>
      <point x="371" y="537"/>
      <point x="387" y="547"/>
      <point x="389" y="547" type="curve" smooth="yes"/>
      <point x="407" y="547"/>
      <point x="435" y="491"/>
      <point x="487" y="491" type="curve" smooth="yes"/>
      <point x="515" y="491"/>
      <point x="563" y="507"/>
      <point x="570" y="586" type="curve"/>
      <point x="535" y="581"/>
      <point x="512" y="595"/>
      <point x="493" y="616" type="curve" smooth="yes"/>
      <point x="467" y="646" type="line" smooth="yes"/>
      <point x="440" y="678"/>
      <point x="426" y="685"/>
      <point x="416" y="685" type="curve" smooth="yes"/>
      <point x="404" y="685"/>
      <point x="381" y="664"/>
      <point x="349" y="632" type="curve" smooth="yes"/>
      <point x="319" y="602"/>
      <point x="309" y="592"/>
      <point x="299" y="592" type="curve" smooth="yes"/>
      <point x="292" y="592"/>
      <point x="283" y="601"/>
      <point x="246" y="640" type="curve" smooth="yes"/>
      <point x="214" y="674"/>
      <point x="198" y="686"/>
      <point x="185" y="686" type="curve" smooth="yes"/>
      <point x="171" y="686"/>
      <point x="144" y="672"/>
      <point x="102" y="632" type="curve" smooth="yes"/>
      <point x="44" y="577"/>
      <point x="40" y="545"/>
      <point x="40" y="524" type="curve" smooth="yes"/>
      <point x="40" y="481"/>
      <point x="58" y="454"/>
      <point x="92" y="424" type="curve"/>
    </contour>
  </outline>
</glyph>
<glyph name="uni179F" format="2">
  <advance width="938"/>
  <unicode hex="179F"/>
  <note>
uni179F
</note>
  <anchor x="623" y="760" name="abvm"/>
  <anchor x="619" y="0" name="blwm"/>
  <anchor x="461" y="0" name="blwm_nno"/>
  <outline>
    <contour>
      <point x="318" y="457" type="curve" smooth="yes"/>
      <point x="209" y="457"/>
      <point x="90" y="426"/>
      <point x="90" y="316" type="curve" smooth="yes"/>
      <point x="90" y="279" type="line"/>
      <point x="240" y="279" type="line"/>
      <point x="240" y="283" type="line" smooth="yes"/>
      <point x="240" y="326"/>
      <point x="265" y="355"/>
      <point x="318" y="355" type="curve" smooth="yes"/>
      <point x="370" y="355"/>
      <point x="400" y="331"/>
      <point x="400" y="283" type="curve" smooth="yes"/>
      <point x="400" y="146" type="line" smooth="yes"/>
      <point x="400" y="82"/>
      <point x="462" y="0"/>
      <point x="619" y="0" type="curve" smooth="yes"/>
      <point x="775" y="0"/>
      <point x="838" y="82"/>
      <point x="838" y="146" type="curve" smooth="yes"/>
      <point x="838" y="423" type="line"/>
      <point x="688" y="423" type="line"/>
      <point x="688" y="176" type="line" smooth="yes"/>
      <point x="688" y="139"/>
      <point x="677" y="102"/>
      <point x="619" y="102" type="curve" smooth="yes"/>
      <point x="562" y="102"/>
      <point x="550" y="139"/>
      <point x="550" y="176" type="curve" smooth="yes"/>
      <point x="550" y="316" type="line" smooth="yes"/>
      <point x="550" y="426"/>
      <point x="426" y="457"/>
    </contour>
    <contour>
      <point x="380" y="437" type="line"/>
      <point x="248" y="520" type="line"/>
      <point x="260" y="540" type="line"/>
      <point x="305" y="515"/>
      <point x="320" y="509"/>
      <point x="334" y="509" type="curve" smooth="yes"/>
      <point x="378" y="509"/>
      <point x="403" y="568"/>
      <point x="403" y="612" type="curve"/>
      <point x="359" y="612"/>
      <point x="315" y="643"/>
      <point x="248" y="680" type="curve"/>
      <point x="171" y="572"/>
      <point x="141" y="523"/>
      <point x="141" y="493" type="curve" smooth="yes"/>
      <point x="141" y="482"/>
      <point x="145" y="446"/>
      <point x="204" y="413" type="curve"/>
    </contour>
    <contour>
      <point x="90" y="317" type="line"/>
      <point x="90" y="0" type="line"/>
      <point x="240" y="0" type="line"/>
      <point x="308" y="46"/>
      <point x="352" y="100"/>
      <point x="352" y="169" type="curve" smooth="yes"/>
      <point x="352" y="240"/>
      <point x="310" y="280"/>
      <point x="240" y="275" type="curve"/>
      <point x="240" y="317" type="line"/>
    </contour>
    <contour>
      <point x="240" y="186" type="line"/>
      <point x="255" y="185"/>
      <point x="268" y="179"/>
      <point x="268" y="154" type="curve" smooth="yes"/>
      <point x="268" y="138"/>
      <point x="263" y="118"/>
      <point x="240" y="102" type="curve"/>
    </contour>
    <contour>
      <point x="838" y="330" type="line"/>
      <point x="838" y="449" type="line"/>
      <point x="733" y="514" type="line"/>
      <point x="744" y="535" type="line"/>
      <point x="790" y="510"/>
      <point x="806" y="505"/>
      <point x="819" y="505" type="curve" smooth="yes"/>
      <point x="864" y="505"/>
      <point x="888" y="568"/>
      <point x="888" y="612" type="curve"/>
      <point x="844" y="612"/>
      <point x="800" y="643"/>
      <point x="733" y="680" type="curve"/>
      <point x="656" y="572"/>
      <point x="626" y="525"/>
      <point x="626" y="492" type="curve" smooth="yes"/>
      <point x="626" y="473"/>
      <point x="636" y="449"/>
      <point x="688" y="412" type="curve"/>
      <point x="688" y="330" type="line"/>
    </contour>
  </outline>
</glyph>
<glyph name="uni17A1" format="2">
  <advance width="905"/>
  <unicode hex="17A1"/>
  <note>
uni17A1
</note>
  <anchor x="616" y="760" name="abvm"/>
  <anchor x="591" y="-320" name="blwm"/>
  <outline>
    <contour>
      <point x="805" y="330" type="line"/>
      <point x="805" y="449" type="line"/>
      <point x="700" y="514" type="line"/>
      <point x="711" y="535" type="line"/>
      <point x="757" y="510"/>
      <point x="773" y="505"/>
      <point x="786" y="505" type="curve" smooth="yes"/>
      <point x="831" y="505"/>
      <point x="855" y="568"/>
      <point x="855" y="612" type="curve"/>
      <point x="811" y="612"/>
      <point x="767" y="643"/>
      <point x="700" y="680" type="curve"/>
      <point x="623" y="572"/>
      <point x="593" y="525"/>
      <point x="593" y="492" type="curve" smooth="yes"/>
      <point x="593" y="473"/>
      <point x="603" y="449"/>
      <point x="655" y="412" type="curve"/>
      <point x="655" y="330" type="line"/>
    </contour>
    <contour>
      <point x="85" y="144" type="line"/>
      <point x="85" y="129" type="line" smooth="yes"/>
      <point x="85" y="63"/>
      <point x="135" y="0"/>
      <point x="255" y="0" type="curve" smooth="yes"/>
      <point x="375" y="0"/>
      <point x="422" y="63"/>
      <point x="422" y="129" type="curve" smooth="yes"/>
      <point x="422" y="177" type="line"/>
      <point x="491" y="186"/>
      <point x="521" y="245"/>
      <point x="521" y="286" type="curve" smooth="yes"/>
      <point x="521" y="317"/>
      <point x="504" y="366"/>
      <point x="425" y="366" type="curve" smooth="yes"/>
      <point x="341" y="366"/>
      <point x="293" y="311"/>
      <point x="272" y="269" type="curve"/>
      <point x="261" y="269" type="line" smooth="yes"/>
      <point x="227" y="269"/>
      <point x="190" y="311"/>
      <point x="190" y="395" type="curve" smooth="yes"/>
      <point x="190" y="498" type="line" smooth="yes"/>
      <point x="190" y="547"/>
      <point x="208" y="580"/>
      <point x="290" y="580" type="curve" smooth="yes"/>
      <point x="330" y="580"/>
      <point x="374" y="572"/>
      <point x="374" y="549" type="curve"/>
      <point x="313" y="549"/>
      <point x="290" y="517"/>
      <point x="290" y="470" type="curve" smooth="yes"/>
      <point x="290" y="424"/>
      <point x="313" y="384"/>
      <point x="391" y="384" type="curve" smooth="yes"/>
      <point x="499" y="384"/>
      <point x="522" y="459"/>
      <point x="522" y="505" type="curve" smooth="yes"/>
      <point x="522" y="529" type="line" smooth="yes"/>
      <point x="522" y="614"/>
      <point x="429" y="682"/>
      <point x="275" y="682" type="curve" smooth="yes"/>
      <point x="124" y="682"/>
      <point x="40" y="623"/>
      <point x="40" y="516" type="curve" smooth="yes"/>
      <point x="40" y="405" type="line" smooth="yes"/>
      <point x="40" y="280"/>
      <point x="151" y="177"/>
      <point x="266" y="177" type="curve" smooth="yes"/>
      <point x="272" y="177" type="line"/>
      <point x="272" y="137" type="line" smooth="yes"/>
      <point x="272" y="119"/>
      <point x="268" y="102"/>
      <point x="253" y="102" type="curve" smooth="yes"/>
      <point x="239" y="102"/>
      <point x="235" y="119"/>
      <point x="235" y="138" type="curve" smooth="yes"/>
      <point x="235" y="144" type="line"/>
    </contour>
    <contour>
      <point x="447" y="297" type="curve" smooth="yes"/>
      <point x="453" y="297"/>
      <point x="456" y="294"/>
      <point x="456" y="289" type="curve" smooth="yes"/>
      <point x="456" y="279"/>
      <point x="443" y="269"/>
      <point x="421" y="269" type="curve"/>
      <point x="424" y="281"/>
      <point x="433" y="297"/>
    </contour>
    <contour>
      <point x="374" y="448" type="line"/>
      <point x="360" y="448"/>
      <point x="353" y="456"/>
      <point x="353" y="472" type="curve" smooth="yes"/>
      <point x="353" y="493"/>
      <point x="365" y="497"/>
      <point x="374" y="497" type="curve"/>
    </contour>
    <contour>
      <point x="515" y="-164" type="line"/>
      <point x="365" y="-164" type="line"/>
      <point x="365" y="-317" type="line"/>
      <point x="516" y="-317" type="line"/>
      <point x="585" y="-248" type="line"/>
      <point x="654" y="-317" type="line"/>
      <point x="805" y="-317" type="line"/>
      <point x="805" y="388" type="line"/>
      <point x="655" y="388" type="line"/>
      <point x="655" y="-191" type="line"/>
      <point x="585" y="-121" type="line"/>
      <point x="515" y="-191" type="line"/>
    </contour>
    <contour>
      <point x="365" y="-215" type="line"/>
      <point x="515" y="-215" type="line"/>
      <point x="515" y="-130" type="line" smooth="yes"/>
      <point x="515" y="-87"/>
      <point x="492" y="-49"/>
      <point x="421" y="-49" type="curve" smooth="yes"/>
      <point x="366" y="-49"/>
      <point x="322" y="-81"/>
      <point x="322" y="-136" type="curve" smooth="yes"/>
      <point x="322" y="-176"/>
      <point x="345" y="-200"/>
      <point x="365" y="-206" type="curve"/>
    </contour>
  </outline>
</glyph>
<glyph name="uni17A2" format="2">
  <advance width="690"/>
  <unicode hex="17A2"/>
  <note>
uni17A2
</note>
  <anchor x="358" y="760" name="abvm"/>
  <anchor x="342" y="0" name="blwm"/>
  <outline>
    <contour>
      <point x="590" y="330" type="line"/>
      <point x="590" y="449" type="line"/>
      <point x="485" y="514" type="line"/>
      <point x="496" y="535" type="line"/>
      <point x="542" y="510"/>
      <point x="558" y="505"/>
      <point x="571" y="505" type="curve" smooth="yes"/>
      <point x="616" y="505"/>
      <point x="640" y="568"/>
      <point x="640" y="612" type="curve"/>
      <point x="596" y="612"/>
      <point x="552" y="643"/>
      <point x="485" y="680" type="curve"/>
      <point x="408" y="572"/>
      <point x="378" y="525"/>
      <point x="378" y="492" type="curve" smooth="yes"/>
      <point x="378" y="473"/>
      <point x="388" y="449"/>
      <point x="440" y="412" type="curve"/>
      <point x="440" y="330" type="line"/>
    </contour>
    <contour>
      <point x="440" y="259" type="line"/>
      <point x="590" y="259" type="line"/>
      <point x="590" y="420" type="line"/>
      <point x="440" y="420" type="line"/>
      <point x="440" y="399" type="line"/>
      <point x="280" y="399" type="line"/>
      <point x="280" y="420" type="line"/>
      <point x="130" y="420" type="line"/>
      <point x="130" y="259" type="line"/>
      <point x="280" y="259" type="line"/>
      <point x="280" y="297" type="line"/>
      <point x="440" y="297" type="line"/>
    </contour>
    <contour>
      <point x="280" y="330" type="line"/>
      <point x="280" y="449" type="line"/>
      <point x="175" y="514" type="line"/>
      <point x="186" y="535" type="line"/>
      <point x="232" y="510"/>
      <point x="248" y="505"/>
      <point x="261" y="505" type="curve" smooth="yes"/>
      <point x="306" y="505"/>
      <point x="330" y="568"/>
      <point x="330" y="612" type="curve"/>
      <point x="286" y="612"/>
      <point x="242" y="643"/>
      <point x="175" y="680" type="curve"/>
      <point x="98" y="572"/>
      <point x="68" y="525"/>
      <point x="68" y="492" type="curve" smooth="yes"/>
      <point x="68" y="473"/>
      <point x="78" y="449"/>
      <point x="130" y="412" type="curve"/>
      <point x="130" y="330" type="line"/>
    </contour>
    <contour>
      <point x="590" y="426" type="line"/>
      <point x="440" y="426" type="line"/>
      <point x="440" y="275" type="line"/>
      <point x="376" y="273"/>
      <point x="330" y="220"/>
      <point x="330" y="145" type="curve" smooth="yes"/>
      <point x="330" y="68"/>
      <point x="380" y="17"/>
      <point x="440" y="0" type="curve"/>
      <point x="590" y="0" type="line"/>
    </contour>
    <contour>
      <point x="440" y="92" type="line"/>
      <point x="418" y="108"/>
      <point x="412" y="126"/>
      <point x="412" y="141" type="curve" smooth="yes"/>
      <point x="412" y="163"/>
      <point x="425" y="175"/>
      <point x="440" y="176" type="curve"/>
    </contour>
    <contour>
      <point x="280" y="426" type="line"/>
      <point x="130" y="426" type="line"/>
      <point x="130" y="275" type="line"/>
      <point x="66" y="273"/>
      <point x="20" y="220"/>
      <point x="20" y="145" type="curve" smooth="yes"/>
      <point x="20" y="68"/>
      <point x="70" y="17"/>
      <point x="130" y="0" type="curve"/>
      <point x="280" y="0" type="line"/>
    </contour>
    <contour>
      <point x="130" y="92" type="line"/>
      <point x="108" y="108"/>
      <point x="102" y="126"/>
      <point x="102" y="141" type="curve" smooth="yes"/>
      <point x="102" y="163"/>
      <point x="115" y="175"/>
      <point x="130" y="176" type="curve"/>
    </contour>
  </outline>
</glyph>
<glyph name="uni17A5" format="2">
  <advance width="636"/>
  <unicode hex="17A5"/>
  <note>
uni17A5
</note>
  <outline>
    <contour>
      <point x="77" y="280" type="line"/>
      <point x="227" y="280" type="line"/>
      <point x="227" y="337" type="line" smooth="yes"/>
      <point x="227" y="391"/>
      <point x="251" y="411"/>
      <point x="308" y="411" type="curve" smooth="yes"/>
      <point x="362" y="411"/>
      <point x="389" y="393"/>
      <point x="389" y="337" type="curve" smooth="yes"/>
      <point x="389" y="0" type="line"/>
      <point x="539" y="0" type="line"/>
      <point x="539" y="386" type="line" smooth="yes"/>
      <point x="539" y="451"/>
      <point x="431" y="513"/>
      <point x="308" y="513" type="curve" smooth="yes"/>
      <point x="186" y="513"/>
      <point x="77" y="452"/>
      <point x="77" y="386" type="curve" smooth="yes"/>
    </contour>
    <contour>
      <point x="77" y="317" type="line"/>
      <point x="77" y="0" type="line"/>
      <point x="227" y="0" type="line"/>
      <point x="295" y="46"/>
      <point x="339" y="100"/>
      <point x="339" y="169" type="curve" smooth="yes"/>
      <point x="339" y="240"/>
      <point x="297" y="280"/>
      <point x="227" y="275" type="curve"/>
      <point x="227" y="317" type="line"/>
    </contour>
    <contour>
      <point x="227" y="186" type="line"/>
      <point x="242" y="185"/>
      <point x="255" y="179"/>
      <point x="255" y="154" type="curve" smooth="yes"/>
      <point x="255" y="138"/>
      <point x="250" y="118"/>
      <point x="227" y="102" type="curve"/>
    </contour>
    <contour>
      <point x="78" y="461" type="curve"/>
      <point x="174" y="523" type="line"/>
      <point x="165" y="531"/>
      <point x="162" y="539"/>
      <point x="162" y="548" type="curve" smooth="yes"/>
      <point x="162" y="562"/>
      <point x="170" y="575"/>
      <point x="181" y="585" type="curve" smooth="yes"/>
      <point x="192" y="595"/>
      <point x="204" y="600"/>
      <point x="215" y="600" type="curve" smooth="yes"/>
      <point x="234" y="600"/>
      <point x="252" y="586"/>
      <point x="268" y="573" type="curve" smooth="yes"/>
      <point x="296" y="551"/>
      <point x="335" y="520"/>
      <point x="385" y="520" type="curve" smooth="yes"/>
      <point x="506" y="520"/>
      <point x="546" y="628"/>
      <point x="546" y="697" type="curve" smooth="yes"/>
      <point x="546" y="781"/>
      <point x="499" y="850"/>
      <point x="434" y="850" type="curve" smooth="yes"/>
      <point x="385" y="850"/>
      <point x="359" y="810"/>
      <point x="359" y="739" type="curve"/>
      <point x="394" y="739"/>
      <point x="447" y="731"/>
      <point x="447" y="682" type="curve" smooth="yes"/>
      <point x="447" y="655"/>
      <point x="430" y="632"/>
      <point x="399" y="632" type="curve" smooth="yes"/>
      <point x="370" y="632"/>
      <point x="354" y="652"/>
      <point x="323" y="678" type="curve" smooth="yes"/>
      <point x="279" y="715"/>
      <point x="255" y="732"/>
      <point x="228" y="732" type="curve" smooth="yes"/>
      <point x="193" y="732"/>
      <point x="153" y="699"/>
      <point x="113" y="659" type="curve" smooth="yes"/>
      <point x="75" y="621"/>
      <point x="45" y="583"/>
      <point x="45" y="538" type="curve" smooth="yes"/>
      <point x="45" y="509"/>
      <point x="58" y="484"/>
    </contour>
  </outline>
</glyph>
<glyph name="uni17A6" format="2">
  <advance width="921"/>
  <unicode hex="17A6"/>
  <note>
uni17A6
</note>
  <outline>
    <contour>
      <point x="677" y="343" type="line"/>
      <point x="677" y="-140" type="line" smooth="yes"/>
      <point x="677" y="-175"/>
      <point x="656" y="-215"/>
      <point x="597" y="-215" type="curve" smooth="yes"/>
      <point x="539" y="-215"/>
      <point x="517" y="-175"/>
      <point x="517" y="-140" type="curve" smooth="yes"/>
      <point x="517" y="-85"/>
      <point x="451" y="-24"/>
      <point x="308" y="-24" type="curve" smooth="yes"/>
      <point x="166" y="-24"/>
      <point x="99" y="-106"/>
      <point x="99" y="-171" type="curve" smooth="yes"/>
      <point x="99" y="-269" type="line" smooth="yes"/>
      <point x="99" y="-301"/>
      <point x="141" y="-317"/>
      <point x="189" y="-317" type="curve" smooth="yes"/>
      <point x="257" y="-317"/>
      <point x="277" y="-284"/>
      <point x="277" y="-244" type="curve" smooth="yes"/>
      <point x="277" y="-210"/>
      <point x="262" y="-197"/>
      <point x="249" y="-195" type="curve"/>
      <point x="249" y="-177" type="line" smooth="yes"/>
      <point x="249" y="-155"/>
      <point x="264" y="-126"/>
      <point x="308" y="-126" type="curve" smooth="yes"/>
      <point x="352" y="-126"/>
      <point x="367" y="-155"/>
      <point x="367" y="-177" type="curve" smooth="yes"/>
      <point x="367" y="-270"/>
      <point x="451" y="-317"/>
      <point x="593" y="-317" type="curve" smooth="yes"/>
      <point x="787" y="-317"/>
      <point x="827" y="-219"/>
      <point x="827" y="-140" type="curve" smooth="yes"/>
      <point x="827" y="343" type="line"/>
    </contour>
    <contour>
      <point x="77" y="289" type="line"/>
      <point x="227" y="289" type="line"/>
      <point x="227" y="506" type="line" smooth="yes"/>
      <point x="227" y="560"/>
      <point x="251" y="580"/>
      <point x="308" y="580" type="curve" smooth="yes"/>
      <point x="362" y="580"/>
      <point x="389" y="562"/>
      <point x="389" y="506" type="curve" smooth="yes"/>
      <point x="389" y="0" type="line"/>
      <point x="539" y="0" type="line"/>
      <point x="539" y="555" type="line" smooth="yes"/>
      <point x="539" y="620"/>
      <point x="431" y="682"/>
      <point x="308" y="682" type="curve" smooth="yes"/>
      <point x="186" y="682"/>
      <point x="77" y="621"/>
      <point x="77" y="555" type="curve" smooth="yes"/>
    </contour>
    <contour>
      <point x="677" y="321" type="line"/>
      <point x="827" y="321" type="line"/>
      <point x="827" y="445" type="line"/>
      <point x="721" y="510" type="line"/>
      <point x="734" y="532" type="line"/>
      <point x="755" y="523"/>
      <point x="776" y="519"/>
      <point x="791" y="519" type="curve" smooth="yes"/>
      <point x="850" y="519"/>
      <point x="923" y="584"/>
      <point x="923" y="678" type="curve" smooth="yes"/>
      <point x="923" y="760"/>
      <point x="867" y="812"/>
      <point x="825" y="812" type="curve" smooth="yes"/>
      <point x="801" y="812"/>
      <point x="753" y="795"/>
      <point x="753" y="734" type="curve"/>
      <point x="785" y="734"/>
      <point x="824" y="717"/>
      <point x="824" y="684" type="curve" smooth="yes"/>
      <point x="824" y="660"/>
      <point x="802" y="644"/>
      <point x="779" y="644" type="curve" smooth="yes"/>
      <point x="762" y="644"/>
      <point x="744" y="660"/>
      <point x="722" y="680" type="curve"/>
      <point x="633" y="550"/>
      <point x="615" y="509"/>
      <point x="615" y="484" type="curve" smooth="yes"/>
      <point x="615" y="456"/>
      <point x="637" y="436"/>
      <point x="677" y="408" type="curve"/>
    </contour>
    <contour>
      <point x="77" y="317" type="line"/>
      <point x="77" y="0" type="line"/>
      <point x="227" y="0" type="line"/>
      <point x="295" y="46"/>
      <point x="339" y="100"/>
      <point x="339" y="169" type="curve" smooth="yes"/>
      <point x="339" y="240"/>
      <point x="297" y="280"/>
      <point x="227" y="275" type="curve"/>
      <point x="227" y="317" type="line"/>
    </contour>
    <contour>
      <point x="227" y="186" type="line"/>
      <point x="242" y="185"/>
      <point x="255" y="179"/>
      <point x="255" y="154" type="curve" smooth="yes"/>
      <point x="255" y="138"/>
      <point x="250" y="118"/>
      <point x="227" y="102" type="curve"/>
    </contour>
  </outline>
</glyph>
<glyph name="uni17A8" format="2">
  <advance width="632"/>
  <unicode hex="17A8"/>
  <note>
uni17A8
</note>
  <anchor x="301" y="956" name="abvm"/>
  <anchor x="312" y="-49" name="blwm"/>
  <outline>
    <contour>
      <point x="79" y="529" type="line"/>
      <point x="229" y="530" type="line"/>
      <point x="229" y="532" type="line" smooth="yes"/>
      <point x="229" y="568"/>
      <point x="254" y="580"/>
      <point x="308" y="580" type="curve" smooth="yes"/>
      <point x="365" y="580"/>
      <point x="389" y="566"/>
      <point x="389" y="505" type="curve" smooth="yes"/>
      <point x="389" y="463" type="line" smooth="yes"/>
      <point x="389" y="415"/>
      <point x="362" y="372"/>
      <point x="308" y="338" type="curve" smooth="yes"/>
      <point x="79" y="197" type="line"/>
      <point x="79" y="122" type="line" smooth="yes"/>
      <point x="79" y="36"/>
      <point x="139" y="0"/>
      <point x="199" y="0" type="curve" smooth="yes"/>
      <point x="246" y="0"/>
      <point x="281" y="22"/>
      <point x="319" y="53" type="curve" smooth="yes"/>
      <point x="365" y="89"/>
      <point x="377" y="98"/>
      <point x="389" y="98" type="curve"/>
      <point x="389" y="71" type="line" smooth="yes"/>
      <point x="389" y="35"/>
      <point x="378" y="21"/>
      <point x="361" y="10" type="curve"/>
      <point x="361" y="-13"/>
      <point x="387" y="-49"/>
      <point x="441" y="-49" type="curve" smooth="yes"/>
      <point x="507" y="-49"/>
      <point x="537" y="6"/>
      <point x="537" y="54" type="curve" smooth="yes"/>
      <point x="537" y="279" type="line"/>
      <point x="389" y="235" type="line"/>
      <point x="389" y="209" type="line"/>
      <point x="357" y="203"/>
      <point x="337" y="188"/>
      <point x="309" y="161" type="curve" smooth="yes"/>
      <point x="275" y="129"/>
      <point x="262" y="111"/>
      <point x="247" y="111" type="curve" smooth="yes"/>
      <point x="239" y="111"/>
      <point x="227" y="116"/>
      <point x="227" y="151" type="curve" smooth="yes"/>
      <point x="227" y="165" type="line"/>
      <point x="347" y="239" type="line" smooth="yes"/>
      <point x="476" y="318"/>
      <point x="537" y="420"/>
      <point x="537" y="463" type="curve" smooth="yes"/>
      <point x="537" y="536" type="line" smooth="yes"/>
      <point x="537" y="621"/>
      <point x="450" y="682"/>
      <point x="309" y="682" type="curve" smooth="yes"/>
      <point x="170" y="682"/>
      <point x="79" y="623"/>
      <point x="79" y="536" type="curve" smooth="yes"/>
    </contour>
    <contour>
      <point x="229" y="533" type="line"/>
      <point x="79" y="533" type="line"/>
      <point x="79" y="427" type="line" smooth="yes"/>
      <point x="79" y="384"/>
      <point x="116" y="355"/>
      <point x="197" y="355" type="curve" smooth="yes"/>
      <point x="271" y="355"/>
      <point x="317" y="381"/>
      <point x="317" y="451" type="curve" smooth="yes"/>
      <point x="317" y="489"/>
      <point x="302" y="529"/>
      <point x="229" y="529" type="curve"/>
    </contour>
    <contour>
      <point x="229" y="471" type="line"/>
      <point x="242" y="471"/>
      <point x="251" y="466"/>
      <point x="251" y="446" type="curve" smooth="yes"/>
      <point x="251" y="429"/>
      <point x="244" y="421"/>
      <point x="229" y="421" type="curve"/>
    </contour>
    <contour>
      <point x="186" y="701" type="line"/>
      <point x="156" y="732"/>
      <point x="141" y="747"/>
      <point x="141" y="755" type="curve" smooth="yes"/>
      <point x="141" y="760"/>
      <point x="145" y="765"/>
      <point x="148" y="768" type="curve" smooth="yes"/>
      <point x="151" y="771"/>
      <point x="156" y="775"/>
      <point x="162" y="775" type="curve" smooth="yes"/>
      <point x="166" y="775"/>
      <point x="169" y="772"/>
      <point x="189" y="754" type="curve" smooth="yes"/>
      <point x="220" y="726"/>
      <point x="243" y="710"/>
      <point x="277" y="710" type="curve" smooth="yes"/>
      <point x="306" y="710"/>
      <point x="329" y="721"/>
      <point x="353" y="739" type="curve" smooth="yes"/>
      <point x="373" y="754"/>
      <point x="389" y="764"/>
      <point x="391" y="764" type="curve" smooth="yes"/>
      <point x="409" y="764"/>
      <point x="437" y="708"/>
      <point x="489" y="708" type="curve" smooth="yes"/>
      <point x="517" y="708"/>
      <point x="565" y="724"/>
      <point x="572" y="803" type="curve"/>
      <point x="537" y="798"/>
      <point x="514" y="812"/>
      <point x="495" y="833" type="curve" smooth="yes"/>
      <point x="469" y="863" type="line" smooth="yes"/>
      <point x="442" y="895"/>
      <point x="428" y="902"/>
      <point x="418" y="902" type="curve" smooth="yes"/>
      <point x="406" y="902"/>
      <point x="383" y="881"/>
      <point x="351" y="849" type="curve" smooth="yes"/>
      <point x="321" y="819"/>
      <point x="311" y="809"/>
      <point x="301" y="809" type="curve" smooth="yes"/>
      <point x="294" y="809"/>
      <point x="285" y="818"/>
      <point x="248" y="857" type="curve" smooth="yes"/>
      <point x="216" y="891"/>
      <point x="200" y="903"/>
      <point x="187" y="903" type="curve" smooth="yes"/>
      <point x="173" y="903"/>
      <point x="146" y="889"/>
      <point x="104" y="849" type="curve" smooth="yes"/>
      <point x="46" y="794"/>
      <point x="42" y="762"/>
      <point x="42" y="741" type="curve" smooth="yes"/>
      <point x="42" y="698"/>
      <point x="60" y="671"/>
      <point x="94" y="641" type="curve"/>
    </contour>
  </outline>
</glyph>
<glyph name="uni17A9" format="2">
  <advance width="786"/>
  <unicode hex="17A9"/>
  <note>
uni17A9
</note>
  <anchor x="303" y="760" name="abvm"/>
  <anchor x="312" y="-49" name="blwm"/>
  <outline>
    <contour>
      <point x="567" y="-49" type="line"/>
      <point x="699" y="-49" type="line"/>
      <point x="699" y="326" type="line"/>
      <point x="567" y="287" type="line"/>
    </contour>
    <contour>
      <point x="79" y="529" type="line"/>
      <point x="229" y="530" type="line"/>
      <point x="229" y="532" type="line" smooth="yes"/>
      <point x="229" y="568"/>
      <point x="254" y="580"/>
      <point x="308" y="580" type="curve" smooth="yes"/>
      <point x="365" y="580"/>
      <point x="389" y="566"/>
      <point x="389" y="505" type="curve" smooth="yes"/>
      <point x="389" y="463" type="line" smooth="yes"/>
      <point x="389" y="415"/>
      <point x="362" y="372"/>
      <point x="308" y="338" type="curve" smooth="yes"/>
      <point x="79" y="197" type="line"/>
      <point x="79" y="122" type="line" smooth="yes"/>
      <point x="79" y="36"/>
      <point x="139" y="0"/>
      <point x="199" y="0" type="curve" smooth="yes"/>
      <point x="246" y="0"/>
      <point x="281" y="22"/>
      <point x="319" y="53" type="curve" smooth="yes"/>
      <point x="365" y="89"/>
      <point x="377" y="98"/>
      <point x="389" y="98" type="curve"/>
      <point x="389" y="71" type="line" smooth="yes"/>
      <point x="389" y="35"/>
      <point x="378" y="21"/>
      <point x="361" y="10" type="curve"/>
      <point x="361" y="-13"/>
      <point x="387" y="-49"/>
      <point x="441" y="-49" type="curve" smooth="yes"/>
      <point x="507" y="-49"/>
      <point x="537" y="6"/>
      <point x="537" y="54" type="curve" smooth="yes"/>
      <point x="537" y="279" type="line"/>
      <point x="389" y="235" type="line"/>
      <point x="389" y="209" type="line"/>
      <point x="357" y="203"/>
      <point x="337" y="188"/>
      <point x="309" y="161" type="curve" smooth="yes"/>
      <point x="275" y="129"/>
      <point x="262" y="111"/>
      <point x="247" y="111" type="curve" smooth="yes"/>
      <point x="239" y="111"/>
      <point x="227" y="116"/>
      <point x="227" y="151" type="curve" smooth="yes"/>
      <point x="227" y="165" type="line"/>
      <point x="347" y="239" type="line" smooth="yes"/>
      <point x="476" y="318"/>
      <point x="537" y="420"/>
      <point x="537" y="463" type="curve" smooth="yes"/>
      <point x="537" y="536" type="line" smooth="yes"/>
      <point x="537" y="621"/>
      <point x="450" y="682"/>
      <point x="309" y="682" type="curve" smooth="yes"/>
      <point x="170" y="682"/>
      <point x="79" y="623"/>
      <point x="79" y="536" type="curve" smooth="yes"/>
    </contour>
    <contour>
      <point x="229" y="533" type="line"/>
      <point x="79" y="533" type="line"/>
      <point x="79" y="427" type="line" smooth="yes"/>
      <point x="79" y="384"/>
      <point x="116" y="355"/>
      <point x="197" y="355" type="curve" smooth="yes"/>
      <point x="271" y="355"/>
      <point x="317" y="381"/>
      <point x="317" y="451" type="curve" smooth="yes"/>
      <point x="317" y="489"/>
      <point x="302" y="529"/>
      <point x="229" y="529" type="curve"/>
    </contour>
    <contour>
      <point x="229" y="471" type="line"/>
      <point x="242" y="471"/>
      <point x="251" y="466"/>
      <point x="251" y="446" type="curve" smooth="yes"/>
      <point x="251" y="429"/>
      <point x="244" y="421"/>
      <point x="229" y="421" type="curve"/>
    </contour>
  </outline>
</glyph>
<glyph name="uni17AA" format="2">
  <advance width="631"/>
  <unicode hex="17AA"/>
  <note>
uni17AA
</note>
  <anchor x="303" y="1060" name="abvm"/>
  <anchor x="312" y="-49" name="blwm"/>
  <outline>
    <contour>
      <point x="79" y="529" type="line"/>
      <point x="229" y="530" type="line"/>
      <point x="229" y="532" type="line" smooth="yes"/>
      <point x="229" y="568"/>
      <point x="254" y="580"/>
      <point x="308" y="580" type="curve" smooth="yes"/>
      <point x="365" y="580"/>
      <point x="389" y="566"/>
      <point x="389" y="505" type="curve" smooth="yes"/>
      <point x="389" y="463" type="line" smooth="yes"/>
      <point x="389" y="415"/>
      <point x="362" y="372"/>
      <point x="308" y="338" type="curve" smooth="yes"/>
      <point x="79" y="197" type="line"/>
      <point x="79" y="122" type="line" smooth="yes"/>
      <point x="79" y="36"/>
      <point x="139" y="0"/>
      <point x="199" y="0" type="curve" smooth="yes"/>
      <point x="246" y="0"/>
      <point x="281" y="22"/>
      <point x="319" y="53" type="curve" smooth="yes"/>
      <point x="365" y="89"/>
      <point x="377" y="98"/>
      <point x="389" y="98" type="curve"/>
      <point x="389" y="71" type="line" smooth="yes"/>
      <point x="389" y="35"/>
      <point x="378" y="21"/>
      <point x="361" y="10" type="curve"/>
      <point x="361" y="-13"/>
      <point x="387" y="-49"/>
      <point x="441" y="-49" type="curve" smooth="yes"/>
      <point x="507" y="-49"/>
      <point x="537" y="6"/>
      <point x="537" y="54" type="curve" smooth="yes"/>
      <point x="537" y="279" type="line"/>
      <point x="389" y="235" type="line"/>
      <point x="389" y="209" type="line"/>
      <point x="357" y="203"/>
      <point x="337" y="188"/>
      <point x="309" y="161" type="curve" smooth="yes"/>
      <point x="275" y="129"/>
      <point x="262" y="111"/>
      <point x="247" y="111" type="curve" smooth="yes"/>
      <point x="239" y="111"/>
      <point x="227" y="116"/>
      <point x="227" y="151" type="curve" smooth="yes"/>
      <point x="227" y="165" type="line"/>
      <point x="347" y="239" type="line" smooth="yes"/>
      <point x="476" y="318"/>
      <point x="537" y="420"/>
      <point x="537" y="463" type="curve" smooth="yes"/>
      <point x="537" y="536" type="line" smooth="yes"/>
      <point x="537" y="621"/>
      <point x="450" y="682"/>
      <point x="309" y="682" type="curve" smooth="yes"/>
      <point x="170" y="682"/>
      <point x="79" y="623"/>
      <point x="79" y="536" type="curve" smooth="yes"/>
    </contour>
    <contour>
      <point x="229" y="533" type="line"/>
      <point x="79" y="533" type="line"/>
      <point x="79" y="427" type="line" smooth="yes"/>
      <point x="79" y="384"/>
      <point x="116" y="355"/>
      <point x="197" y="355" type="curve" smooth="yes"/>
      <point x="271" y="355"/>
      <point x="317" y="381"/>
      <point x="317" y="451" type="curve" smooth="yes"/>
      <point x="317" y="489"/>
      <point x="302" y="529"/>
      <point x="229" y="529" type="curve"/>
    </contour>
    <contour>
      <point x="229" y="471" type="line"/>
      <point x="242" y="471"/>
      <point x="251" y="466"/>
      <point x="251" y="446" type="curve" smooth="yes"/>
      <point x="251" y="429"/>
      <point x="244" y="421"/>
      <point x="229" y="421" type="curve"/>
    </contour>
    <contour>
      <point x="83" y="643" type="curve"/>
      <point x="179" y="705" type="line"/>
      <point x="170" y="713"/>
      <point x="167" y="721"/>
      <point x="167" y="730" type="curve" smooth="yes"/>
      <point x="167" y="744"/>
      <point x="175" y="757"/>
      <point x="186" y="767" type="curve" smooth="yes"/>
      <point x="197" y="777"/>
      <point x="209" y="782"/>
      <point x="220" y="782" type="curve" smooth="yes"/>
      <point x="239" y="782"/>
      <point x="257" y="768"/>
      <point x="273" y="755" type="curve" smooth="yes"/>
      <point x="301" y="733"/>
      <point x="340" y="702"/>
      <point x="390" y="702" type="curve" smooth="yes"/>
      <point x="511" y="702"/>
      <point x="551" y="810"/>
      <point x="551" y="879" type="curve" smooth="yes"/>
      <point x="551" y="963"/>
      <point x="504" y="1032"/>
      <point x="439" y="1032" type="curve" smooth="yes"/>
      <point x="390" y="1032"/>
      <point x="364" y="992"/>
      <point x="364" y="921" type="curve"/>
      <point x="399" y="921"/>
      <point x="452" y="913"/>
      <point x="452" y="864" type="curve" smooth="yes"/>
      <point x="452" y="837"/>
      <point x="435" y="814"/>
      <point x="404" y="814" type="curve" smooth="yes"/>
      <point x="375" y="814"/>
      <point x="359" y="834"/>
      <point x="328" y="860" type="curve" smooth="yes"/>
      <point x="284" y="897"/>
      <point x="260" y="914"/>
      <point x="233" y="914" type="curve" smooth="yes"/>
      <point x="198" y="914"/>
      <point x="158" y="881"/>
      <point x="118" y="841" type="curve" smooth="yes"/>
      <point x="80" y="803"/>
      <point x="50" y="765"/>
      <point x="50" y="720" type="curve" smooth="yes"/>
      <point x="50" y="691"/>
      <point x="63" y="666"/>
    </contour>
  </outline>
</glyph>
<glyph name="uni17AD" format="2">
  <advance width="666"/>
  <unicode hex="17AD"/>
  <note>
uni17AD
</note>
  <anchor x="307" y="760" name="abvm"/>
  <anchor x="319" y="0" name="blwm"/>
  <outline>
    <contour>
      <point x="89" y="309" type="line"/>
      <point x="239" y="309" type="line"/>
      <point x="239" y="444" type="line"/>
      <point x="171" y="507"/>
      <point x="159" y="521"/>
      <point x="159" y="533" type="curve" smooth="yes"/>
      <point x="159" y="538"/>
      <point x="161" y="541"/>
      <point x="163" y="544" type="curve" smooth="yes"/>
      <point x="165" y="548"/>
      <point x="169" y="549"/>
      <point x="172" y="549" type="curve" smooth="yes"/>
      <point x="191" y="549"/>
      <point x="240" y="479"/>
      <point x="273" y="479" type="curve" smooth="yes"/>
      <point x="302" y="479"/>
      <point x="358" y="533"/>
      <point x="385" y="533" type="curve" smooth="yes"/>
      <point x="397" y="533"/>
      <point x="416" y="521"/>
      <point x="416" y="464" type="curve" smooth="yes"/>
      <point x="416" y="0" type="line"/>
      <point x="566" y="0" type="line"/>
      <point x="566" y="521" type="line" smooth="yes"/>
      <point x="566" y="602"/>
      <point x="507" y="682"/>
      <point x="453" y="682" type="curve" smooth="yes"/>
      <point x="427" y="682"/>
      <point x="391" y="664"/>
      <point x="363" y="643" type="curve" smooth="yes"/>
      <point x="341" y="627"/>
      <point x="318" y="604"/>
      <point x="306" y="604" type="curve" smooth="yes"/>
      <point x="295" y="604"/>
      <point x="274" y="626"/>
      <point x="253" y="647" type="curve" smooth="yes"/>
      <point x="239" y="661"/>
      <point x="218" y="682"/>
      <point x="201" y="682" type="curve" smooth="yes"/>
      <point x="181" y="682"/>
      <point x="143" y="660"/>
      <point x="109" y="627" type="curve" smooth="yes"/>
      <point x="75" y="594"/>
      <point x="48" y="554"/>
      <point x="48" y="528" type="curve" smooth="yes"/>
      <point x="48" y="510"/>
      <point x="61" y="484"/>
      <point x="89" y="450" type="curve"/>
    </contour>
    <contour>
      <point x="89" y="317" type="line"/>
      <point x="89" y="0" type="line"/>
      <point x="239" y="0" type="line"/>
      <point x="307" y="46"/>
      <point x="351" y="100"/>
      <point x="351" y="169" type="curve" smooth="yes"/>
      <point x="351" y="240"/>
      <point x="309" y="280"/>
      <point x="239" y="275" type="curve"/>
      <point x="239" y="317" type="line"/>
    </contour>
    <contour>
      <point x="239" y="186" type="line"/>
      <point x="254" y="185"/>
      <point x="267" y="179"/>
      <point x="267" y="154" type="curve" smooth="yes"/>
      <point x="267" y="138"/>
      <point x="262" y="118"/>
      <point x="239" y="102" type="curve"/>
    </contour>
    <contour>
      <point x="523" y="-126" type="curve" smooth="yes"/>
      <point x="523" y="-77"/>
      <point x="496" y="-35"/>
      <point x="439" y="-35" type="curve" smooth="yes"/>
      <point x="388" y="-35"/>
      <point x="354" y="-68"/>
      <point x="354" y="-114" type="curve"/>
      <point x="380" y="-114"/>
      <point x="387" y="-130"/>
      <point x="387" y="-143" type="curve" smooth="yes"/>
      <point x="387" y="-167"/>
      <point x="363" y="-189"/>
      <point x="302" y="-189" type="curve" smooth="yes"/>
      <point x="224" y="-189"/>
      <point x="182" y="-141"/>
      <point x="170" y="-126" type="curve"/>
      <point x="106" y="-126" type="line"/>
      <point x="125" y="-171"/>
      <point x="185" y="-269"/>
      <point x="327" y="-269" type="curve" smooth="yes"/>
      <point x="436" y="-269"/>
      <point x="523" y="-216"/>
    </contour>
  </outline>
</glyph>
<glyph name="uni17AE" format="2">
  <advance width="671"/>
  <unicode hex="17AE"/>
  <note>
uni17AE
</note>
  <anchor x="307" y="760" name="abvm"/>
  <anchor x="319" y="0" name="blwm"/>
  <outline>
    <contour>
      <point x="89" y="309" type="line"/>
      <point x="239" y="309" type="line"/>
      <point x="239" y="444" type="line"/>
      <point x="171" y="507"/>
      <point x="159" y="521"/>
      <point x="159" y="533" type="curve" smooth="yes"/>
      <point x="159" y="538"/>
      <point x="161" y="541"/>
      <point x="163" y="544" type="curve" smooth="yes"/>
      <point x="165" y="548"/>
      <point x="169" y="549"/>
      <point x="172" y="549" type="curve" smooth="yes"/>
      <point x="191" y="549"/>
      <point x="240" y="479"/>
      <point x="273" y="479" type="curve" smooth="yes"/>
      <point x="302" y="479"/>
      <point x="358" y="533"/>
      <point x="385" y="533" type="curve" smooth="yes"/>
      <point x="397" y="533"/>
      <point x="416" y="521"/>
      <point x="416" y="464" type="curve" smooth="yes"/>
      <point x="416" y="0" type="line"/>
      <point x="566" y="0" type="line"/>
      <point x="566" y="521" type="line" smooth="yes"/>
      <point x="566" y="602"/>
      <point x="507" y="682"/>
      <point x="453" y="682" type="curve" smooth="yes"/>
      <point x="427" y="682"/>
      <point x="391" y="664"/>
      <point x="363" y="643" type="curve" smooth="yes"/>
      <point x="341" y="627"/>
      <point x="318" y="604"/>
      <point x="306" y="604" type="curve" smooth="yes"/>
      <point x="295" y="604"/>
      <point x="274" y="626"/>
      <point x="253" y="647" type="curve" smooth="yes"/>
      <point x="239" y="661"/>
      <point x="218" y="682"/>
      <point x="201" y="682" type="curve" smooth="yes"/>
      <point x="181" y="682"/>
      <point x="143" y="660"/>
      <point x="109" y="627" type="curve" smooth="yes"/>
      <point x="75" y="594"/>
      <point x="48" y="554"/>
      <point x="48" y="528" type="curve" smooth="yes"/>
      <point x="48" y="510"/>
      <point x="61" y="484"/>
      <point x="89" y="450" type="curve"/>
    </contour>
    <contour>
      <point x="89" y="317" type="line"/>
      <point x="89" y="0" type="line"/>
      <point x="239" y="0" type="line"/>
      <point x="307" y="46"/>
      <point x="351" y="100"/>
      <point x="351" y="169" type="curve" smooth="yes"/>
      <point x="351" y="240"/>
      <point x="309" y="280"/>
      <point x="239" y="275" type="curve"/>
      <point x="239" y="317" type="line"/>
    </contour>
    <contour>
      <point x="239" y="186" type="line"/>
      <point x="254" y="185"/>
      <point x="267" y="179"/>
      <point x="267" y="154" type="curve" smooth="yes"/>
      <point x="267" y="138"/>
      <point x="262" y="118"/>
      <point x="239" y="102" type="curve"/>
    </contour>
    <contour>
      <point x="416" y="-226" type="line"/>
      <point x="433" y="-246"/>
      <point x="461" y="-269"/>
      <point x="506" y="-269" type="curve" smooth="yes"/>
      <point x="572" y="-269"/>
      <point x="609" y="-218"/>
      <point x="599" y="-186" type="curve"/>
      <point x="546" y="-186"/>
      <point x="510" y="-178"/>
      <point x="502" y="-153" type="curve"/>
    </contour>
    <contour>
      <point x="510" y="-126" type="curve" smooth="yes"/>
      <point x="510" y="-77"/>
      <point x="483" y="-35"/>
      <point x="426" y="-35" type="curve" smooth="yes"/>
      <point x="375" y="-35"/>
      <point x="341" y="-68"/>
      <point x="341" y="-114" type="curve"/>
      <point x="367" y="-114"/>
      <point x="374" y="-130"/>
      <point x="374" y="-143" type="curve" smooth="yes"/>
      <point x="374" y="-167"/>
      <point x="350" y="-189"/>
      <point x="289" y="-189" type="curve" smooth="yes"/>
      <point x="211" y="-189"/>
      <point x="169" y="-141"/>
      <point x="157" y="-126" type="curve"/>
      <point x="93" y="-126" type="line"/>
      <point x="112" y="-171"/>
      <point x="172" y="-269"/>
      <point x="314" y="-269" type="curve" smooth="yes"/>
      <point x="423" y="-269"/>
      <point x="510" y="-216"/>
    </contour>
  </outline>
</glyph>
<glyph name="uni17AF" format="2">
  <advance width="685"/>
  <unicode hex="17AF"/>
  <note>
uni17AF
</note>
  <outline>
    <contour>
      <point x="283" y="178" type="line"/>
      <point x="133" y="178" type="line"/>
      <point x="133" y="0" type="line"/>
      <point x="277" y="0" type="line"/>
      <point x="364" y="56" type="line"/>
      <point x="451" y="0" type="line"/>
      <point x="595" y="0" type="line"/>
      <point x="595" y="514" type="line" smooth="yes"/>
      <point x="595" y="550"/>
      <point x="580" y="577"/>
      <point x="555" y="598" type="curve" smooth="yes"/>
      <point x="482" y="661" type="line" smooth="yes"/>
      <point x="441" y="697"/>
      <point x="407" y="702"/>
      <point x="383" y="702" type="curve" smooth="yes"/>
      <point x="336" y="702"/>
      <point x="304" y="683"/>
      <point x="283" y="656" type="curve"/>
      <point x="283" y="713"/>
      <point x="293" y="718"/>
      <point x="293" y="755" type="curve" smooth="yes"/>
      <point x="293" y="823"/>
      <point x="256" y="854"/>
      <point x="204" y="854" type="curve" smooth="yes"/>
      <point x="143" y="854"/>
      <point x="113" y="810"/>
      <point x="113" y="777" type="curve"/>
      <point x="141" y="765"/>
      <point x="149" y="753"/>
      <point x="149" y="724" type="curve" smooth="yes"/>
      <point x="149" y="686"/>
      <point x="135" y="678"/>
      <point x="135" y="629" type="curve" smooth="yes"/>
      <point x="135" y="552"/>
      <point x="169" y="527"/>
      <point x="211" y="527" type="curve" smooth="yes"/>
      <point x="280" y="527"/>
      <point x="289" y="596"/>
      <point x="349" y="596" type="curve" smooth="yes"/>
      <point x="388" y="596"/>
      <point x="411" y="566"/>
      <point x="445" y="519" type="curve"/>
      <point x="445" y="117" type="line"/>
      <point x="364" y="169" type="line"/>
      <point x="283" y="117" type="line"/>
    </contour>
    <contour>
      <point x="283" y="142" type="line"/>
      <point x="283" y="345" type="line" smooth="yes"/>
      <point x="283" y="409"/>
      <point x="259" y="438"/>
      <point x="190" y="438" type="curve" smooth="yes"/>
      <point x="87" y="438"/>
      <point x="30" y="374"/>
      <point x="30" y="293" type="curve" smooth="yes"/>
      <point x="30" y="184"/>
      <point x="127" y="173"/>
      <point x="133" y="173" type="curve"/>
      <point x="133" y="142" type="line"/>
    </contour>
    <contour>
      <point x="133" y="263" type="line"/>
      <point x="117" y="267"/>
      <point x="106" y="281"/>
      <point x="106" y="303" type="curve" smooth="yes"/>
      <point x="106" y="326"/>
      <point x="118" y="341"/>
      <point x="133" y="351" type="curve"/>
    </contour>
  </outline>
</glyph>
<glyph name="uni17B0" format="2">
  <advance width="666"/>
  <unicode hex="17B0"/>
  <note>
uni17B0
</note>
  <anchor x="307" y="760" name="abvm"/>
  <anchor x="373" y="-258" name="blwm"/>
  <outline>
    <contour>
      <point x="416" y="27" type="line"/>
      <point x="416" y="-22" type="line"/>
      <point x="566" y="-43" type="line"/>
      <point x="566" y="27" type="line"/>
    </contour>
    <contour>
      <point x="89" y="309" type="line"/>
      <point x="239" y="309" type="line"/>
      <point x="239" y="444" type="line"/>
      <point x="171" y="507"/>
      <point x="159" y="521"/>
      <point x="159" y="533" type="curve" smooth="yes"/>
      <point x="159" y="538"/>
      <point x="161" y="541"/>
      <point x="163" y="544" type="curve" smooth="yes"/>
      <point x="165" y="548"/>
      <point x="169" y="549"/>
      <point x="172" y="549" type="curve" smooth="yes"/>
      <point x="191" y="549"/>
      <point x="240" y="479"/>
      <point x="273" y="479" type="curve" smooth="yes"/>
      <point x="302" y="479"/>
      <point x="358" y="533"/>
      <point x="385" y="533" type="curve" smooth="yes"/>
      <point x="397" y="533"/>
      <point x="416" y="521"/>
      <point x="416" y="464" type="curve" smooth="yes"/>
      <point x="416" y="0" type="line"/>
      <point x="566" y="0" type="line"/>
      <point x="566" y="521" type="line" smooth="yes"/>
      <point x="566" y="602"/>
      <point x="507" y="682"/>
      <point x="453" y="682" type="curve" smooth="yes"/>
      <point x="427" y="682"/>
      <point x="391" y="664"/>
      <point x="363" y="643" type="curve" smooth="yes"/>
      <point x="341" y="627"/>
      <point x="318" y="604"/>
      <point x="306" y="604" type="curve" smooth="yes"/>
      <point x="295" y="604"/>
      <point x="274" y="626"/>
      <point x="253" y="647" type="curve" smooth="yes"/>
      <point x="239" y="661"/>
      <point x="218" y="682"/>
      <point x="201" y="682" type="curve" smooth="yes"/>
      <point x="181" y="682"/>
      <point x="143" y="660"/>
      <point x="109" y="627" type="curve" smooth="yes"/>
      <point x="75" y="594"/>
      <point x="48" y="554"/>
      <point x="48" y="528" type="curve" smooth="yes"/>
      <point x="48" y="510"/>
      <point x="61" y="484"/>
      <point x="89" y="450" type="curve"/>
    </contour>
    <contour>
      <point x="89" y="317" type="line"/>
      <point x="89" y="0" type="line"/>
      <point x="239" y="0" type="line"/>
      <point x="307" y="46"/>
      <point x="351" y="100"/>
      <point x="351" y="169" type="curve" smooth="yes"/>
      <point x="351" y="240"/>
      <point x="309" y="280"/>
      <point x="239" y="275" type="curve"/>
      <point x="239" y="317" type="line"/>
    </contour>
    <contour>
      <point x="239" y="186" type="line"/>
      <point x="254" y="185"/>
      <point x="267" y="179"/>
      <point x="267" y="154" type="curve" smooth="yes"/>
      <point x="267" y="138"/>
      <point x="262" y="118"/>
      <point x="239" y="102" type="curve"/>
    </contour>
    <contour>
      <point x="171" y="-155" type="curve" smooth="yes"/>
      <point x="171" y="-197"/>
      <point x="200" y="-259"/>
      <point x="274" y="-259" type="curve" smooth="yes"/>
      <point x="365" y="-259"/>
      <point x="399" y="-167"/>
      <point x="399" y="-76" type="curve"/>
      <point x="336" y="-100" type="line"/>
      <point x="336" y="-159"/>
      <point x="317" y="-189"/>
      <point x="297" y="-189" type="curve" smooth="yes"/>
      <point x="284" y="-189"/>
      <point x="273" y="-176"/>
      <point x="273" y="-159" type="curve"/>
      <point x="301" y="-148"/>
      <point x="316" y="-136"/>
      <point x="359" y="-110" type="curve" smooth="yes"/>
      <point x="398" y="-86"/>
      <point x="451" y="-50"/>
      <point x="451" y="-14" type="curve" smooth="yes"/>
      <point x="451" y="8"/>
      <point x="430" y="21"/>
      <point x="405" y="21" type="curve" smooth="yes"/>
      <point x="382" y="21"/>
      <point x="361" y="10"/>
      <point x="354" y="-5" type="curve"/>
      <point x="359" y="-9"/>
      <point x="361" y="-12"/>
      <point x="361" y="-17" type="curve" smooth="yes"/>
      <point x="361" y="-51"/>
      <point x="280" y="-93"/>
      <point x="207" y="-105" type="curve" smooth="yes"/>
      <point x="179" y="-110"/>
      <point x="171" y="-134"/>
    </contour>
    <contour>
      <point x="336" y="-90" type="line"/>
      <point x="341" y="-116"/>
      <point x="363" y="-183"/>
      <point x="433" y="-183" type="curve" smooth="yes"/>
      <point x="501" y="-183"/>
      <point x="566" y="-119"/>
      <point x="566" y="-43" type="curve" smooth="yes"/>
      <point x="566" y="-13"/>
      <point x="556" y="21"/>
      <point x="510" y="21" type="curve" smooth="yes"/>
      <point x="470" y="21"/>
      <point x="450" y="-5"/>
      <point x="441" y="-23" type="curve"/>
      <point x="451" y="-32"/>
      <point x="456" y="-44"/>
      <point x="456" y="-62" type="curve" smooth="yes"/>
      <point x="456" y="-87"/>
      <point x="446" y="-106"/>
      <point x="428" y="-106" type="curve" smooth="yes"/>
      <point x="415" y="-106"/>
      <point x="402" y="-96"/>
      <point x="398" y="-69" type="curve"/>
    </contour>
  </outline>
</glyph>
<glyph name="uni17B1" format="2">
  <advance width="632"/>
  <unicode hex="17B1"/>
  <note>
uni17B1
</note>
  <anchor x="303" y="1046" name="abvm"/>
  <anchor x="312" y="-49" name="blwm"/>
  <outline>
    <contour>
      <point x="79" y="529" type="line"/>
      <point x="229" y="530" type="line"/>
      <point x="229" y="532" type="line" smooth="yes"/>
      <point x="229" y="568"/>
      <point x="254" y="580"/>
      <point x="308" y="580" type="curve" smooth="yes"/>
      <point x="365" y="580"/>
      <point x="389" y="566"/>
      <point x="389" y="505" type="curve" smooth="yes"/>
      <point x="389" y="463" type="line" smooth="yes"/>
      <point x="389" y="415"/>
      <point x="362" y="372"/>
      <point x="308" y="338" type="curve" smooth="yes"/>
      <point x="79" y="197" type="line"/>
      <point x="79" y="122" type="line" smooth="yes"/>
      <point x="79" y="36"/>
      <point x="139" y="0"/>
      <point x="199" y="0" type="curve" smooth="yes"/>
      <point x="246" y="0"/>
      <point x="281" y="22"/>
      <point x="319" y="53" type="curve" smooth="yes"/>
      <point x="365" y="89"/>
      <point x="377" y="98"/>
      <point x="389" y="98" type="curve"/>
      <point x="389" y="71" type="line" smooth="yes"/>
      <point x="389" y="35"/>
      <point x="378" y="21"/>
      <point x="361" y="10" type="curve"/>
      <point x="361" y="-13"/>
      <point x="387" y="-49"/>
      <point x="441" y="-49" type="curve" smooth="yes"/>
      <point x="507" y="-49"/>
      <point x="537" y="6"/>
      <point x="537" y="54" type="curve" smooth="yes"/>
      <point x="537" y="279" type="line"/>
      <point x="389" y="235" type="line"/>
      <point x="389" y="209" type="line"/>
      <point x="357" y="203"/>
      <point x="337" y="188"/>
      <point x="309" y="161" type="curve" smooth="yes"/>
      <point x="275" y="129"/>
      <point x="262" y="111"/>
      <point x="247" y="111" type="curve" smooth="yes"/>
      <point x="239" y="111"/>
      <point x="227" y="116"/>
      <point x="227" y="151" type="curve" smooth="yes"/>
      <point x="227" y="165" type="line"/>
      <point x="347" y="239" type="line" smooth="yes"/>
      <point x="476" y="318"/>
      <point x="537" y="420"/>
      <point x="537" y="463" type="curve" smooth="yes"/>
      <point x="537" y="536" type="line" smooth="yes"/>
      <point x="537" y="621"/>
      <point x="450" y="682"/>
      <point x="309" y="682" type="curve" smooth="yes"/>
      <point x="170" y="682"/>
      <point x="79" y="623"/>
      <point x="79" y="536" type="curve" smooth="yes"/>
    </contour>
    <contour>
      <point x="229" y="533" type="line"/>
      <point x="79" y="533" type="line"/>
      <point x="79" y="427" type="line" smooth="yes"/>
      <point x="79" y="384"/>
      <point x="116" y="355"/>
      <point x="197" y="355" type="curve" smooth="yes"/>
      <point x="271" y="355"/>
      <point x="317" y="381"/>
      <point x="317" y="451" type="curve" smooth="yes"/>
      <point x="317" y="489"/>
      <point x="302" y="529"/>
      <point x="229" y="529" type="curve"/>
    </contour>
    <contour>
      <point x="229" y="471" type="line"/>
      <point x="242" y="471"/>
      <point x="251" y="466"/>
      <point x="251" y="446" type="curve" smooth="yes"/>
      <point x="251" y="429"/>
      <point x="244" y="421"/>
      <point x="229" y="421" type="curve"/>
    </contour>
    <contour>
      <point x="234" y="729" type="line"/>
      <point x="205" y="750"/>
      <point x="191" y="771"/>
      <point x="191" y="795" type="curve" smooth="yes"/>
      <point x="191" y="839"/>
      <point x="237" y="868"/>
      <point x="306" y="868" type="curve" smooth="yes"/>
      <point x="440" y="868"/>
      <point x="475" y="763"/>
      <point x="475" y="694" type="curve"/>
      <point x="509" y="717"/>
      <point x="541" y="756"/>
      <point x="541" y="815" type="curve" smooth="yes"/>
      <point x="541" y="927"/>
      <point x="431" y="990"/>
      <point x="312" y="990" type="curve" smooth="yes"/>
      <point x="170" y="990"/>
      <point x="91" y="896"/>
      <point x="91" y="805" type="curve" smooth="yes"/>
      <point x="91" y="743"/>
      <point x="125" y="707"/>
      <point x="155" y="685" type="curve"/>
    </contour>
  </outline>
</glyph>
<glyph name="uni17B2" format="2">
  <advance width="616"/>
  <unicode hex="17B2"/>
  <note>
uni17B2
</note>
  <outline>
    <contour>
      <point x="337" y="169" type="line"/>
      <point x="458" y="256"/>
      <point x="547" y="328"/>
      <point x="547" y="433" type="curve" smooth="yes"/>
      <point x="547" y="522"/>
      <point x="482" y="568"/>
      <point x="396" y="568" type="curve" smooth="yes"/>
      <point x="303" y="568"/>
      <point x="250" y="517"/>
      <point x="250" y="442" type="curve" smooth="yes"/>
      <point x="250" y="392"/>
      <point x="270" y="348"/>
      <point x="319" y="348" type="curve" smooth="yes"/>
      <point x="337" y="348"/>
      <point x="366" y="354"/>
      <point x="371" y="410" type="curve"/>
      <point x="341" y="410"/>
      <point x="333" y="432"/>
      <point x="333" y="447" type="curve" smooth="yes"/>
      <point x="333" y="472"/>
      <point x="353" y="484"/>
      <point x="372" y="484" type="curve" smooth="yes"/>
      <point x="393" y="484"/>
      <point x="418" y="469"/>
      <point x="418" y="431" type="curve" smooth="yes"/>
      <point x="418" y="378"/>
      <point x="372" y="331"/>
      <point x="281" y="257" type="curve"/>
    </contour>
    <contour>
      <point x="466" y="277" type="curve"/>
      <point x="367" y="199" type="line"/>
      <point x="388" y="192"/>
      <point x="389" y="182"/>
      <point x="389" y="163" type="curve" smooth="yes"/>
      <point x="389" y="152" type="line" smooth="yes"/>
      <point x="389" y="133"/>
      <point x="373" y="102"/>
      <point x="314" y="102" type="curve" smooth="yes"/>
      <point x="256" y="102"/>
      <point x="217" y="132"/>
      <point x="217" y="186" type="curve" smooth="yes"/>
      <point x="217" y="560" type="line" smooth="yes"/>
      <point x="217" y="612"/>
      <point x="251" y="632"/>
      <point x="315" y="632" type="curve" smooth="yes"/>
      <point x="354" y="632"/>
      <point x="384" y="624"/>
      <point x="397" y="596" type="curve"/>
      <point x="537" y="635" type="line"/>
      <point x="482" y="708"/>
      <point x="425" y="734"/>
      <point x="315" y="734" type="curve" smooth="yes"/>
      <point x="137" y="734"/>
      <point x="67" y="652"/>
      <point x="67" y="546" type="curve" smooth="yes"/>
      <point x="67" y="156" type="line" smooth="yes"/>
      <point x="67" y="58"/>
      <point x="169" y="0"/>
      <point x="310" y="0" type="curve" smooth="yes"/>
      <point x="475" y="0"/>
      <point x="539" y="82"/>
      <point x="539" y="146" type="curve" smooth="yes"/>
      <point x="539" y="190" type="line" smooth="yes"/>
      <point x="539" y="230"/>
      <point x="513" y="271"/>
    </contour>
  </outline>
</glyph>
<glyph name="uni17B3" format="2">
  <advance width="616"/>
  <unicode hex="17B3"/>
  <note>
uni17B3
</note>
  <anchor x="300" y="1081" name="abvm"/>
  <anchor x="312" y="-49" name="blwm"/>
  <outline>
    <contour>
      <point x="79" y="529" type="line"/>
      <point x="229" y="530" type="line"/>
      <point x="229" y="532" type="line" smooth="yes"/>
      <point x="229" y="568"/>
      <point x="254" y="580"/>
      <point x="308" y="580" type="curve" smooth="yes"/>
      <point x="365" y="580"/>
      <point x="389" y="566"/>
      <point x="389" y="505" type="curve" smooth="yes"/>
      <point x="389" y="463" type="line" smooth="yes"/>
      <point x="389" y="415"/>
      <point x="362" y="372"/>
      <point x="308" y="338" type="curve" smooth="yes"/>
      <point x="79" y="197" type="line"/>
      <point x="79" y="122" type="line" smooth="yes"/>
      <point x="79" y="36"/>
      <point x="139" y="0"/>
      <point x="199" y="0" type="curve" smooth="yes"/>
      <point x="246" y="0"/>
      <point x="281" y="22"/>
      <point x="319" y="53" type="curve" smooth="yes"/>
      <point x="365" y="89"/>
      <point x="377" y="98"/>
      <point x="389" y="98" type="curve"/>
      <point x="389" y="71" type="line" smooth="yes"/>
      <point x="389" y="35"/>
      <point x="378" y="21"/>
      <point x="361" y="10" type="curve"/>
      <point x="361" y="-13"/>
      <point x="387" y="-49"/>
      <point x="441" y="-49" type="curve" smooth="yes"/>
      <point x="507" y="-49"/>
      <point x="537" y="6"/>
      <point x="537" y="54" type="curve" smooth="yes"/>
      <point x="537" y="279" type="line"/>
      <point x="389" y="235" type="line"/>
      <point x="389" y="209" type="line"/>
      <point x="357" y="203"/>
      <point x="337" y="188"/>
      <point x="309" y="161" type="curve" smooth="yes"/>
      <point x="275" y="129"/>
      <point x="262" y="111"/>
      <point x="247" y="111" type="curve" smooth="yes"/>
      <point x="239" y="111"/>
      <point x="227" y="116"/>
      <point x="227" y="151" type="curve" smooth="yes"/>
      <point x="227" y="165" type="line"/>
      <point x="347" y="239" type="line" smooth="yes"/>
      <point x="476" y="318"/>
      <point x="537" y="420"/>
      <point x="537" y="463" type="curve" smooth="yes"/>
      <point x="537" y="536" type="line" smooth="yes"/>
      <point x="537" y="621"/>
      <point x="450" y="682"/>
      <point x="309" y="682" type="curve" smooth="yes"/>
      <point x="170" y="682"/>
      <point x="79" y="623"/>
      <point x="79" y="536" type="curve" smooth="yes"/>
    </contour>
    <contour>
      <point x="229" y="533" type="line"/>
      <point x="79" y="533" type="line"/>
      <point x="79" y="427" type="line" smooth="yes"/>
      <point x="79" y="384"/>
      <point x="116" y="355"/>
      <point x="197" y="355" type="curve" smooth="yes"/>
      <point x="271" y="355"/>
      <point x="317" y="381"/>
      <point x="317" y="451" type="curve" smooth="yes"/>
      <point x="317" y="489"/>
      <point x="302" y="529"/>
      <point x="229" y="529" type="curve"/>
    </contour>
    <contour>
      <point x="229" y="471" type="line"/>
      <point x="242" y="471"/>
      <point x="251" y="466"/>
      <point x="251" y="446" type="curve" smooth="yes"/>
      <point x="251" y="429"/>
      <point x="244" y="421"/>
      <point x="229" y="421" type="curve"/>
    </contour>
    <contour>
      <point x="542" y="880" type="curve" smooth="yes"/>
      <point x="542" y="986"/>
      <point x="506" y="1098"/>
      <point x="434" y="1098" type="curve" smooth="yes"/>
      <point x="391" y="1098"/>
      <point x="368" y="1057"/>
      <point x="368" y="1018" type="curve"/>
      <point x="395" y="1014"/>
      <point x="418" y="996"/>
      <point x="431" y="962" type="curve"/>
      <point x="393" y="981"/>
      <point x="348" y="990"/>
      <point x="302" y="990" type="curve" smooth="yes"/>
      <point x="160" y="990"/>
      <point x="81" y="896"/>
      <point x="81" y="805" type="curve" smooth="yes"/>
      <point x="81" y="743"/>
      <point x="115" y="707"/>
      <point x="145" y="685" type="curve"/>
      <point x="224" y="729" type="line"/>
      <point x="195" y="750"/>
      <point x="181" y="771"/>
      <point x="181" y="795" type="curve" smooth="yes"/>
      <point x="181" y="839"/>
      <point x="227" y="868"/>
      <point x="296" y="868" type="curve" smooth="yes"/>
      <point x="430" y="868"/>
      <point x="465" y="763"/>
      <point x="465" y="694" type="curve"/>
      <point x="518" y="736"/>
      <point x="542" y="797"/>
    </contour>
  </outline>
</glyph>
<glyph name="uni17B5" format="2">
  <advance width="327"/>
  <unicode hex="17B5"/>
  <anchor x="69" y="740" name="abvm_a"/>
  <anchor x="69" y="740" name="abvm_high"/>
  <anchor x="4" y="0" name="blwm_a"/>
  <outline>
    <contour>
      <point x="-71" y="526" type="curve"/>
      <point x="-58" y="553"/>
      <point x="-38" y="565"/>
      <point x="-19" y="565" type="curve" smooth="yes"/>
      <point x="-3" y="565"/>
      <point x="13" y="556"/>
      <point x="33" y="537" type="curve" smooth="yes"/>
      <point x="77" y="497" type="line"/>
      <point x="77" y="0" type="line"/>
      <point x="227" y="0" type="line"/>
      <point x="227" y="501" type="line" smooth="yes"/>
      <point x="227" y="532"/>
      <point x="215" y="556"/>
      <point x="193" y="576" type="curve" smooth="yes"/>
      <point x="130" y="633" type="line" smooth="yes"/>
      <point x="89" y="670"/>
      <point x="64" y="682"/>
      <point x="23" y="682" type="curve" smooth="yes"/>
      <point x="-8" y="682"/>
      <point x="-38" y="676"/>
      <point x="-70" y="652" type="curve" smooth="yes"/>
      <point x="-90" y="637"/>
      <point x="-106" y="618"/>
      <point x="-106" y="590" type="curve" smooth="yes"/>
      <point x="-106" y="571"/>
      <point x="-99" y="551"/>
    </contour>
  </outline>
</glyph>
<glyph name="uni17B6" format="2">
  <advance width="327"/>
  <unicode hex="17B6"/>
  <note>
uni17B6
</note>
  <anchor x="69" y="740" name="abvm_a"/>
  <anchor x="69" y="740" name="abvm_high"/>
  <anchor x="4" y="0" name="blwm_a"/>
  <outline>
    <contour>
      <point x="-71" y="526" type="curve"/>
      <point x="-58" y="553"/>
      <point x="-38" y="565"/>
      <point x="-19" y="565" type="curve" smooth="yes"/>
      <point x="-3" y="565"/>
      <point x="13" y="556"/>
      <point x="33" y="537" type="curve" smooth="yes"/>
      <point x="77" y="497" type="line"/>
      <point x="77" y="0" type="line"/>
      <point x="227" y="0" type="line"/>
      <point x="227" y="501" type="line" smooth="yes"/>
      <point x="227" y="532"/>
      <point x="215" y="556"/>
      <point x="193" y="576" type="curve" smooth="yes"/>
      <point x="130" y="633" type="line" smooth="yes"/>
      <point x="89" y="670"/>
      <point x="64" y="682"/>
      <point x="23" y="682" type="curve" smooth="yes"/>
      <point x="-8" y="682"/>
      <point x="-38" y="676"/>
      <point x="-70" y="652" type="curve" smooth="yes"/>
      <point x="-90" y="637"/>
      <point x="-106" y="618"/>
      <point x="-106" y="590" type="curve" smooth="yes"/>
      <point x="-106" y="571"/>
      <point x="-99" y="551"/>
    </contour>
  </outline>
</glyph>
<glyph name="uni17B8" format="2">
  <unicode hex="17B8"/>
  <note>
uni17B8
</note>
  <anchor x="-353" y="854" name="_abvm"/>
  <anchor x="-353" y="1190" name="abvm"/>
  <outline>
    <contour>
      <point x="-169" y="913" type="line"/>
      <point x="-169" y="1142" type="line"/>
      <point x="-265" y="1142" type="line"/>
      <point x="-265" y="913" type="line"/>
    </contour>
    <contour>
      <point x="-537" y="942" type="curve" smooth="yes"/>
      <point x="-537" y="878"/>
      <point x="-504" y="854"/>
      <point x="-438" y="854" type="curve" smooth="yes"/>
      <point x="-210" y="854" type="line" smooth="yes"/>
      <point x="-182" y="854"/>
      <point x="-169" y="878"/>
      <point x="-169" y="910" type="curve" smooth="yes"/>
      <point x="-169" y="939"/>
      <point x="-180" y="963"/>
      <point x="-212" y="993" type="curve" smooth="yes"/>
      <point x="-273" y="1050"/>
      <point x="-333" y="1064"/>
      <point x="-387" y="1064" type="curve" smooth="yes"/>
      <point x="-485" y="1064"/>
      <point x="-537" y="1020"/>
    </contour>
    <contour>
      <point x="-434" y="933" type="line"/>
      <point x="-434" y="954"/>
      <point x="-417" y="968"/>
      <point x="-384" y="968" type="curve" smooth="yes"/>
      <point x="-344" y="968"/>
      <point x="-308" y="947"/>
      <point x="-297" y="933" type="curve"/>
    </contour>
  </outline>
</glyph>
<glyph name="uni17BA" format="2">
  <unicode hex="17BA"/>
  <note>
uni17BA
</note>
  <anchor x="-353" y="854" name="_abvm"/>
  <anchor x="-353" y="1170" name="abvm"/>
  <outline>
    <contour>
      <point x="-286" y="1030" type="line"/>
      <point x="-286" y="1123" type="line"/>
      <point x="-376" y="1123" type="line"/>
      <point x="-376" y="1030" type="line"/>
    </contour>
    <contour>
      <point x="-169" y="910" type="line"/>
      <point x="-169" y="1092" type="line"/>
      <point x="-259" y="1092" type="line"/>
      <point x="-259" y="910" type="line"/>
    </contour>
    <contour>
      <point x="-537" y="942" type="curve" smooth="yes"/>
      <point x="-537" y="878"/>
      <point x="-504" y="854"/>
      <point x="-438" y="854" type="curve" smooth="yes"/>
      <point x="-210" y="854" type="line" smooth="yes"/>
      <point x="-182" y="854"/>
      <point x="-169" y="878"/>
      <point x="-169" y="910" type="curve" smooth="yes"/>
      <point x="-169" y="939"/>
      <point x="-180" y="963"/>
      <point x="-212" y="993" type="curve" smooth="yes"/>
      <point x="-273" y="1050"/>
      <point x="-333" y="1064"/>
      <point x="-387" y="1064" type="curve" smooth="yes"/>
      <point x="-485" y="1064"/>
      <point x="-537" y="1020"/>
    </contour>
    <contour>
      <point x="-434" y="933" type="line"/>
      <point x="-434" y="954"/>
      <point x="-417" y="968"/>
      <point x="-384" y="968" type="curve" smooth="yes"/>
      <point x="-344" y="968"/>
      <point x="-308" y="947"/>
      <point x="-297" y="933" type="curve"/>
    </contour>
  </outline>
</glyph>
<glyph name="uni17BB" format="2">
  <unicode hex="17BB"/>
  <note>
uni17BB
</note>
  <anchor x="-197" y="16" name="_blwm"/>
  <outline>
    <contour>
      <point x="-192" y="-49" type="curve" smooth="yes"/>
      <point x="-238" y="-49"/>
      <point x="-270" y="-74"/>
      <point x="-270" y="-121" type="curve" smooth="yes"/>
      <point x="-270" y="-155"/>
      <point x="-253" y="-172"/>
      <point x="-237" y="-180" type="curve"/>
      <point x="-237" y="-267" type="line"/>
      <point x="-119" y="-267" type="line"/>
      <point x="-119" y="-120" type="line" smooth="yes"/>
      <point x="-119" y="-74"/>
      <point x="-147" y="-49"/>
    </contour>
  </outline>
</glyph>
<glyph name="uni17BC" format="2">
  <unicode hex="17BC"/>
  <note>
uni17BC
</note>
  <anchor x="-197" y="16" name="_blwm"/>
  <outline>
    <contour>
      <point x="-230" y="-291" type="curve" smooth="yes"/>
      <point x="-79" y="-291"/>
      <point x="-41" y="-152"/>
      <point x="-41" y="-98" type="curve" smooth="yes"/>
      <point x="-41" y="-76"/>
      <point x="-47" y="-48"/>
      <point x="-89" y="-48" type="curve" smooth="yes"/>
      <point x="-123" y="-48"/>
      <point x="-144" y="-66"/>
      <point x="-167" y="-144" type="curve" smooth="yes"/>
      <point x="-178" y="-181"/>
      <point x="-184" y="-203"/>
      <point x="-209" y="-203" type="curve" smooth="yes"/>
      <point x="-232" y="-203"/>
      <point x="-239" y="-185"/>
      <point x="-230" y="-155" type="curve" smooth="yes"/>
      <point x="-224" y="-135"/>
      <point x="-221" y="-120"/>
      <point x="-221" y="-103" type="curve" smooth="yes"/>
      <point x="-221" y="-63"/>
      <point x="-238" y="-48"/>
      <point x="-277" y="-48" type="curve" smooth="yes"/>
      <point x="-330" y="-48"/>
      <point x="-357" y="-81"/>
      <point x="-357" y="-119" type="curve" smooth="yes"/>
      <point x="-357" y="-147"/>
      <point x="-342" y="-167"/>
      <point x="-332" y="-167" type="curve"/>
      <point x="-335" y="-176" type="line" smooth="yes"/>
      <point x="-338" y="-185"/>
      <point x="-344" y="-203"/>
      <point x="-344" y="-215" type="curve" smooth="yes"/>
      <point x="-344" y="-263"/>
      <point x="-292" y="-291"/>
    </contour>
  </outline>
</glyph>
<glyph name="uni17BD" format="2">
  <unicode hex="17BD"/>
  <note>
uni17BD
</note>
  <anchor x="-197" y="16" name="_blwm"/>
  <outline>
    <contour>
      <point x="-370" y="-256" type="curve" smooth="yes"/>
      <point x="-370" y="-301"/>
      <point x="-338" y="-323"/>
      <point x="-297" y="-323" type="curve" smooth="yes"/>
      <point x="-267" y="-323"/>
      <point x="-242" y="-311"/>
      <point x="-217" y="-288" type="curve"/>
      <point x="-204" y="-308"/>
      <point x="-182" y="-323"/>
      <point x="-152" y="-323" type="curve" smooth="yes"/>
      <point x="-51" y="-323"/>
      <point x="-27" y="-152"/>
      <point x="-27" y="-112" type="curve" smooth="yes"/>
      <point x="-27" y="-52"/>
      <point x="-82" y="-33"/>
      <point x="-152" y="-56" type="curve"/>
      <point x="-139" y="-95"/>
      <point x="-128" y="-132"/>
      <point x="-139" y="-177" type="curve" smooth="yes"/>
      <point x="-149" y="-218"/>
      <point x="-165" y="-223"/>
      <point x="-173" y="-223" type="curve" smooth="yes"/>
      <point x="-187" y="-223"/>
      <point x="-193" y="-210"/>
      <point x="-197" y="-195" type="curve"/>
      <point x="-214" y="-213"/>
      <point x="-228" y="-222"/>
      <point x="-238" y="-222" type="curve" smooth="yes"/>
      <point x="-254" y="-222"/>
      <point x="-255" y="-201"/>
      <point x="-247" y="-178" type="curve" smooth="yes"/>
      <point x="-233" y="-138"/>
      <point x="-229" y="-124"/>
      <point x="-229" y="-107" type="curve" smooth="yes"/>
      <point x="-229" y="-66"/>
      <point x="-250" y="-46"/>
      <point x="-292" y="-46" type="curve" smooth="yes"/>
      <point x="-342" y="-46"/>
      <point x="-371" y="-71"/>
      <point x="-371" y="-107" type="curve" smooth="yes"/>
      <point x="-371" y="-134"/>
      <point x="-355" y="-153"/>
      <point x="-342" y="-153" type="curve"/>
      <point x="-347" y="-165" type="line" smooth="yes"/>
      <point x="-364" y="-205"/>
      <point x="-370" y="-235"/>
    </contour>
  </outline>
</glyph>
<glyph name="uni17BE" format="2">
  <unicode hex="17BE"/>
  <note>
uni17BE
</note>
  <anchor x="622" y="736" name="_abvm"/>
  <anchor x="659" y="645" name="abvm"/>
  <anchor x="659" y="45" name="blwm"/>
  <outline>
    <contour>
      <point x="806" y="795" type="line"/>
      <point x="806" y="1024" type="line"/>
      <point x="710" y="1024" type="line"/>
      <point x="710" y="795" type="line"/>
    </contour>
    <contour>
      <point x="438" y="824" type="curve" smooth="yes"/>
      <point x="438" y="760"/>
      <point x="471" y="736"/>
      <point x="537" y="736" type="curve" smooth="yes"/>
      <point x="765" y="736" type="line" smooth="yes"/>
      <point x="793" y="736"/>
      <point x="806" y="760"/>
      <point x="806" y="792" type="curve" smooth="yes"/>
      <point x="806" y="821"/>
      <point x="795" y="845"/>
      <point x="763" y="875" type="curve" smooth="yes"/>
      <point x="702" y="932"/>
      <point x="642" y="946"/>
      <point x="588" y="946" type="curve" smooth="yes"/>
      <point x="490" y="946"/>
      <point x="438" y="902"/>
    </contour>
    <contour>
      <point x="541" y="815" type="line"/>
      <point x="541" y="836"/>
      <point x="558" y="850"/>
      <point x="591" y="850" type="curve" smooth="yes"/>
      <point x="631" y="850"/>
      <point x="667" y="829"/>
      <point x="678" y="815" type="curve"/>
    </contour>
    <contour>
      <point x="79" y="303" type="line"/>
      <point x="229" y="303" type="line"/>
      <point x="229" y="377" type="line"/>
      <point x="79" y="377" type="line"/>
    </contour>
    <contour>
      <point x="229" y="330" type="line"/>
      <point x="229" y="449" type="line"/>
      <point x="124" y="514" type="line"/>
      <point x="135" y="535" type="line"/>
      <point x="181" y="510"/>
      <point x="197" y="505"/>
      <point x="210" y="505" type="curve" smooth="yes"/>
      <point x="255" y="505"/>
      <point x="279" y="568"/>
      <point x="279" y="612" type="curve"/>
      <point x="235" y="612"/>
      <point x="191" y="643"/>
      <point x="124" y="680" type="curve"/>
      <point x="47" y="572"/>
      <point x="17" y="525"/>
      <point x="17" y="492" type="curve" smooth="yes"/>
      <point x="17" y="473"/>
      <point x="27" y="449"/>
      <point x="79" y="412" type="curve"/>
      <point x="79" y="330" type="line"/>
    </contour>
    <contour>
      <point x="79" y="317" type="line"/>
      <point x="79" y="0" type="line"/>
      <point x="229" y="0" type="line"/>
      <point x="297" y="46"/>
      <point x="341" y="100"/>
      <point x="341" y="169" type="curve" smooth="yes"/>
      <point x="341" y="240"/>
      <point x="299" y="280"/>
      <point x="229" y="275" type="curve"/>
      <point x="229" y="317" type="line"/>
    </contour>
    <contour>
      <point x="229" y="186" type="line"/>
      <point x="244" y="185"/>
      <point x="257" y="179"/>
      <point x="257" y="154" type="curve" smooth="yes"/>
      <point x="257" y="138"/>
      <point x="252" y="118"/>
      <point x="229" y="102" type="curve"/>
    </contour>
    <contour>
      <point x="463" y="301" type="curve" smooth="yes"/>
      <point x="481" y="301"/>
      <point x="498" y="318"/>
      <point x="498" y="336" type="curve" smooth="yes"/>
      <point x="498" y="354"/>
      <point x="481" y="371"/>
      <point x="463" y="371" type="curve" smooth="yes"/>
      <point x="444" y="371"/>
      <point x="428" y="354"/>
      <point x="428" y="336" type="curve" smooth="yes"/>
      <point x="428" y="318"/>
      <point x="444" y="301"/>
    </contour>
    <contour>
      <point x="489" y="402" type="curve" smooth="yes"/>
      <point x="507" y="402"/>
      <point x="524" y="419"/>
      <point x="524" y="437" type="curve" smooth="yes"/>
      <point x="524" y="455"/>
      <point x="507" y="472"/>
      <point x="489" y="472" type="curve" smooth="yes"/>
      <point x="470" y="472"/>
      <point x="454" y="455"/>
      <point x="454" y="437" type="curve" smooth="yes"/>
      <point x="454" y="419"/>
      <point x="470" y="402"/>
    </contour>
    <contour>
      <point x="560" y="472" type="curve" smooth="yes"/>
      <point x="578" y="472"/>
      <point x="595" y="489"/>
      <point x="595" y="507" type="curve" smooth="yes"/>
      <point x="595" y="525"/>
      <point x="578" y="542"/>
      <point x="560" y="542" type="curve" smooth="yes"/>
      <point x="541" y="542"/>
      <point x="525" y="525"/>
      <point x="525" y="507" type="curve" smooth="yes"/>
      <point x="525" y="489"/>
      <point x="541" y="472"/>
    </contour>
    <contour>
      <point x="657" y="496" type="curve" smooth="yes"/>
      <point x="675" y="496"/>
      <point x="692" y="513"/>
      <point x="692" y="531" type="curve" smooth="yes"/>
      <point x="692" y="549"/>
      <point x="675" y="566"/>
      <point x="657" y="566" type="curve" smooth="yes"/>
      <point x="638" y="566"/>
      <point x="622" y="549"/>
      <point x="622" y="531" type="curve" smooth="yes"/>
      <point x="622" y="513"/>
      <point x="638" y="496"/>
    </contour>
    <contour>
      <point x="754" y="472" type="curve" smooth="yes"/>
      <point x="772" y="472"/>
      <point x="789" y="489"/>
      <point x="789" y="507" type="curve" smooth="yes"/>
      <point x="789" y="525"/>
      <point x="772" y="542"/>
      <point x="754" y="542" type="curve" smooth="yes"/>
      <point x="735" y="542"/>
      <point x="719" y="525"/>
      <point x="719" y="507" type="curve" smooth="yes"/>
      <point x="719" y="489"/>
      <point x="735" y="472"/>
    </contour>
    <contour>
      <point x="824" y="400" type="curve" smooth="yes"/>
      <point x="842" y="400"/>
      <point x="859" y="417"/>
      <point x="859" y="435" type="curve" smooth="yes"/>
      <point x="859" y="453"/>
      <point x="842" y="470"/>
      <point x="824" y="470" type="curve" smooth="yes"/>
      <point x="805" y="470"/>
      <point x="789" y="453"/>
      <point x="789" y="435" type="curve" smooth="yes"/>
      <point x="789" y="417"/>
      <point x="805" y="400"/>
    </contour>
    <contour>
      <point x="854" y="301" type="curve" smooth="yes"/>
      <point x="872" y="301"/>
      <point x="889" y="318"/>
      <point x="889" y="336" type="curve" smooth="yes"/>
      <point x="889" y="354"/>
      <point x="872" y="371"/>
      <point x="854" y="371" type="curve" smooth="yes"/>
      <point x="835" y="371"/>
      <point x="819" y="354"/>
      <point x="819" y="336" type="curve" smooth="yes"/>
      <point x="819" y="318"/>
      <point x="835" y="301"/>
    </contour>
    <contour>
      <point x="826" y="207" type="curve" smooth="yes"/>
      <point x="844" y="207"/>
      <point x="861" y="224"/>
      <point x="861" y="242" type="curve" smooth="yes"/>
      <point x="861" y="260"/>
      <point x="844" y="277"/>
      <point x="826" y="277" type="curve" smooth="yes"/>
      <point x="807" y="277"/>
      <point x="791" y="260"/>
      <point x="791" y="242" type="curve" smooth="yes"/>
      <point x="791" y="224"/>
      <point x="807" y="207"/>
    </contour>
    <contour>
      <point x="755" y="135" type="curve" smooth="yes"/>
      <point x="773" y="135"/>
      <point x="790" y="152"/>
      <point x="790" y="170" type="curve" smooth="yes"/>
      <point x="790" y="188"/>
      <point x="773" y="205"/>
      <point x="755" y="205" type="curve" smooth="yes"/>
      <point x="736" y="205"/>
      <point x="720" y="188"/>
      <point x="720" y="170" type="curve" smooth="yes"/>
      <point x="720" y="152"/>
      <point x="736" y="135"/>
    </contour>
    <contour>
      <point x="657" y="107" type="curve" smooth="yes"/>
      <point x="675" y="107"/>
      <point x="692" y="124"/>
      <point x="692" y="142" type="curve" smooth="yes"/>
      <point x="692" y="160"/>
      <point x="675" y="177"/>
      <point x="657" y="177" type="curve" smooth="yes"/>
      <point x="638" y="177"/>
      <point x="622" y="160"/>
      <point x="622" y="142" type="curve" smooth="yes"/>
      <point x="622" y="124"/>
      <point x="638" y="107"/>
    </contour>
    <contour>
      <point x="560" y="134" type="curve" smooth="yes"/>
      <point x="578" y="134"/>
      <point x="595" y="151"/>
      <point x="595" y="169" type="curve" smooth="yes"/>
      <point x="595" y="187"/>
      <point x="578" y="204"/>
      <point x="560" y="204" type="curve" smooth="yes"/>
      <point x="541" y="204"/>
      <point x="525" y="187"/>
      <point x="525" y="169" type="curve" smooth="yes"/>
      <point x="525" y="151"/>
      <point x="541" y="134"/>
    </contour>
    <contour>
      <point x="487" y="206" type="curve" smooth="yes"/>
      <point x="505" y="206"/>
      <point x="522" y="223"/>
      <point x="522" y="241" type="curve" smooth="yes"/>
      <point x="522" y="259"/>
      <point x="505" y="276"/>
      <point x="487" y="276" type="curve" smooth="yes"/>
      <point x="468" y="276"/>
      <point x="452" y="259"/>
      <point x="452" y="241" type="curve" smooth="yes"/>
      <point x="452" y="223"/>
      <point x="468" y="206"/>
    </contour>
  </outline>
</glyph>
<glyph name="uni17BF" format="2">
  <advance width="1221"/>
  <unicode hex="17BF"/>
  <note>
uni17BF
</note>
  <anchor x="940" y="1220" name="abvm"/>
  <anchor x="637" y="45" name="blwm"/>
  <outline>
    <contour>
      <point x="79" y="303" type="line"/>
      <point x="229" y="303" type="line"/>
      <point x="229" y="377" type="line"/>
      <point x="79" y="377" type="line"/>
    </contour>
    <contour>
      <point x="229" y="330" type="line"/>
      <point x="229" y="449" type="line"/>
      <point x="124" y="514" type="line"/>
      <point x="135" y="535" type="line"/>
      <point x="181" y="510"/>
      <point x="197" y="505"/>
      <point x="210" y="505" type="curve" smooth="yes"/>
      <point x="255" y="505"/>
      <point x="279" y="568"/>
      <point x="279" y="612" type="curve"/>
      <point x="235" y="612"/>
      <point x="191" y="643"/>
      <point x="124" y="680" type="curve"/>
      <point x="47" y="572"/>
      <point x="17" y="525"/>
      <point x="17" y="492" type="curve" smooth="yes"/>
      <point x="17" y="473"/>
      <point x="27" y="449"/>
      <point x="79" y="412" type="curve"/>
      <point x="79" y="330" type="line"/>
    </contour>
    <contour>
      <point x="79" y="317" type="line"/>
      <point x="79" y="0" type="line"/>
      <point x="229" y="0" type="line"/>
      <point x="297" y="46"/>
      <point x="341" y="100"/>
      <point x="341" y="169" type="curve" smooth="yes"/>
      <point x="341" y="240"/>
      <point x="299" y="280"/>
      <point x="229" y="275" type="curve"/>
      <point x="229" y="317" type="line"/>
    </contour>
    <contour>
      <point x="229" y="186" type="line"/>
      <point x="244" y="185"/>
      <point x="257" y="179"/>
      <point x="257" y="154" type="curve" smooth="yes"/>
      <point x="257" y="138"/>
      <point x="252" y="118"/>
      <point x="229" y="102" type="curve"/>
    </contour>
    <contour>
      <point x="441" y="301" type="curve" smooth="yes"/>
      <point x="459" y="301"/>
      <point x="476" y="318"/>
      <point x="476" y="336" type="curve" smooth="yes"/>
      <point x="476" y="354"/>
      <point x="459" y="371"/>
      <point x="441" y="371" type="curve" smooth="yes"/>
      <point x="422" y="371"/>
      <point x="406" y="354"/>
      <point x="406" y="336" type="curve" smooth="yes"/>
      <point x="406" y="318"/>
      <point x="422" y="301"/>
    </contour>
    <contour>
      <point x="467" y="402" type="curve" smooth="yes"/>
      <point x="485" y="402"/>
      <point x="502" y="419"/>
      <point x="502" y="437" type="curve" smooth="yes"/>
      <point x="502" y="455"/>
      <point x="485" y="472"/>
      <point x="467" y="472" type="curve" smooth="yes"/>
      <point x="448" y="472"/>
      <point x="432" y="455"/>
      <point x="432" y="437" type="curve" smooth="yes"/>
      <point x="432" y="419"/>
      <point x="448" y="402"/>
    </contour>
    <contour>
      <point x="538" y="472" type="curve" smooth="yes"/>
      <point x="556" y="472"/>
      <point x="573" y="489"/>
      <point x="573" y="507" type="curve" smooth="yes"/>
      <point x="573" y="525"/>
      <point x="556" y="542"/>
      <point x="538" y="542" type="curve" smooth="yes"/>
      <point x="519" y="542"/>
      <point x="503" y="525"/>
      <point x="503" y="507" type="curve" smooth="yes"/>
      <point x="503" y="489"/>
      <point x="519" y="472"/>
    </contour>
    <contour>
      <point x="635" y="496" type="curve" smooth="yes"/>
      <point x="653" y="496"/>
      <point x="670" y="513"/>
      <point x="670" y="531" type="curve" smooth="yes"/>
      <point x="670" y="549"/>
      <point x="653" y="566"/>
      <point x="635" y="566" type="curve" smooth="yes"/>
      <point x="616" y="566"/>
      <point x="600" y="549"/>
      <point x="600" y="531" type="curve" smooth="yes"/>
      <point x="600" y="513"/>
      <point x="616" y="496"/>
    </contour>
    <contour>
      <point x="732" y="472" type="curve" smooth="yes"/>
      <point x="750" y="472"/>
      <point x="767" y="489"/>
      <point x="767" y="507" type="curve" smooth="yes"/>
      <point x="767" y="525"/>
      <point x="750" y="542"/>
      <point x="732" y="542" type="curve" smooth="yes"/>
      <point x="713" y="542"/>
      <point x="697" y="525"/>
      <point x="697" y="507" type="curve" smooth="yes"/>
      <point x="697" y="489"/>
      <point x="713" y="472"/>
    </contour>
    <contour>
      <point x="802" y="400" type="curve" smooth="yes"/>
      <point x="820" y="400"/>
      <point x="837" y="417"/>
      <point x="837" y="435" type="curve" smooth="yes"/>
      <point x="837" y="453"/>
      <point x="820" y="470"/>
      <point x="802" y="470" type="curve" smooth="yes"/>
      <point x="783" y="470"/>
      <point x="767" y="453"/>
      <point x="767" y="435" type="curve" smooth="yes"/>
      <point x="767" y="417"/>
      <point x="783" y="400"/>
    </contour>
    <contour>
      <point x="832" y="301" type="curve" smooth="yes"/>
      <point x="850" y="301"/>
      <point x="867" y="318"/>
      <point x="867" y="336" type="curve" smooth="yes"/>
      <point x="867" y="354"/>
      <point x="850" y="371"/>
      <point x="832" y="371" type="curve" smooth="yes"/>
      <point x="813" y="371"/>
      <point x="797" y="354"/>
      <point x="797" y="336" type="curve" smooth="yes"/>
      <point x="797" y="318"/>
      <point x="813" y="301"/>
    </contour>
    <contour>
      <point x="804" y="207" type="curve" smooth="yes"/>
      <point x="822" y="207"/>
      <point x="839" y="224"/>
      <point x="839" y="242" type="curve" smooth="yes"/>
      <point x="839" y="260"/>
      <point x="822" y="277"/>
      <point x="804" y="277" type="curve" smooth="yes"/>
      <point x="785" y="277"/>
      <point x="769" y="260"/>
      <point x="769" y="242" type="curve" smooth="yes"/>
      <point x="769" y="224"/>
      <point x="785" y="207"/>
    </contour>
    <contour>
      <point x="733" y="135" type="curve" smooth="yes"/>
      <point x="751" y="135"/>
      <point x="768" y="152"/>
      <point x="768" y="170" type="curve" smooth="yes"/>
      <point x="768" y="188"/>
      <point x="751" y="205"/>
      <point x="733" y="205" type="curve" smooth="yes"/>
      <point x="714" y="205"/>
      <point x="698" y="188"/>
      <point x="698" y="170" type="curve" smooth="yes"/>
      <point x="698" y="152"/>
      <point x="714" y="135"/>
    </contour>
    <contour>
      <point x="635" y="107" type="curve" smooth="yes"/>
      <point x="653" y="107"/>
      <point x="670" y="124"/>
      <point x="670" y="142" type="curve" smooth="yes"/>
      <point x="670" y="160"/>
      <point x="653" y="177"/>
      <point x="635" y="177" type="curve" smooth="yes"/>
      <point x="616" y="177"/>
      <point x="600" y="160"/>
      <point x="600" y="142" type="curve" smooth="yes"/>
      <point x="600" y="124"/>
      <point x="616" y="107"/>
    </contour>
    <contour>
      <point x="538" y="134" type="curve" smooth="yes"/>
      <point x="556" y="134"/>
      <point x="573" y="151"/>
      <point x="573" y="169" type="curve" smooth="yes"/>
      <point x="573" y="187"/>
      <point x="556" y="204"/>
      <point x="538" y="204" type="curve" smooth="yes"/>
      <point x="519" y="204"/>
      <point x="503" y="187"/>
      <point x="503" y="169" type="curve" smooth="yes"/>
      <point x="503" y="151"/>
      <point x="519" y="134"/>
    </contour>
    <contour>
      <point x="465" y="206" type="curve" smooth="yes"/>
      <point x="483" y="206"/>
      <point x="500" y="223"/>
      <point x="500" y="241" type="curve" smooth="yes"/>
      <point x="500" y="259"/>
      <point x="483" y="276"/>
      <point x="465" y="276" type="curve" smooth="yes"/>
      <point x="446" y="276"/>
      <point x="430" y="259"/>
      <point x="430" y="241" type="curve" smooth="yes"/>
      <point x="430" y="223"/>
      <point x="446" y="206"/>
    </contour>
    <contour>
      <point x="1011" y="748" type="line"/>
      <point x="1161" y="748" type="line"/>
      <point x="1161" y="793" type="line" smooth="yes"/>
      <point x="1161" y="889"/>
      <point x="1141" y="956"/>
      <point x="1058" y="1025" type="curve" smooth="yes"/>
      <point x="990" y="1081"/>
      <point x="941" y="1109"/>
      <point x="886" y="1109" type="curve" smooth="yes"/>
      <point x="819" y="1109"/>
      <point x="755" y="1066"/>
      <point x="755" y="973" type="curve" smooth="yes"/>
      <point x="755" y="919"/>
      <point x="778" y="873"/>
      <point x="857" y="873" type="curve" smooth="yes"/>
      <point x="967" y="873" type="line" smooth="yes"/>
      <point x="996" y="873"/>
      <point x="1011" y="857"/>
      <point x="1011" y="825" type="curve" smooth="yes"/>
    </contour>
    <contour>
      <point x="868" y="962" type="line"/>
      <point x="868" y="981"/>
      <point x="883" y="995"/>
      <point x="906" y="995" type="curve" smooth="yes"/>
      <point x="927" y="995"/>
      <point x="951" y="984"/>
      <point x="974" y="962" type="curve"/>
    </contour>
    <contour>
      <point x="990" y="1050" type="line"/>
      <point x="990" y="1162" type="line"/>
      <point x="911" y="1162" type="line"/>
      <point x="911" y="1091" type="line"/>
    </contour>
    <contour>
      <point x="1082" y="993" type="line"/>
      <point x="1082" y="1137" type="line"/>
      <point x="1003" y="1137" type="line"/>
      <point x="1003" y="1041" type="line"/>
    </contour>
    <contour>
      <point x="1161" y="803" type="line"/>
      <point x="1011" y="803" type="line"/>
      <point x="1011" y="-168" type="line" smooth="yes"/>
      <point x="1011" y="-204"/>
      <point x="986" y="-230"/>
      <point x="940" y="-230" type="curve" smooth="yes"/>
      <point x="894" y="-230"/>
      <point x="871" y="-204"/>
      <point x="871" y="-168" type="curve" smooth="yes"/>
      <point x="871" y="-49" type="line"/>
      <point x="721" y="-49" type="line"/>
      <point x="721" y="-195" type="line" smooth="yes"/>
      <point x="721" y="-277"/>
      <point x="794" y="-317"/>
      <point x="940" y="-317" type="curve" smooth="yes"/>
      <point x="1087" y="-317"/>
      <point x="1161" y="-277"/>
      <point x="1161" y="-195" type="curve" smooth="yes"/>
    </contour>
  </outline>
</glyph>
<glyph name="uni17C0" format="2">
  <advance width="1195"/>
  <unicode hex="17C0"/>
  <note>
uni17C0
</note>
  <anchor x="922" y="1230" name="abvm"/>
  <anchor x="626" y="45" name="blwm"/>
  <outline>
    <contour>
      <point x="79" y="303" type="line"/>
      <point x="229" y="303" type="line"/>
      <point x="229" y="377" type="line"/>
      <point x="79" y="377" type="line"/>
    </contour>
    <contour>
      <point x="229" y="330" type="line"/>
      <point x="229" y="449" type="line"/>
      <point x="124" y="514" type="line"/>
      <point x="135" y="535" type="line"/>
      <point x="181" y="510"/>
      <point x="197" y="505"/>
      <point x="210" y="505" type="curve" smooth="yes"/>
      <point x="255" y="505"/>
      <point x="279" y="568"/>
      <point x="279" y="612" type="curve"/>
      <point x="235" y="612"/>
      <point x="191" y="643"/>
      <point x="124" y="680" type="curve"/>
      <point x="47" y="572"/>
      <point x="17" y="525"/>
      <point x="17" y="492" type="curve" smooth="yes"/>
      <point x="17" y="473"/>
      <point x="27" y="449"/>
      <point x="79" y="412" type="curve"/>
      <point x="79" y="330" type="line"/>
    </contour>
    <contour>
      <point x="79" y="317" type="line"/>
      <point x="79" y="0" type="line"/>
      <point x="229" y="0" type="line"/>
      <point x="297" y="46"/>
      <point x="341" y="100"/>
      <point x="341" y="169" type="curve" smooth="yes"/>
      <point x="341" y="240"/>
      <point x="299" y="280"/>
      <point x="229" y="275" type="curve"/>
      <point x="229" y="317" type="line"/>
    </contour>
    <contour>
      <point x="229" y="186" type="line"/>
      <point x="244" y="185"/>
      <point x="257" y="179"/>
      <point x="257" y="154" type="curve" smooth="yes"/>
      <point x="257" y="138"/>
      <point x="252" y="118"/>
      <point x="229" y="102" type="curve"/>
    </contour>
    <contour>
      <point x="430" y="301" type="curve" smooth="yes"/>
      <point x="448" y="301"/>
      <point x="465" y="318"/>
      <point x="465" y="336" type="curve" smooth="yes"/>
      <point x="465" y="354"/>
      <point x="448" y="371"/>
      <point x="430" y="371" type="curve" smooth="yes"/>
      <point x="411" y="371"/>
      <point x="395" y="354"/>
      <point x="395" y="336" type="curve" smooth="yes"/>
      <point x="395" y="318"/>
      <point x="411" y="301"/>
    </contour>
    <contour>
      <point x="456" y="402" type="curve" smooth="yes"/>
      <point x="474" y="402"/>
      <point x="491" y="419"/>
      <point x="491" y="437" type="curve" smooth="yes"/>
      <point x="491" y="455"/>
      <point x="474" y="472"/>
      <point x="456" y="472" type="curve" smooth="yes"/>
      <point x="437" y="472"/>
      <point x="421" y="455"/>
      <point x="421" y="437" type="curve" smooth="yes"/>
      <point x="421" y="419"/>
      <point x="437" y="402"/>
    </contour>
    <contour>
      <point x="527" y="472" type="curve" smooth="yes"/>
      <point x="545" y="472"/>
      <point x="562" y="489"/>
      <point x="562" y="507" type="curve" smooth="yes"/>
      <point x="562" y="525"/>
      <point x="545" y="542"/>
      <point x="527" y="542" type="curve" smooth="yes"/>
      <point x="508" y="542"/>
      <point x="492" y="525"/>
      <point x="492" y="507" type="curve" smooth="yes"/>
      <point x="492" y="489"/>
      <point x="508" y="472"/>
    </contour>
    <contour>
      <point x="624" y="496" type="curve" smooth="yes"/>
      <point x="642" y="496"/>
      <point x="659" y="513"/>
      <point x="659" y="531" type="curve" smooth="yes"/>
      <point x="659" y="549"/>
      <point x="642" y="566"/>
      <point x="624" y="566" type="curve" smooth="yes"/>
      <point x="605" y="566"/>
      <point x="589" y="549"/>
      <point x="589" y="531" type="curve" smooth="yes"/>
      <point x="589" y="513"/>
      <point x="605" y="496"/>
    </contour>
    <contour>
      <point x="721" y="472" type="curve" smooth="yes"/>
      <point x="739" y="472"/>
      <point x="756" y="489"/>
      <point x="756" y="507" type="curve" smooth="yes"/>
      <point x="756" y="525"/>
      <point x="739" y="542"/>
      <point x="721" y="542" type="curve" smooth="yes"/>
      <point x="702" y="542"/>
      <point x="686" y="525"/>
      <point x="686" y="507" type="curve" smooth="yes"/>
      <point x="686" y="489"/>
      <point x="702" y="472"/>
    </contour>
    <contour>
      <point x="791" y="400" type="curve" smooth="yes"/>
      <point x="809" y="400"/>
      <point x="826" y="417"/>
      <point x="826" y="435" type="curve" smooth="yes"/>
      <point x="826" y="453"/>
      <point x="809" y="470"/>
      <point x="791" y="470" type="curve" smooth="yes"/>
      <point x="772" y="470"/>
      <point x="756" y="453"/>
      <point x="756" y="435" type="curve" smooth="yes"/>
      <point x="756" y="417"/>
      <point x="772" y="400"/>
    </contour>
    <contour>
      <point x="821" y="301" type="curve" smooth="yes"/>
      <point x="839" y="301"/>
      <point x="856" y="318"/>
      <point x="856" y="336" type="curve" smooth="yes"/>
      <point x="856" y="354"/>
      <point x="839" y="371"/>
      <point x="821" y="371" type="curve" smooth="yes"/>
      <point x="802" y="371"/>
      <point x="786" y="354"/>
      <point x="786" y="336" type="curve" smooth="yes"/>
      <point x="786" y="318"/>
      <point x="802" y="301"/>
    </contour>
    <contour>
      <point x="793" y="207" type="curve" smooth="yes"/>
      <point x="811" y="207"/>
      <point x="828" y="224"/>
      <point x="828" y="242" type="curve" smooth="yes"/>
      <point x="828" y="260"/>
      <point x="811" y="277"/>
      <point x="793" y="277" type="curve" smooth="yes"/>
      <point x="774" y="277"/>
      <point x="758" y="260"/>
      <point x="758" y="242" type="curve" smooth="yes"/>
      <point x="758" y="224"/>
      <point x="774" y="207"/>
    </contour>
    <contour>
      <point x="722" y="135" type="curve" smooth="yes"/>
      <point x="740" y="135"/>
      <point x="757" y="152"/>
      <point x="757" y="170" type="curve" smooth="yes"/>
      <point x="757" y="188"/>
      <point x="740" y="205"/>
      <point x="722" y="205" type="curve" smooth="yes"/>
      <point x="703" y="205"/>
      <point x="687" y="188"/>
      <point x="687" y="170" type="curve" smooth="yes"/>
      <point x="687" y="152"/>
      <point x="703" y="135"/>
    </contour>
    <contour>
      <point x="624" y="107" type="curve" smooth="yes"/>
      <point x="642" y="107"/>
      <point x="659" y="124"/>
      <point x="659" y="142" type="curve" smooth="yes"/>
      <point x="659" y="160"/>
      <point x="642" y="177"/>
      <point x="624" y="177" type="curve" smooth="yes"/>
      <point x="605" y="177"/>
      <point x="589" y="160"/>
      <point x="589" y="142" type="curve" smooth="yes"/>
      <point x="589" y="124"/>
      <point x="605" y="107"/>
    </contour>
    <contour>
      <point x="527" y="134" type="curve" smooth="yes"/>
      <point x="545" y="134"/>
      <point x="562" y="151"/>
      <point x="562" y="169" type="curve" smooth="yes"/>
      <point x="562" y="187"/>
      <point x="545" y="204"/>
      <point x="527" y="204" type="curve" smooth="yes"/>
      <point x="508" y="204"/>
      <point x="492" y="187"/>
      <point x="492" y="169" type="curve" smooth="yes"/>
      <point x="492" y="151"/>
      <point x="508" y="134"/>
    </contour>
    <contour>
      <point x="454" y="206" type="curve" smooth="yes"/>
      <point x="472" y="206"/>
      <point x="489" y="223"/>
      <point x="489" y="241" type="curve" smooth="yes"/>
      <point x="489" y="259"/>
      <point x="472" y="276"/>
      <point x="454" y="276" type="curve" smooth="yes"/>
      <point x="435" y="276"/>
      <point x="419" y="259"/>
      <point x="419" y="241" type="curve" smooth="yes"/>
      <point x="419" y="223"/>
      <point x="435" y="206"/>
    </contour>
    <contour>
      <point x="965" y="719" type="line"/>
      <point x="1115" y="719" type="line"/>
      <point x="1115" y="801" type="line" smooth="yes"/>
      <point x="1115" y="932"/>
      <point x="1040" y="998"/>
      <point x="913" y="998" type="curve" smooth="yes"/>
      <point x="855" y="998"/>
      <point x="806" y="984"/>
      <point x="766" y="940" type="curve"/>
      <point x="782" y="984"/>
      <point x="796" y="1034"/>
      <point x="796" y="1098" type="curve" smooth="yes"/>
      <point x="796" y="1172"/>
      <point x="776" y="1222"/>
      <point x="714" y="1222" type="curve" smooth="yes"/>
      <point x="662" y="1222"/>
      <point x="628" y="1186"/>
      <point x="628" y="1140" type="curve"/>
      <point x="656" y="1140"/>
      <point x="677" y="1116"/>
      <point x="677" y="1060" type="curve" smooth="yes"/>
      <point x="677" y="1018"/>
      <point x="665" y="996"/>
      <point x="665" y="949" type="curve" smooth="yes"/>
      <point x="665" y="871"/>
      <point x="701" y="839"/>
      <point x="755" y="839" type="curve" smooth="yes"/>
      <point x="835" y="839"/>
      <point x="829" y="911"/>
      <point x="895" y="911" type="curve" smooth="yes"/>
      <point x="946" y="911"/>
      <point x="965" y="868"/>
      <point x="965" y="784" type="curve" smooth="yes"/>
    </contour>
    <contour>
      <point x="1115" y="803" type="line"/>
      <point x="965" y="803" type="line"/>
      <point x="965" y="-168" type="line" smooth="yes"/>
      <point x="965" y="-204"/>
      <point x="940" y="-230"/>
      <point x="894" y="-230" type="curve" smooth="yes"/>
      <point x="848" y="-230"/>
      <point x="825" y="-204"/>
      <point x="825" y="-168" type="curve" smooth="yes"/>
      <point x="825" y="-49" type="line"/>
      <point x="675" y="-49" type="line"/>
      <point x="675" y="-195" type="line" smooth="yes"/>
      <point x="675" y="-277"/>
      <point x="748" y="-317"/>
      <point x="894" y="-317" type="curve" smooth="yes"/>
      <point x="1041" y="-317"/>
      <point x="1115" y="-277"/>
      <point x="1115" y="-195" type="curve" smooth="yes"/>
    </contour>
  </outline>
</glyph>
<glyph name="uni17C1" format="2">
  <advance width="377"/>
  <unicode hex="17C1"/>
  <note>
uni17C1
</note>
  <anchor x="99" y="760" name="abvm"/>
  <outline>
    <contour>
      <point x="79" y="303" type="line"/>
      <point x="229" y="303" type="line"/>
      <point x="229" y="377" type="line"/>
      <point x="79" y="377" type="line"/>
    </contour>
    <contour>
      <point x="229" y="330" type="line"/>
      <point x="229" y="449" type="line"/>
      <point x="124" y="514" type="line"/>
      <point x="135" y="535" type="line"/>
      <point x="181" y="510"/>
      <point x="197" y="505"/>
      <point x="210" y="505" type="curve" smooth="yes"/>
      <point x="255" y="505"/>
      <point x="279" y="568"/>
      <point x="279" y="612" type="curve"/>
      <point x="235" y="612"/>
      <point x="191" y="643"/>
      <point x="124" y="680" type="curve"/>
      <point x="47" y="572"/>
      <point x="17" y="525"/>
      <point x="17" y="492" type="curve" smooth="yes"/>
      <point x="17" y="473"/>
      <point x="27" y="449"/>
      <point x="79" y="412" type="curve"/>
      <point x="79" y="330" type="line"/>
    </contour>
    <contour>
      <point x="79" y="317" type="line"/>
      <point x="79" y="0" type="line"/>
      <point x="229" y="0" type="line"/>
      <point x="297" y="46"/>
      <point x="341" y="100"/>
      <point x="341" y="169" type="curve" smooth="yes"/>
      <point x="341" y="240"/>
      <point x="299" y="280"/>
      <point x="229" y="275" type="curve"/>
      <point x="229" y="317" type="line"/>
    </contour>
    <contour>
      <point x="229" y="186" type="line"/>
      <point x="244" y="185"/>
      <point x="257" y="179"/>
      <point x="257" y="154" type="curve" smooth="yes"/>
      <point x="257" y="138"/>
      <point x="252" y="118"/>
      <point x="229" y="102" type="curve"/>
    </contour>
  </outline>
</glyph>
<glyph name="uni17C2" format="2">
  <advance width="381"/>
  <unicode hex="17C2"/>
  <note>
uni17C2
</note>
  <anchor x="99" y="760" name="abvm"/>
  <outline>
    <contour>
      <point x="151" y="879" type="curve"/>
      <point x="155" y="922"/>
      <point x="141" y="949"/>
      <point x="105" y="949" type="curve" smooth="yes"/>
      <point x="60" y="949"/>
      <point x="33" y="909"/>
      <point x="33" y="862" type="curve" smooth="yes"/>
      <point x="33" y="806"/>
      <point x="73" y="749"/>
      <point x="158" y="749" type="curve" smooth="yes"/>
      <point x="283" y="749"/>
      <point x="331" y="855"/>
      <point x="331" y="927" type="curve" smooth="yes"/>
      <point x="331" y="973"/>
      <point x="308" y="1053"/>
      <point x="233" y="1053" type="curve" smooth="yes"/>
      <point x="176" y="1053"/>
      <point x="143" y="1008"/>
      <point x="172" y="939" type="curve"/>
      <point x="188" y="934"/>
      <point x="205" y="925"/>
      <point x="205" y="894" type="curve" smooth="yes"/>
      <point x="205" y="856"/>
      <point x="180" y="838"/>
      <point x="156" y="838" type="curve" smooth="yes"/>
      <point x="147" y="838"/>
      <point x="130" y="841"/>
      <point x="130" y="858" type="curve" smooth="yes"/>
      <point x="130" y="870"/>
      <point x="136" y="879"/>
    </contour>
    <contour>
      <point x="79" y="303" type="line"/>
      <point x="229" y="303" type="line"/>
      <point x="229" y="377" type="line"/>
      <point x="79" y="377" type="line"/>
    </contour>
    <contour>
      <point x="229" y="330" type="line"/>
      <point x="229" y="449" type="line"/>
      <point x="124" y="514" type="line"/>
      <point x="135" y="535" type="line"/>
      <point x="181" y="510"/>
      <point x="197" y="505"/>
      <point x="210" y="505" type="curve" smooth="yes"/>
      <point x="255" y="505"/>
      <point x="279" y="568"/>
      <point x="279" y="612" type="curve"/>
      <point x="235" y="612"/>
      <point x="191" y="643"/>
      <point x="124" y="680" type="curve"/>
      <point x="47" y="572"/>
      <point x="17" y="525"/>
      <point x="17" y="492" type="curve" smooth="yes"/>
      <point x="17" y="473"/>
      <point x="27" y="449"/>
      <point x="79" y="412" type="curve"/>
      <point x="79" y="330" type="line"/>
    </contour>
    <contour>
      <point x="79" y="317" type="line"/>
      <point x="79" y="0" type="line"/>
      <point x="229" y="0" type="line"/>
      <point x="297" y="46"/>
      <point x="341" y="100"/>
      <point x="341" y="169" type="curve" smooth="yes"/>
      <point x="341" y="240"/>
      <point x="299" y="280"/>
      <point x="229" y="275" type="curve"/>
      <point x="229" y="317" type="line"/>
    </contour>
    <contour>
      <point x="229" y="186" type="line"/>
      <point x="244" y="185"/>
      <point x="257" y="179"/>
      <point x="257" y="154" type="curve" smooth="yes"/>
      <point x="257" y="138"/>
      <point x="252" y="118"/>
      <point x="229" y="102" type="curve"/>
    </contour>
  </outline>
</glyph>
<glyph name="uni17C3" format="2">
  <advance width="451"/>
  <unicode hex="17C3"/>
  <note>
uni17C3
</note>
  <anchor x="173" y="760" name="abvm"/>
  <outline>
    <contour>
      <point x="237" y="886" type="curve"/>
      <point x="183" y="929"/>
      <point x="112" y="902"/>
      <point x="112" y="851" type="curve" smooth="yes"/>
      <point x="112" y="805"/>
      <point x="168" y="750"/>
      <point x="257" y="750" type="curve" smooth="yes"/>
      <point x="356" y="750"/>
      <point x="414" y="815"/>
      <point x="414" y="890" type="curve" smooth="yes"/>
      <point x="414" y="973"/>
      <point x="343" y="1018"/>
      <point x="266" y="1018" type="curve" smooth="yes"/>
      <point x="235" y="1018" type="line"/>
      <point x="235" y="1078"/>
      <point x="219" y="1123"/>
      <point x="161" y="1123" type="curve" smooth="yes"/>
      <point x="99" y="1123"/>
      <point x="71" y="1070"/>
      <point x="71" y="1037" type="curve"/>
      <point x="94" y="1031"/>
      <point x="103" y="1011"/>
      <point x="113" y="991" type="curve" smooth="yes"/>
      <point x="123" y="970"/>
      <point x="148" y="949"/>
      <point x="205" y="949" type="curve" smooth="yes"/>
      <point x="243" y="949" type="line" smooth="yes"/>
      <point x="262" y="949"/>
      <point x="289" y="936"/>
      <point x="289" y="890" type="curve" smooth="yes"/>
      <point x="289" y="855"/>
      <point x="274" y="839"/>
      <point x="262" y="839" type="curve" smooth="yes"/>
      <point x="248" y="839"/>
      <point x="237" y="861"/>
    </contour>
    <contour>
      <point x="153" y="303" type="line"/>
      <point x="303" y="303" type="line"/>
      <point x="303" y="377" type="line"/>
      <point x="153" y="377" type="line"/>
    </contour>
    <contour>
      <point x="303" y="330" type="line"/>
      <point x="303" y="449" type="line"/>
      <point x="198" y="514" type="line"/>
      <point x="209" y="535" type="line"/>
      <point x="255" y="510"/>
      <point x="271" y="505"/>
      <point x="284" y="505" type="curve" smooth="yes"/>
      <point x="329" y="505"/>
      <point x="353" y="568"/>
      <point x="353" y="612" type="curve"/>
      <point x="309" y="612"/>
      <point x="265" y="643"/>
      <point x="198" y="680" type="curve"/>
      <point x="121" y="572"/>
      <point x="91" y="525"/>
      <point x="91" y="492" type="curve" smooth="yes"/>
      <point x="91" y="473"/>
      <point x="101" y="449"/>
      <point x="153" y="412" type="curve"/>
      <point x="153" y="330" type="line"/>
    </contour>
    <contour>
      <point x="153" y="317" type="line"/>
      <point x="153" y="0" type="line"/>
      <point x="303" y="0" type="line"/>
      <point x="371" y="46"/>
      <point x="415" y="100"/>
      <point x="415" y="169" type="curve" smooth="yes"/>
      <point x="415" y="240"/>
      <point x="373" y="280"/>
      <point x="303" y="275" type="curve"/>
      <point x="303" y="317" type="line"/>
    </contour>
    <contour>
      <point x="303" y="186" type="line"/>
      <point x="318" y="185"/>
      <point x="331" y="179"/>
      <point x="331" y="154" type="curve" smooth="yes"/>
      <point x="331" y="138"/>
      <point x="326" y="118"/>
      <point x="303" y="102" type="curve"/>
    </contour>
  </outline>
</glyph>
<glyph name="uni17C5" format="2">
  <advance width="1250"/>
  <unicode hex="17C5"/>
  <note>
uni17C5
</note>
  <anchor x="626" y="645" name="abvm"/>
  <anchor x="1003" y="740" name="abvm_a"/>
  <anchor x="1003" y="740" name="abvm_high"/>
  <anchor x="626" y="45" name="blwm"/>
  <anchor x="938" y="0" name="blwm_a"/>
  <outline>
    <contour>
      <point x="79" y="303" type="line"/>
      <point x="229" y="303" type="line"/>
      <point x="229" y="377" type="line"/>
      <point x="79" y="377" type="line"/>
    </contour>
    <contour>
      <point x="229" y="330" type="line"/>
      <point x="229" y="449" type="line"/>
      <point x="124" y="514" type="line"/>
      <point x="135" y="535" type="line"/>
      <point x="181" y="510"/>
      <point x="197" y="505"/>
      <point x="210" y="505" type="curve" smooth="yes"/>
      <point x="255" y="505"/>
      <point x="279" y="568"/>
      <point x="279" y="612" type="curve"/>
      <point x="235" y="612"/>
      <point x="191" y="643"/>
      <point x="124" y="680" type="curve"/>
      <point x="47" y="572"/>
      <point x="17" y="525"/>
      <point x="17" y="492" type="curve" smooth="yes"/>
      <point x="17" y="473"/>
      <point x="27" y="449"/>
      <point x="79" y="412" type="curve"/>
      <point x="79" y="330" type="line"/>
    </contour>
    <contour>
      <point x="79" y="317" type="line"/>
      <point x="79" y="0" type="line"/>
      <point x="229" y="0" type="line"/>
      <point x="297" y="46"/>
      <point x="341" y="100"/>
      <point x="341" y="169" type="curve" smooth="yes"/>
      <point x="341" y="240"/>
      <point x="299" y="280"/>
      <point x="229" y="275" type="curve"/>
      <point x="229" y="317" type="line"/>
    </contour>
    <contour>
      <point x="229" y="186" type="line"/>
      <point x="244" y="185"/>
      <point x="257" y="179"/>
      <point x="257" y="154" type="curve" smooth="yes"/>
      <point x="257" y="138"/>
      <point x="252" y="118"/>
      <point x="229" y="102" type="curve"/>
    </contour>
    <contour>
      <point x="430" y="301" type="curve" smooth="yes"/>
      <point x="448" y="301"/>
      <point x="465" y="318"/>
      <point x="465" y="336" type="curve" smooth="yes"/>
      <point x="465" y="354"/>
      <point x="448" y="371"/>
      <point x="430" y="371" type="curve" smooth="yes"/>
      <point x="411" y="371"/>
      <point x="395" y="354"/>
      <point x="395" y="336" type="curve" smooth="yes"/>
      <point x="395" y="318"/>
      <point x="411" y="301"/>
    </contour>
    <contour>
      <point x="456" y="402" type="curve" smooth="yes"/>
      <point x="474" y="402"/>
      <point x="491" y="419"/>
      <point x="491" y="437" type="curve" smooth="yes"/>
      <point x="491" y="455"/>
      <point x="474" y="472"/>
      <point x="456" y="472" type="curve" smooth="yes"/>
      <point x="437" y="472"/>
      <point x="421" y="455"/>
      <point x="421" y="437" type="curve" smooth="yes"/>
      <point x="421" y="419"/>
      <point x="437" y="402"/>
    </contour>
    <contour>
      <point x="527" y="472" type="curve" smooth="yes"/>
      <point x="545" y="472"/>
      <point x="562" y="489"/>
      <point x="562" y="507" type="curve" smooth="yes"/>
      <point x="562" y="525"/>
      <point x="545" y="542"/>
      <point x="527" y="542" type="curve" smooth="yes"/>
      <point x="508" y="542"/>
      <point x="492" y="525"/>
      <point x="492" y="507" type="curve" smooth="yes"/>
      <point x="492" y="489"/>
      <point x="508" y="472"/>
    </contour>
    <contour>
      <point x="624" y="496" type="curve" smooth="yes"/>
      <point x="642" y="496"/>
      <point x="659" y="513"/>
      <point x="659" y="531" type="curve" smooth="yes"/>
      <point x="659" y="549"/>
      <point x="642" y="566"/>
      <point x="624" y="566" type="curve" smooth="yes"/>
      <point x="605" y="566"/>
      <point x="589" y="549"/>
      <point x="589" y="531" type="curve" smooth="yes"/>
      <point x="589" y="513"/>
      <point x="605" y="496"/>
    </contour>
    <contour>
      <point x="721" y="472" type="curve" smooth="yes"/>
      <point x="739" y="472"/>
      <point x="756" y="489"/>
      <point x="756" y="507" type="curve" smooth="yes"/>
      <point x="756" y="525"/>
      <point x="739" y="542"/>
      <point x="721" y="542" type="curve" smooth="yes"/>
      <point x="702" y="542"/>
      <point x="686" y="525"/>
      <point x="686" y="507" type="curve" smooth="yes"/>
      <point x="686" y="489"/>
      <point x="702" y="472"/>
    </contour>
    <contour>
      <point x="791" y="400" type="curve" smooth="yes"/>
      <point x="809" y="400"/>
      <point x="826" y="417"/>
      <point x="826" y="435" type="curve" smooth="yes"/>
      <point x="826" y="453"/>
      <point x="809" y="470"/>
      <point x="791" y="470" type="curve" smooth="yes"/>
      <point x="772" y="470"/>
      <point x="756" y="453"/>
      <point x="756" y="435" type="curve" smooth="yes"/>
      <point x="756" y="417"/>
      <point x="772" y="400"/>
    </contour>
    <contour>
      <point x="821" y="301" type="curve" smooth="yes"/>
      <point x="839" y="301"/>
      <point x="856" y="318"/>
      <point x="856" y="336" type="curve" smooth="yes"/>
      <point x="856" y="354"/>
      <point x="839" y="371"/>
      <point x="821" y="371" type="curve" smooth="yes"/>
      <point x="802" y="371"/>
      <point x="786" y="354"/>
      <point x="786" y="336" type="curve" smooth="yes"/>
      <point x="786" y="318"/>
      <point x="802" y="301"/>
    </contour>
    <contour>
      <point x="793" y="207" type="curve" smooth="yes"/>
      <point x="811" y="207"/>
      <point x="828" y="224"/>
      <point x="828" y="242" type="curve" smooth="yes"/>
      <point x="828" y="260"/>
      <point x="811" y="277"/>
      <point x="793" y="277" type="curve" smooth="yes"/>
      <point x="774" y="277"/>
      <point x="758" y="260"/>
      <point x="758" y="242" type="curve" smooth="yes"/>
      <point x="758" y="224"/>
      <point x="774" y="207"/>
    </contour>
    <contour>
      <point x="722" y="135" type="curve" smooth="yes"/>
      <point x="740" y="135"/>
      <point x="757" y="152"/>
      <point x="757" y="170" type="curve" smooth="yes"/>
      <point x="757" y="188"/>
      <point x="740" y="205"/>
      <point x="722" y="205" type="curve" smooth="yes"/>
      <point x="703" y="205"/>
      <point x="687" y="188"/>
      <point x="687" y="170" type="curve" smooth="yes"/>
      <point x="687" y="152"/>
      <point x="703" y="135"/>
    </contour>
    <contour>
      <point x="624" y="107" type="curve" smooth="yes"/>
      <point x="642" y="107"/>
      <point x="659" y="124"/>
      <point x="659" y="142" type="curve" smooth="yes"/>
      <point x="659" y="160"/>
      <point x="642" y="177"/>
      <point x="624" y="177" type="curve" smooth="yes"/>
      <point x="605" y="177"/>
      <point x="589" y="160"/>
      <point x="589" y="142" type="curve" smooth="yes"/>
      <point x="589" y="124"/>
      <point x="605" y="107"/>
    </contour>
    <contour>
      <point x="527" y="134" type="curve" smooth="yes"/>
      <point x="545" y="134"/>
      <point x="562" y="151"/>
      <point x="562" y="169" type="curve" smooth="yes"/>
      <point x="562" y="187"/>
      <point x="545" y="204"/>
      <point x="527" y="204" type="curve" smooth="yes"/>
      <point x="508" y="204"/>
      <point x="492" y="187"/>
      <point x="492" y="169" type="curve" smooth="yes"/>
      <point x="492" y="151"/>
      <point x="508" y="134"/>
    </contour>
    <contour>
      <point x="454" y="206" type="curve" smooth="yes"/>
      <point x="472" y="206"/>
      <point x="489" y="223"/>
      <point x="489" y="241" type="curve" smooth="yes"/>
      <point x="489" y="259"/>
      <point x="472" y="276"/>
      <point x="454" y="276" type="curve" smooth="yes"/>
      <point x="435" y="276"/>
      <point x="419" y="259"/>
      <point x="419" y="241" type="curve" smooth="yes"/>
      <point x="419" y="223"/>
      <point x="435" y="206"/>
    </contour>
    <contour>
      <point x="863" y="526" type="curve"/>
      <point x="876" y="553"/>
      <point x="896" y="565"/>
      <point x="915" y="565" type="curve" smooth="yes"/>
      <point x="931" y="565"/>
      <point x="947" y="556"/>
      <point x="967" y="537" type="curve" smooth="yes"/>
      <point x="1011" y="497" type="line"/>
      <point x="1011" y="0" type="line"/>
      <point x="1161" y="0" type="line"/>
      <point x="1161" y="501" type="line" smooth="yes"/>
      <point x="1161" y="532"/>
      <point x="1149" y="556"/>
      <point x="1127" y="576" type="curve" smooth="yes"/>
      <point x="1064" y="633" type="line" smooth="yes"/>
      <point x="1023" y="670"/>
      <point x="998" y="682"/>
      <point x="957" y="682" type="curve" smooth="yes"/>
      <point x="926" y="682"/>
      <point x="896" y="676"/>
      <point x="864" y="652" type="curve" smooth="yes"/>
      <point x="844" y="637"/>
      <point x="828" y="618"/>
      <point x="828" y="590" type="curve" smooth="yes"/>
      <point x="828" y="571"/>
      <point x="835" y="551"/>
    </contour>
    <contour>
      <point x="1126" y="522" type="line"/>
      <point x="1147" y="563"/>
      <point x="1161" y="610"/>
      <point x="1161" y="672" type="curve" smooth="yes"/>
      <point x="1161" y="741" type="line" smooth="yes"/>
      <point x="1161" y="806"/>
      <point x="1141" y="878"/>
      <point x="1070" y="878" type="curve" smooth="yes"/>
      <point x="1014" y="878"/>
      <point x="986" y="833"/>
      <point x="986" y="800" type="curve"/>
      <point x="1013" y="782"/>
      <point x="1021" y="738"/>
      <point x="1021" y="705" type="curve" smooth="yes"/>
      <point x="1021" y="605" type="line"/>
    </contour>
  </outline>
</glyph>
<glyph name="uni17C7" format="2">
  <advance width="350"/>
  <unicode hex="17C7"/>
  <note>
uni17C7
</note>
  <anchor x="175" y="443" name="_abvm"/>
  <anchor x="175" y="333" name="abvm"/>
  <outline>
    <contour>
      <point x="175" y="443" type="curve" smooth="yes"/>
      <point x="239" y="443"/>
      <point x="290" y="494"/>
      <point x="290" y="558" type="curve" smooth="yes"/>
      <point x="290" y="622"/>
      <point x="239" y="673"/>
      <point x="175" y="673" type="curve" smooth="yes"/>
      <point x="111" y="673"/>
      <point x="60" y="622"/>
      <point x="60" y="558" type="curve" smooth="yes"/>
      <point x="60" y="494"/>
      <point x="111" y="443"/>
    </contour>
    <contour>
      <point x="175" y="533" type="curve" smooth="yes"/>
      <point x="160" y="533"/>
      <point x="149" y="544"/>
      <point x="149" y="559" type="curve" smooth="yes"/>
      <point x="149" y="574"/>
      <point x="160" y="585"/>
      <point x="175" y="585" type="curve" smooth="yes"/>
      <point x="190" y="585"/>
      <point x="201" y="574"/>
      <point x="201" y="559" type="curve" smooth="yes"/>
      <point x="201" y="544"/>
      <point x="190" y="533"/>
    </contour>
    <contour>
      <point x="175" y="8" type="curve" smooth="yes"/>
      <point x="239" y="8"/>
      <point x="290" y="59"/>
      <point x="290" y="123" type="curve" smooth="yes"/>
      <point x="290" y="187"/>
      <point x="239" y="238"/>
      <point x="175" y="238" type="curve" smooth="yes"/>
      <point x="111" y="238"/>
      <point x="60" y="187"/>
      <point x="60" y="123" type="curve" smooth="yes"/>
      <point x="60" y="59"/>
      <point x="111" y="8"/>
    </contour>
    <contour>
      <point x="175" y="98" type="curve" smooth="yes"/>
      <point x="160" y="98"/>
      <point x="149" y="109"/>
      <point x="149" y="124" type="curve" smooth="yes"/>
      <point x="149" y="139"/>
      <point x="160" y="150"/>
      <point x="175" y="150" type="curve" smooth="yes"/>
      <point x="190" y="150"/>
      <point x="201" y="139"/>
      <point x="201" y="124" type="curve" smooth="yes"/>
      <point x="201" y="109"/>
      <point x="190" y="98"/>
    </contour>
  </outline>
</glyph>
